<?xml version="1.0" standalone="no"?>
<!DOCTYPE svg PUBLIC "-//W3C//DTD SVG 20010904//EN"
 "http://www.w3.org/TR/2001/REC-SVG-20010904/DTD/svg10.dtd">
<svg version="1.0" xmlns="http://www.w3.org/2000/svg"
 width="2360.000000pt" height="1640.000000pt" viewBox="0 0 2360.000000 1640.000000"
 preserveAspectRatio="xMidYMid meet">

<g transform="translate(0.000000,1640.000000) scale(0.100000,-0.100000)"
fill="#000000" stroke="none">
<path d="M16210 13913 c-25 -2 -119 -10 -210 -19 -126 -12 -338 -16 -893 -20
-401 -2 -733 -6 -738 -10 -6 -3 -150 -8 -322 -10 -577 -8 -1041 -23 -1172 -39
-244 -29 -480 -46 -785 -55 -168 -5 -447 -14 -620 -20 -173 -6 -463 -13 -645
-15 -286 -3 -366 -8 -600 -35 -148 -16 -310 -39 -360 -51 -377 -85 -536 -100
-965 -94 -285 4 -318 6 -485 35 -175 30 -184 31 -320 20 -222 -17 -318 -30
-342 -46 -68 -44 -79 -175 -22 -248 l22 -28 -12 -771 c-6 -425 -11 -830 -11
-902 l0 -130 -102 -2 c-94 -2 -103 -4 -127 -28 l-26 -25 -7 -403 c-4 -221 -10
-491 -13 -600 -5 -156 -4 -217 8 -285 9 -48 19 -131 22 -185 8 -121 14 -126
119 -119 41 2 85 2 99 -2 l24 -6 6 -202 c4 -112 16 -351 27 -533 11 -181 20
-386 20 -455 0 -69 7 -170 15 -225 60 -394 81 -786 66 -1260 -11 -351 2 -1203
24 -1653 8 -167 15 -393 15 -503 l0 -199 -52 6 c-46 5 -56 3 -73 -16 -19 -21
-19 -36 -18 -353 2 -309 18 -604 43 -782 5 -38 9 -98 10 -131 0 -47 5 -68 21
-88 20 -25 23 -26 88 -20 l68 7 12 -164 c22 -300 78 -623 133 -777 30 -83 31
-93 29 -222 l-3 -135 -34 -31 c-27 -25 -34 -39 -34 -68 0 -57 23 -91 82 -120
92 -45 135 -48 553 -44 215 1 557 3 760 3 345 0 380 -2 514 -24 l144 -24 -6
-225 c-6 -246 -1 -280 48 -354 30 -46 126 -95 254 -130 69 -19 82 -19 165 -8
50 7 161 14 246 15 207 3 283 31 337 123 26 44 27 52 25 164 -3 150 -26 316
-52 375 -11 25 -18 48 -16 50 3 3 56 11 118 18 253 30 477 55 548 60 41 4 145
15 230 25 85 10 229 26 320 35 91 9 219 23 285 32 134 19 438 23 648 9 l129
-8 -6 -27 c-3 -14 -9 -87 -12 -161 -6 -112 -4 -141 9 -165 40 -77 116 -115
231 -115 39 0 87 -5 106 -10 19 -6 72 -13 117 -16 77 -7 82 -6 106 18 31 31
62 160 53 216 -4 20 -9 67 -12 105 -5 51 -11 70 -24 77 -20 11 -23 6 -34 -62
-4 -20 -16 -59 -28 -85 -12 -26 -24 -73 -27 -103 l-6 -55 -54 2 c-63 3 -245
39 -281 57 -24 11 -25 16 -25 91 0 44 3 113 5 154 l5 74 164 -7 c90 -3 263 -6
384 -6 l220 0 -7 -158 c-11 -253 10 -371 75 -411 12 -7 61 -27 108 -44 103
-37 176 -40 431 -18 124 11 198 12 300 5 80 -6 153 -6 178 -1 83 17 132 96
132 213 0 26 7 86 16 133 20 104 14 160 -26 236 l-29 55 27 0 c63 0 226 31
342 66 l125 36 203 -1 c118 0 210 -5 221 -11 36 -19 69 -12 85 18 21 41 25 85
41 470 11 255 12 381 5 451 -11 102 8 481 31 621 11 70 17 872 10 1345 -5 330
12 878 34 1090 8 83 20 301 26 485 6 184 14 385 18 445 4 61 4 180 -1 265 -4
85 -12 236 -18 335 -5 99 -14 360 -20 580 -5 220 -14 483 -19 585 -6 117 -6
236 0 325 5 77 14 453 19 835 6 382 12 720 15 750 21 239 27 409 30 845 1 275
8 613 16 750 7 138 13 435 14 660 1 226 7 489 12 585 9 162 8 179 -10 227 -21
57 -12 53 -107 38 -27 -4 -30 -2 -30 21 0 17 -13 40 -37 64 -53 52 -137 66
-313 53z m335 -303 c14 -16 13 -24 -14 -92 -39 -97 -88 -330 -102 -482 -10
-116 -30 -1153 -34 -1836 -1 -179 -6 -613 -10 -965 -8 -629 0 -991 25 -1200 9
-72 7 -91 -14 -177 -38 -146 -55 -284 -62 -488 -6 -156 -3 -210 15 -350 11
-91 25 -251 30 -356 6 -104 12 -197 15 -205 14 -41 37 -397 41 -634 4 -269 4
-270 -30 -470 -19 -110 -39 -252 -45 -315 -36 -370 -38 -420 -32 -1115 4 -633
3 -702 -14 -840 -22 -182 -26 -488 -6 -523 10 -17 13 -108 12 -395 0 -252 4
-412 14 -497 9 -79 11 -145 6 -180 -5 -30 -9 -94 -9 -142 l-1 -88 -112 0
c-109 0 -179 -5 -449 -33 -81 -9 -154 -10 -205 -5 -395 40 -412 40 -1234 48
-454 4 -937 11 -1075 15 -374 11 -615 -6 -1155 -85 -113 -16 -261 -34 -330
-40 -69 -6 -177 -17 -240 -25 -319 -39 -953 -45 -1210 -11 -69 9 -190 30 -270
46 -252 51 -591 64 -906 36 -87 -8 -204 -17 -259 -21 -55 -3 -120 -11 -145
-16 -25 -6 -97 -14 -160 -19 -63 -5 -152 -12 -197 -16 l-82 -7 -7 27 c-4 16
-1 32 6 41 17 21 14 381 -5 545 -26 230 -44 434 -55 625 -20 363 -41 672 -65
984 -16 198 -25 398 -26 540 0 124 -6 397 -12 606 -8 239 -9 502 -5 710 16
691 14 1285 -5 1490 -10 105 -20 197 -22 205 -2 8 -9 78 -15 155 -6 77 -18
187 -27 245 -8 58 -19 186 -23 285 -4 99 -15 254 -24 345 -33 348 -36 407 -46
805 -10 414 -24 722 -39 915 -5 58 -12 389 -16 735 -14 1408 -26 1773 -61
1993 -5 32 -3 40 12 46 32 12 326 24 384 15 30 -4 123 -22 205 -40 l150 -33
410 0 c445 1 543 8 789 54 238 45 576 72 901 71 149 0 439 6 645 14 206 8 548
19 760 25 545 15 868 28 889 35 18 5 250 13 1101 35 349 9 473 14 880 40 388
24 623 31 773 21 209 -14 711 10 736 34 3 3 13 -11 23 -31 10 -21 25 -45 33
-54z m-1228 -11685 c-22 -42 -24 -73 -16 -262 3 -53 0 -86 -8 -94 -30 -30
-369 -66 -588 -62 -129 3 -226 29 -236 64 -9 33 -10 163 -2 292 l6 107 433 -3
432 -2 -21 -40z m-4722 -130 c22 -2 139 0 260 5 121 5 221 7 223 5 2 -1 -6
-30 -17 -63 -17 -48 -22 -95 -26 -239 -4 -148 -8 -180 -21 -190 -9 -6 -46 -14
-82 -18 -37 -3 -105 -12 -152 -20 -201 -33 -269 -35 -363 -7 -39 12 -90 26
-113 32 -59 14 -65 35 -75 245 -4 99 -11 195 -14 213 -3 18 -3 37 0 42 6 9
276 6 380 -5z"/>
<path d="M16210 13568 c-43 -30 -73 -88 -78 -154 -8 -96 45 -134 132 -96 77
34 143 152 115 204 -15 28 -30 39 -46 34 -6 -3 -19 4 -29 15 -23 25 -54 24
-94 -3z m77 -103 c2 -1 -16 -19 -38 -41 l-42 -39 7 30 c4 17 14 40 22 53 13
20 18 21 32 10 9 -7 18 -13 19 -13z"/>
<path d="M8083 13345 c-50 -35 -84 -134 -64 -187 34 -90 231 -28 231 72 0 34
-31 70 -60 70 -24 0 -25 -8 -6 -29 12 -14 12 -21 1 -48 -29 -68 -115 -85 -115
-22 0 51 26 89 61 89 33 0 48 23 32 49 -14 22 -53 25 -80 6z"/>
<path d="M13805 13218 c-4 -13 -9 -106 -11 -208 -2 -102 -9 -349 -15 -550 -8
-273 -8 -404 0 -520 22 -300 24 -447 8 -645 -28 -337 -32 -669 -12 -1080 17
-338 17 -396 4 -670 -9 -193 -14 -508 -13 -880 5 -2524 5 -2594 20 -2839 8
-137 19 -290 24 -340 12 -115 12 -474 0 -766 -5 -124 -12 -308 -16 -410 -10
-254 -9 -581 5 -990 6 -190 11 -429 12 -533 1 -103 5 -189 9 -192 16 -10 29
31 46 141 14 94 17 234 22 1019 6 1206 4 1488 -13 1750 -8 121 -19 308 -25
415 -15 281 -30 1908 -28 3100 1 762 -2 1072 -12 1210 -7 102 -13 338 -13 525
0 287 4 369 23 530 24 204 24 289 0 660 -12 178 -9 353 10 725 5 102 11 272
14 378 4 180 3 192 -14 192 -10 0 -21 -10 -25 -22z"/>
<path d="M15466 13198 c-20 -113 -27 -348 -16 -507 7 -105 9 -265 5 -422 -3
-140 -10 -454 -15 -699 -5 -249 -17 -524 -26 -625 -14 -159 -16 -313 -11
-1338 6 -1189 4 -1283 -33 -1557 -29 -206 -32 -318 -35 -1175 -2 -515 -8 -971
-15 -1065 -6 -91 -14 -221 -19 -289 -5 -73 -4 -250 2 -435 15 -417 15 -761 -1
-991 -15 -236 -1 -957 22 -1100 8 -49 24 -155 36 -235 27 -188 28 -190 47
-190 14 0 15 17 10 158 -3 86 -13 218 -22 292 -20 160 -26 933 -11 1445 6 220
6 342 -2 420 -15 143 -16 668 -1 1270 6 264 13 773 14 1130 3 603 9 782 35
985 30 237 37 544 20 870 -19 380 -33 1434 -21 1630 12 188 43 536 61 690 33
269 41 367 50 570 18 420 9 784 -25 990 -8 47 -17 113 -21 148 -7 68 -19 80
-28 30z"/>
<path d="M14905 12853 c3 -192 8 -441 10 -554 4 -170 2 -233 -15 -360 -48
-369 -52 -432 -45 -689 13 -413 15 -1324 5 -1730 -9 -359 -15 -483 -40 -830
-20 -275 -23 -772 -6 -1233 22 -619 16 -1360 -14 -1717 -5 -58 -13 -332 -19
-610 -6 -278 -18 -586 -26 -685 -19 -226 -39 -912 -30 -1065 15 -281 49 -512
102 -700 9 -30 19 -77 23 -105 l7 -50 18 40 c14 33 17 56 12 135 -4 52 -14
131 -22 175 -34 168 -45 313 -56 685 -12 402 -5 647 26 935 31 278 35 428 40
1250 2 468 7 929 11 1025 4 119 1 279 -11 500 -13 248 -16 413 -12 695 6 376
11 472 50 880 21 223 22 270 23 1490 0 894 3 1289 12 1360 30 263 34 340 27
562 -3 126 -8 316 -11 423 -4 201 -26 488 -38 509 -23 37 -26 -9 -21 -336z"/>
<path d="M16006 13068 c-30 -112 -37 -180 -41 -375 -7 -324 -16 -546 -22 -557
-12 -18 -27 -788 -26 -1251 1 -247 8 -580 15 -740 22 -492 11 -1433 -24 -2050
-8 -156 -8 -299 3 -650 17 -544 17 -917 1 -1545 -7 -261 -17 -664 -22 -895 -5
-231 -16 -512 -25 -625 -26 -331 -29 -546 -11 -850 10 -151 24 -304 32 -340 8
-36 17 -75 20 -87 5 -27 19 -30 28 -7 20 51 16 128 -13 304 -53 325 -63 591
-36 960 24 329 34 530 45 900 6 195 15 416 20 490 5 74 10 473 12 885 2 817
11 1242 28 1490 7 104 13 703 16 1699 2 846 7 1542 9 1547 3 5 10 163 15 351
5 189 14 449 19 578 17 407 18 760 2 798 -7 17 -17 32 -21 32 -4 0 -15 -28
-24 -62z"/>
<path d="M9391 12958 c-33 -236 -25 -559 20 -849 14 -91 20 -200 24 -395 9
-485 25 -916 40 -1084 9 -98 19 -406 25 -760 6 -327 15 -651 20 -720 5 -69 16
-258 25 -420 8 -162 18 -313 22 -335 4 -22 9 -382 11 -800 5 -1132 5 -1212 -3
-1695 -9 -544 16 -1360 50 -1610 7 -58 30 -247 51 -420 34 -289 37 -346 44
-700 7 -357 9 -389 28 -440 12 -30 21 -68 22 -83 0 -48 25 -25 30 29 3 27 2
232 -2 454 -6 410 -23 627 -92 1213 -9 71 -20 249 -26 395 -6 147 -15 371 -20
497 -13 326 -12 783 4 1040 16 281 14 1927 -3 2210 -7 105 -21 325 -31 490
-22 336 -40 883 -40 1260 0 138 -4 302 -10 365 -19 235 -36 570 -60 1150 -6
140 -17 300 -25 355 -18 136 -28 351 -29 651 -1 233 -2 253 -20 273 -33 37
-42 26 -55 -71z"/>
<path d="M8873 13028 c-15 -25 -15 -227 1 -364 12 -107 17 -295 21 -824 6
-751 7 -785 35 -1040 31 -289 49 -461 55 -540 4 -41 17 -165 30 -275 48 -399
64 -832 45 -1205 -24 -489 -36 -1048 -28 -1348 7 -248 16 -375 59 -777 69
-655 83 -991 99 -2265 12 -943 20 -1124 59 -1316 17 -82 38 -194 46 -249 20
-129 35 -195 45 -195 4 0 11 52 15 117 6 96 3 151 -18 322 -37 290 -47 548
-57 1416 -14 1201 -28 1466 -121 2205 -16 129 -34 300 -41 380 -16 197 -16
977 1 1330 31 677 23 1118 -29 1495 -11 77 -26 205 -35 285 -39 377 -48 458
-71 640 -28 219 -38 460 -54 1290 -6 289 -15 559 -21 600 -6 42 -9 132 -6 203
5 103 3 127 -8 127 -8 0 -17 -6 -22 -12z"/>
<path d="M10014 12893 c-11 -111 -6 -811 7 -963 11 -136 28 -1077 29 -1615 0
-355 3 -406 37 -770 l36 -390 -11 -260 c-7 -143 -23 -408 -37 -590 -30 -404
-42 -915 -26 -1140 23 -332 40 -605 46 -745 8 -182 70 -1001 90 -1175 8 -71
21 -213 30 -315 9 -102 24 -268 35 -370 11 -102 25 -291 32 -420 13 -236 13
-324 5 -765 -3 -132 -1 -280 3 -330 9 -94 37 -196 56 -202 29 -9 35 153 38
892 1 135 -18 458 -49 845 -8 102 -17 235 -20 295 -3 61 -15 202 -25 315 -11
113 -29 315 -40 450 -11 135 -27 317 -35 405 -8 88 -19 255 -25 370 -6 116
-20 320 -32 455 -19 206 -22 312 -22 665 0 363 5 485 32 898 18 263 32 535 32
605 0 141 -18 359 -55 682 -32 281 -43 627 -55 1743 -5 489 -12 892 -14 896
-3 4 -9 110 -15 237 -13 277 -22 384 -31 384 -4 0 -11 -39 -16 -87z"/>
<path d="M10535 12958 c-19 -62 -48 -269 -47 -338 3 -190 23 -775 32 -920 5
-85 14 -234 20 -330 6 -96 18 -249 27 -340 16 -166 19 -600 8 -1400 -2 -187 2
-371 12 -535 12 -191 17 -476 19 -1200 3 -1020 3 -1026 34 -1395 11 -135 25
-378 30 -540 5 -162 17 -425 25 -585 9 -159 20 -416 25 -570 6 -154 14 -347
20 -430 5 -82 12 -445 15 -805 5 -444 11 -701 21 -799 7 -79 16 -146 19 -149
3 -3 10 -1 15 4 27 27 31 139 31 774 0 654 -9 1070 -37 1870 -8 234 -19 551
-24 705 -9 274 -16 379 -45 679 -25 255 -36 694 -34 1406 2 550 -1 729 -14
910 -13 181 -16 387 -17 1050 0 473 -4 880 -10 955 -6 72 -15 209 -20 305 -5
96 -14 240 -20 320 -24 337 -31 445 -40 630 -5 107 -14 250 -20 317 -6 75 -7
160 -2 220 9 108 5 203 -9 203 -5 0 -11 -6 -14 -12z"/>
<path d="M14371 12823 c-25 -93 -40 -235 -47 -448 -11 -297 -7 -802 6 -977 6
-75 13 -268 15 -430 2 -161 7 -356 10 -433 5 -85 3 -182 -3 -245 -6 -58 -14
-152 -17 -210 -3 -58 -10 -150 -14 -205 -19 -254 -21 -1300 -2 -1702 12 -265
11 -351 -3 -690 -8 -215 -18 -731 -21 -1158 -3 -423 -10 -824 -15 -890 -5 -66
-12 -266 -16 -445 -5 -263 -3 -364 11 -530 23 -281 37 -743 40 -1325 2 -487 2
-490 25 -542 33 -77 44 -68 34 25 -4 42 -9 280 -9 527 -1 248 -7 521 -13 607
-15 197 -17 1031 -2 1273 5 99 15 270 21 380 6 110 12 612 13 1115 2 809 4
932 20 1060 19 156 18 405 -3 660 -33 393 -40 636 -31 1101 9 443 16 583 43
874 7 72 12 180 12 240 -1 301 -15 867 -25 1002 -13 173 -16 526 -8 1041 2
194 1 355 -3 358 -5 2 -13 -12 -18 -33z"/>
<path d="M8311 12663 c-23 -43 -33 -157 -28 -297 24 -574 35 -764 57 -956 16
-145 30 -421 30 -610 0 -107 6 -220 15 -278 8 -53 19 -167 25 -252 6 -85 22
-213 35 -285 45 -235 55 -390 65 -945 10 -530 27 -905 55 -1190 31 -327 35
-395 45 -715 5 -181 14 -429 20 -550 6 -137 6 -572 1 -1155 -8 -986 3 -1626
33 -1970 27 -295 41 -709 28 -818 -11 -101 -6 -218 11 -229 6 -3 7 19 2 63 -5
50 -2 94 11 159 15 75 18 136 16 365 -1 151 -8 358 -14 460 -10 135 -13 574
-13 1625 0 866 -5 1635 -12 1930 -12 457 -18 568 -42 815 -30 294 -51 814 -51
1274 -1 355 -26 648 -80 919 -11 55 -25 163 -30 240 -6 78 -18 189 -25 246 -8
58 -15 179 -15 270 0 151 -22 571 -35 681 -14 114 -35 425 -35 515 0 55 -9
190 -20 300 -10 110 -21 244 -23 297 -4 103 -9 122 -26 91z"/>
<path d="M13186 11946 c-3 -14 -32 -74 -65 -133 -32 -60 -64 -127 -71 -148 -6
-22 -30 -84 -53 -138 -38 -91 -46 -102 -102 -146 -33 -26 -79 -59 -103 -74
-24 -15 -74 -57 -113 -92 -75 -69 -134 -95 -214 -95 l-41 0 13 108 c7 59 15
177 19 262 5 138 4 159 -13 189 -10 19 -26 39 -36 45 -27 17 -68 -12 -97 -69
-25 -50 -25 -52 -23 -297 l2 -248 -42 0 c-79 0 -212 21 -255 40 -73 33 -140
87 -305 250 -124 121 -171 174 -214 245 -76 122 -161 233 -184 240 -30 10 -56
-3 -69 -36 -12 -27 -9 -38 33 -127 25 -53 57 -126 72 -162 43 -103 123 -254
162 -307 102 -134 272 -298 371 -356 74 -43 130 -55 396 -87 268 -32 310 -31
412 8 91 34 156 87 331 271 l172 181 26 82 c28 93 40 175 56 395 11 143 10
154 -8 185 -24 41 -48 47 -57 14z"/>
<path d="M12465 10305 c-485 -60 -751 -112 -870 -172 -63 -32 -185 -155 -251
-254 -28 -42 -72 -106 -97 -141 -46 -65 -77 -150 -77 -213 0 -16 -7 -67 -16
-112 -11 -52 -14 -98 -10 -128 17 -112 159 -323 315 -468 68 -62 165 -114 276
-145 39 -11 131 -38 205 -61 177 -54 266 -63 505 -51 458 24 667 46 732 76 17
9 37 29 44 46 18 44 2 79 -46 103 -36 18 -54 20 -190 15 -201 -7 -438 -4 -680
8 -221 11 -233 13 -450 103 -169 70 -181 77 -240 139 -206 216 -229 252 -215
330 4 25 11 80 15 122 6 66 11 83 37 115 17 21 51 70 76 108 87 133 187 223
292 260 80 29 556 114 780 140 180 20 261 19 355 -5 154 -39 325 -21 391 41
33 30 30 53 -9 83 -49 38 -79 46 -252 72 -205 31 -289 29 -620 -11z"/>
<path d="M12127 8015 c-112 -18 -421 -122 -511 -172 -125 -69 -241 -196 -271
-296 -19 -62 -47 -308 -40 -340 3 -12 7 -112 9 -222 3 -187 5 -208 35 -320 45
-169 124 -326 211 -415 60 -62 79 -74 262 -163 108 -53 221 -103 250 -112 29
-9 140 -24 247 -35 172 -16 206 -16 309 -4 98 11 127 19 196 52 45 22 101 57
125 78 74 64 165 178 212 265 24 46 70 119 102 163 74 102 143 238 162 319 8
34 18 123 21 197 9 175 -2 217 -109 428 -95 188 -183 313 -254 358 -26 17 -80
52 -120 78 -79 51 -130 71 -297 115 -95 25 -135 30 -281 35 -122 4 -195 1
-258 -9z m378 -284 c215 -54 352 -122 432 -216 19 -22 70 -111 114 -197 l79
-157 0 -149 c0 -175 -15 -241 -79 -339 -22 -34 -69 -119 -105 -189 -71 -141
-135 -228 -196 -273 -22 -16 -77 -39 -122 -51 -74 -20 -97 -22 -218 -16 -245
12 -308 28 -528 139 -127 64 -177 104 -186 151 -4 18 -25 62 -48 97 -61 95
-85 154 -108 264 -35 165 -25 343 21 405 39 52 65 106 90 194 21 72 28 84 95
151 95 96 145 129 267 176 l102 40 155 -5 c109 -3 179 -11 235 -25z"/>
<path d="M12380 7400 c-85 -11 -204 -24 -263 -29 -141 -12 -188 -34 -235 -111
-48 -81 -57 -121 -57 -260 0 -125 0 -125 38 -202 65 -130 126 -169 313 -198
109 -16 159 -18 363 -13 130 3 242 10 249 16 6 5 12 20 12 32 0 35 -18 42
-125 48 -188 9 -380 28 -443 44 -115 28 -199 91 -232 171 -14 36 -8 164 11
235 18 68 35 77 152 77 301 1 545 35 626 88 45 29 61 59 40 73 -69 44 -239 55
-449 29z"/>
<path d="M12440 5680 c-197 -14 -445 -41 -476 -51 -45 -14 -66 -41 -62 -81 2
-28 10 -37 48 -56 44 -23 50 -23 190 -16 80 5 240 9 355 9 140 1 225 5 254 14
43 12 111 67 111 89 0 23 -51 69 -87 79 -54 16 -210 22 -333 13z"/>
<path d="M16058 2700 c-28 -27 -38 -58 -38 -115 0 -127 85 -193 153 -118 9 11
25 54 34 96 l16 75 -32 41 c-30 38 -36 41 -75 39 -23 -2 -49 -10 -58 -18z m47
-90 c9 -15 -6 -101 -16 -94 -12 7 -12 104 0 104 6 0 13 -5 16 -10z"/>
<path d="M8421 2459 c-46 -49 -35 -166 19 -221 52 -52 110 -29 131 52 18 67 6
112 -41 154 -46 41 -80 46 -109 15z m83 -76 c-10 -75 -23 -86 -24 -22 0 31 3
59 7 62 17 18 24 3 17 -40z"/>
</g>
</svg>
