<svg id="Layer_1" data-name="Layer 1" xmlns="http://www.w3.org/2000/svg" viewBox="0 0 990.84 1307.05"><g id="icon1"><path d="M966.35,36.93c-2.5.2-11.9,1-21,1.9-12.6,1.2-33.8,1.6-89.3,2-40.1.2-73.3.6-73.8,1s-15,.8-32.2,1c-57.7.8-104.1,2.3-117.2,3.9-24.4,2.9-48,4.6-78.5,5.5-16.8.5-44.7,1.4-62,2s-46.3,1.3-64.5,1.5c-28.6.3-36.6.8-60,3.5-14.8,1.6-31,3.9-36,5.1-37.7,8.5-53.6,10-96.5,9.4-28.5-.4-31.8-.6-48.5-3.5-17.5-3-18.4-3.1-32-2-22.2,1.7-31.8,3-34.2,4.6-6.8,4.4-7.9,17.5-2.2,24.8l2.2,2.8-1.2,77.1c-.6,42.5-1.1,83-1.1,90.2v13l-10.2.2c-9.4.2-10.3.4-12.7,2.8l-2.6,2.5-.7,40.3c-.4,22.1-1,49.1-1.3,60-.5,15.6-.4,21.7.8,28.5a173.6,173.6,0,0,1,2.2,18.5c.8,12.1,1.4,12.6,11.9,11.9,4.1-.2,8.5-.2,9.9.2l2.4.6.6,20.2c.4,11.2,1.6,35.1,2.7,53.3s2,38.6,2,45.5a190,190,0,0,0,1.5,22.5c6,39.4,8.1,78.6,6.6,126-1.1,35.1.2,120.3,2.4,165.3.8,16.7,1.5,39.3,1.5,50.3v19.9l-5.2-.6c-4.6-.5-5.6-.3-7.3,1.6-1.9,2.1-1.9,3.6-1.8,35.3.2,30.9,1.8,60.4,4.3,78.2.5,3.8.9,9.8,1,13.1,0,4.7.5,6.8,2.1,8.8,2,2.5,2.3,2.6,8.8,2l6.8-.7,1.2,16.4c2.2,30,7.8,62.3,13.3,77.7,3,8.3,3.1,9.3,2.9,22.2l-.3,13.5-3.4,3.1c-2.7,2.5-3.4,3.9-3.4,6.8,0,5.7,2.3,9.1,8.2,12,9.2,4.5,13.5,4.8,55.3,4.4,21.5-.1,55.7-.3,76-.3,34.5,0,38,.2,51.4,2.4l14.4,2.4-.6,22.5c-.6,24.6-.1,28,4.8,35.4,3,4.6,12.6,9.5,25.4,13,6.9,1.9,8.2,1.9,16.5.8,5-.7,16.1-1.4,24.6-1.5,20.7-.3,28.3-3.1,33.7-12.3,2.6-4.4,2.7-5.2,2.5-16.4-.3-15-2.6-31.6-5.2-37.5-1.1-2.5-1.8-4.8-1.6-5s5.6-1.1,11.8-1.8c25.3-3,47.7-5.5,54.8-6,4.1-.4,14.5-1.5,23-2.5s22.9-2.6,32-3.5,21.9-2.3,28.5-3.2c13.4-1.9,43.8-2.3,64.8-.9l12.9.8-.6,2.7c-.3,1.4-.9,8.7-1.2,16.1-.6,11.2-.4,14.1.9,16.5,4,7.7,11.6,11.5,23.1,11.5a54.21,54.21,0,0,1,10.6,1,69.84,69.84,0,0,0,11.7,1.6c7.7.7,8.2.6,10.6-1.8,3.1-3.1,6.2-16,5.3-21.6-.4-2-.9-6.7-1.2-10.5-.5-5.1-1.1-7-2.4-7.7-2-1.1-2.3-.6-3.4,6.2a46.55,46.55,0,0,1-2.8,8.5,39.06,39.06,0,0,0-2.7,10.3l-.6,5.5-5.4-.2c-6.3-.3-24.5-3.9-28.1-5.7-2.4-1.1-2.5-1.6-2.5-9.1,0-4.4.3-11.3.5-15.4l.5-7.4,16.4.7c9,.3,26.3.6,38.4.6h22L776,1247c-1.1,25.3,1,37.1,7.5,41.1a108.79,108.79,0,0,0,10.8,4.4c10.3,3.7,17.6,4,43.1,1.8a170,170,0,0,1,30-.5c8,.6,15.3.6,17.8.1,8.3-1.7,13.2-9.6,13.2-21.3a91.79,91.79,0,0,1,1.6-13.3c2-10.4,1.4-16-2.6-23.6l-2.9-5.5h2.7c6.3,0,22.6-3.1,34.2-6.6l12.5-3.6,20.3.1c11.8,0,21,.5,22.1,1.1,3.6,1.9,6.9,1.2,8.5-1.8,2.1-4.1,2.5-8.5,4.1-47,1.1-25.5,1.2-38.1.5-45.1-1.1-10.2.8-48.1,3.1-62.1,1.1-7,1.7-87.2,1-134.5-.5-33,1.2-87.8,3.4-109,.8-8.3,2-30.1,2.6-48.5s1.4-38.5,1.8-44.5a261.7,261.7,0,0,0-.1-26.5c-.4-8.5-1.2-23.6-1.8-33.5s-1.4-36-2-58-1.4-48.3-1.9-58.5a292.4,292.4,0,0,1,0-32.5c.5-7.7,1.4-45.3,1.9-83.5s1.2-72,1.5-75c2.1-23.9,2.7-40.9,3-84.5.1-27.5.8-61.3,1.6-75s1.3-43.5,1.4-66,.7-48.9,1.2-58.5c.9-16.2.8-17.9-1-22.7-2.1-5.7-1.2-5.3-10.7-3.8-2.7.4-3,.2-3-2.1,0-1.7-1.3-4-3.7-6.4C992.35,37,984,35.63,966.35,36.93Zm33.5,30.3c1.4,1.6,1.3,2.4-1.4,9.2-3.9,9.7-8.8,33-10.2,48.2-1,11.6-3,115.3-3.4,183.6-.1,17.9-.6,61.3-1,96.5-.8,62.9,0,99.1,2.5,120,.9,7.2.7,9.1-1.4,17.7-3.8,14.6-5.5,28.4-6.2,48.8-.6,15.6-.3,21,1.5,35,1.1,9.1,2.5,25.1,3,35.6s1.2,19.7,1.5,20.5c1.4,4.1,3.7,39.7,4.1,63.4.4,26.9.4,27-3,47-1.9,11-3.9,25.2-4.5,31.5-3.6,37-3.8,42-3.2,111.5.4,63.3.3,70.2-1.4,84-2.2,18.2-2.6,48.8-.6,52.3,1,1.7,1.3,10.8,1.2,39.5,0,25.2.4,41.2,1.4,49.7.9,7.9,1.1,14.5.6,18a109.28,109.28,0,0,0-.9,14.2l-.1,8.8h-11.2c-10.9,0-17.9.5-44.9,3.3a104.63,104.63,0,0,1-20.5.5c-39.5-4-41.2-4-123.4-4.8-45.4-.4-93.7-1.1-107.5-1.5-37.4-1.1-61.5.6-115.5,8.5-11.3,1.6-26.1,3.4-33,4s-17.7,1.7-24,2.5c-31.9,3.9-95.3,4.5-121,1.1-6.9-.9-19-3-27-4.6-25.2-5.1-59.1-6.4-90.6-3.6-8.7.8-20.4,1.7-25.9,2.1a131.38,131.38,0,0,0-14.5,1.6,153.35,153.35,0,0,1-16,1.9c-6.3.5-15.2,1.2-19.7,1.6l-8.2.7-.7-2.7a5,5,0,0,1,.6-4.1c1.7-2.1,1.4-38.1-.5-54.5-2.6-23-4.4-43.4-5.5-62.5-2-36.3-4.1-67.2-6.5-98.4-1.6-19.8-2.5-39.8-2.6-54,0-12.4-.6-39.7-1.2-60.6-.8-23.9-.9-50.2-.5-71,1.6-69.1,1.4-128.5-.5-149-1-10.5-2-19.7-2.2-20.5s-.9-7.8-1.5-15.5-1.8-18.7-2.7-24.5-1.9-18.6-2.3-28.5-1.5-25.4-2.4-34.5c-3.3-34.8-3.6-40.7-4.6-80.5-1-41.4-2.4-72.2-3.9-91.5-.5-5.8-1.2-38.9-1.6-73.5-1.4-140.8-2.6-177.3-6.1-199.3-.5-3.2-.3-4,1.2-4.6,3.2-1.2,32.6-2.4,38.4-1.5,3,.4,12.3,2.2,20.5,4l15,3.3h41c44.5-.1,54.3-.8,78.9-5.4,23.8-4.5,57.6-7.2,90.1-7.1,14.9,0,43.9-.6,64.5-1.4s54.8-1.9,76-2.5c54.5-1.5,86.8-2.8,88.9-3.5,1.8-.5,25-1.3,110.1-3.5,34.9-.9,47.3-1.4,88-4,38.8-2.4,62.3-3.1,77.3-2.1,20.9,1.4,71.1-1,73.6-3.4.3-.3,1.3,1.1,2.3,3.1A28.9,28.9,0,0,0,999.85,67.23Zm-122.8,1168.5c-2.2,4.2-2.4,7.3-1.6,26.2.3,5.3,0,8.6-.8,9.4-3,3-36.9,6.6-58.8,6.2-12.9-.3-22.6-2.9-23.6-6.4-.9-3.3-1-16.3-.2-29.2l.6-10.7,43.3.3,43.2.2Zm-472.2,13c2.2.2,13.9,0,26-.5s22.1-.7,22.3-.5-.6,3-1.7,6.3c-1.7,4.8-2.2,9.5-2.6,23.9-.4,14.8-.8,18-2.1,19-.9.6-4.6,1.4-8.2,1.8s-10.5,1.2-15.2,2c-20.1,3.3-26.9,3.5-36.3.7-3.9-1.2-9-2.6-11.3-3.2-5.9-1.4-6.5-3.5-7.5-24.5-.4-9.9-1.1-19.5-1.4-21.3s-.3-3.7,0-4.2C367.45,1247.33,394.45,1247.63,404.85,1248.73Z" transform="translate(-38.64 -27.29)"/><path d="M966.35,71.43c-4.3,3-7.3,8.8-7.8,15.4-.8,9.6,4.5,13.4,13.2,9.6,7.7-3.4,14.3-15.2,11.5-20.4-1.5-2.8-3-3.9-4.6-3.4-.6.3-1.9-.4-2.9-1.5C973.45,68.63,970.35,68.73,966.35,71.43Zm7.7,10.3c.2.1-1.6,1.9-3.8,4.1l-4.2,3.9.7-3a21.08,21.08,0,0,1,2.2-5.3c1.3-2,1.8-2.1,3.2-1A12.4,12.4,0,0,0,974.05,81.73Z" transform="translate(-38.64 -27.29)"/><path d="M153.65,93.73c-5,3.5-8.4,13.4-6.4,18.7,3.4,9,23.1,2.8,23.1-7.2,0-3.4-3.1-7-6-7-2.4,0-2.5.8-.6,2.9,1.2,1.4,1.2,2.1.1,4.8-2.9,6.8-11.5,8.5-11.5,2.2,0-5.1,2.6-8.9,6.1-8.9,3.3,0,4.8-2.3,3.2-4.9C160.25,92.13,156.35,91.83,153.65,93.73Z" transform="translate(-38.64 -27.29)"/><path d="M393.6,141.57c-3.9,6.06-9.87,26.31-9.66,33.05.62,18.59,4.73,75.8,6.58,90,1,8.32,2.88,22.89,4.11,32.28s3.7,24.35,5.55,33.25c3.3,16.24,3.91,58.68,1.65,136.92a355.66,355.66,0,0,0,2.47,52.33c2.46,18.68,3.49,46.55,3.9,117.36.62,99.76.62,100.35,7,136.44,2.26,13.2,5.14,37,6.16,52.81s3.5,41.57,5.15,57.21c1.85,15.56,4.11,40.69,5.14,55.75,1.23,15.06,2.88,33.94,4.11,42.06,1,8,2.47,43.52,3.08,78.73,1,43.42,2.26,68.56,4.32,78.14,1.44,7.73,3.29,14.28,3.91,14.58a4.54,4.54,0,0,0,3.08-.4c5.55-2.64,6.38-13.59,6.38-75.69,0-64-1.86-104.65-7.61-182.9-1.65-22.88-3.91-53.88-4.94-69-1.85-26.79-3.29-37.06-9.25-66.4-5.14-24.94-7.4-67.88-7-137.51.41-53.8-.21-71.3-2.88-89s-3.29-37.85-3.5-102.7c0-46.26-.82-86.06-2.05-93.4-1.24-7-3.09-20.44-4.11-29.83s-2.88-23.47-4.12-31.3c-4.93-32.95-6.37-43.52-8.22-61.61-1-10.47-2.88-24.45-4.11-31-1.24-7.33-1.44-15.64-.41-21.51,1.85-10.57,1-19.86-1.86-19.86A4.75,4.75,0,0,0,393.6,141.57Z" transform="translate(-38.64 -27.29)"/><path d="M664,233.63c-.3,1.4-3.2,7.4-6.5,13.3a151.49,151.49,0,0,0-7.1,14.8c-.6,2.2-3,8.4-5.3,13.8-3.8,9.1-4.6,10.2-10.2,14.6-3.3,2.6-7.9,5.9-10.3,7.4a115.49,115.49,0,0,0-11.3,9.2c-7.5,6.9-13.4,9.5-21.4,9.5h-4.1l1.3-10.8c.7-5.9,1.5-17.7,1.9-26.2.5-13.8.4-15.9-1.3-18.9a13.55,13.55,0,0,0-3.6-4.5c-2.7-1.7-6.8,1.2-9.7,6.9-2.5,5-2.5,5.2-2.3,29.7l.2,24.8h-4.2c-7.9,0-21.2-2.1-25.5-4-7.3-3.3-14-8.7-30.5-25-12.4-12.1-17.1-17.4-21.4-24.5-7.6-12.2-16.1-23.3-18.4-24-3-1-5.6.3-6.9,3.6-1.2,2.7-.9,3.8,3.3,12.7,2.5,5.3,5.7,12.6,7.2,16.2,4.3,10.3,12.3,25.4,16.2,30.7,10.2,13.4,27.2,29.8,37.1,35.6,7.4,4.3,13,5.5,39.6,8.7,26.8,3.2,31,3.1,41.2-.8,9.1-3.4,15.6-8.7,33.1-27.1l17.2-18.1,2.6-8.2c2.8-9.3,4-17.5,5.6-39.5,1.1-14.3,1-15.4-.8-18.5C667.25,230.93,664.85,230.33,664,233.63Z" transform="translate(-38.64 -27.29)"/><path d="M591.85,397.73c-48.5,6-75.1,11.2-87,17.2-6.3,3.2-18.5,15.5-25.1,25.4-2.8,4.2-7.2,10.6-9.7,14.1-4.6,6.5-7.7,15-7.7,21.3a85.33,85.33,0,0,1-1.6,11.2,41,41,0,0,0-1,12.8c1.7,11.2,15.9,32.3,31.5,46.8,6.8,6.2,16.5,11.4,27.6,14.5,3.9,1.1,13.1,3.8,20.5,6.1,17.7,5.4,26.6,6.3,50.5,5.1,45.8-2.4,66.7-4.6,73.2-7.6a10.83,10.83,0,0,0,4.4-4.6c1.8-4.4.2-7.9-4.6-10.3-3.6-1.8-5.4-2-19-1.5-20.1.7-43.8.4-68-.8-22.1-1.1-23.3-1.3-45-10.3-16.9-7-18.1-7.7-24-13.9-20.6-21.6-22.9-25.2-21.5-33,.4-2.5,1.1-8,1.5-12.2.6-6.6,1.1-8.3,3.7-11.5,1.7-2.1,5.1-7,7.6-10.8,8.7-13.3,18.7-22.3,29.2-26,8-2.9,55.6-11.4,78-14,18-2,26.1-1.9,35.5.5,15.4,3.9,32.5,2.1,39.1-4.1,3.3-3,3-5.3-.9-8.3-4.9-3.8-7.9-4.6-25.2-7.2C633.35,393.53,625,393.73,591.85,397.73Z" transform="translate(-38.64 -27.29)"/><path d="M558.05,626.73c-11.2,1.8-42.1,12.2-51.1,17.2-12.5,6.9-24.1,19.6-27.1,29.6-1.9,6.2-4.7,30.8-4,34,.3,1.2.7,11.2.9,22.2.3,18.7.5,20.8,3.5,32,4.5,16.9,12.4,32.6,21.1,41.5,6,6.2,7.9,7.4,26.2,16.3,10.8,5.3,22.1,10.3,25,11.2s14,2.4,24.7,3.5c17.2,1.6,20.6,1.6,30.9.4,9.8-1.1,12.7-1.9,19.6-5.2a70.05,70.05,0,0,0,12.5-7.8,109,109,0,0,0,21.2-26.5,157.28,157.28,0,0,1,10.2-16.3c7.4-10.2,14.3-23.8,16.2-31.9a139.07,139.07,0,0,0,2.1-19.7c.9-17.5-.2-21.7-10.9-42.8-9.5-18.8-18.3-31.3-25.4-35.8l-12-7.8c-7.9-5.1-13-7.1-29.7-11.5-9.5-2.5-13.5-3-28.1-3.5C571.65,625.43,564.35,625.73,558.05,626.73Zm37.8,28.4c21.5,5.4,35.2,12.2,43.2,21.6,1.9,2.2,7,11.1,11.4,19.7l7.9,15.7V727c0,17.5-1.5,24.1-7.9,33.9-2.2,3.4-6.9,11.9-10.5,18.9-7.1,14.1-13.5,22.8-19.6,27.3-2.2,1.6-7.7,3.9-12.2,5.1-7.4,2-9.7,2.2-21.8,1.6-24.5-1.2-30.8-2.8-52.8-13.9-12.7-6.4-17.7-10.4-18.6-15.1-.4-1.8-2.5-6.2-4.8-9.7-6.1-9.5-8.5-15.4-10.8-26.4-3.5-16.5-2.5-34.3,2.1-40.5,3.9-5.2,6.5-10.6,9-19.4,2.1-7.2,2.8-8.4,9.5-15.1,9.5-9.6,14.5-12.9,26.7-17.6l10.2-4,15.5.5C583.25,652.93,590.25,653.73,595.85,655.13Z" transform="translate(-38.64 -27.29)"/><path d="M583.35,688.23c-8.5,1.1-20.4,2.4-26.3,2.9-14.1,1.2-18.8,3.4-23.5,11.1-4.8,8.1-5.7,12.1-5.7,26,0,12.5,0,12.5,3.8,20.2,6.5,13,12.6,16.9,31.3,19.8,10.9,1.6,15.9,1.8,36.3,1.3,13-.3,24.2-1,24.9-1.6a4.93,4.93,0,0,0,1.2-3.2c0-3.5-1.8-4.2-12.5-4.8-18.8-.9-38-2.8-44.3-4.4-11.5-2.8-19.9-9.1-23.2-17.1-1.4-3.6-.8-16.4,1.1-23.5,1.8-6.8,3.5-7.7,15.2-7.7,30.1-.1,54.5-3.5,62.6-8.8,4.5-2.9,6.1-5.9,4-7.3C621.35,686.73,604.35,685.63,583.35,688.23Z" transform="translate(-38.64 -27.29)"/><path d="M589.35,860.23c-19.7,1.4-44.5,4.1-47.6,5.1-4.5,1.4-6.6,4.1-6.2,8.1.2,2.8,1,3.7,4.8,5.6,4.4,2.3,5,2.3,19,1.6,8-.5,24-.9,35.5-.9,14-.1,22.5-.5,25.4-1.4,4.3-1.2,11.1-6.7,11.1-8.9s-5.1-6.9-8.7-7.9C617.25,859.93,601.65,859.33,589.35,860.23Z" transform="translate(-38.64 -27.29)"/><path d="M951.15,1158.23c-2.8,2.7-3.8,5.8-3.8,11.5,0,12.7,8.5,19.3,15.3,11.8.9-1.1,2.5-5.4,3.4-9.6l1.6-7.5-3.2-4.1c-3-3.8-3.6-4.1-7.5-3.9C954.65,1156.63,952.05,1157.43,951.15,1158.23Zm4.7,9c.9,1.5-.6,10.1-1.6,9.4-1.2-.7-1.2-10.4,0-10.4A2.14,2.14,0,0,1,955.85,1167.23Z" transform="translate(-38.64 -27.29)"/><path d="M187.45,1182.33c-4.6,4.9-3.5,16.6,1.9,22.1,5.2,5.2,11,2.9,13.1-5.2,1.8-6.7.6-11.2-4.1-15.4S190.35,1179.23,187.45,1182.33Zm8.3,7.6c-1,7.5-2.3,8.6-2.4,2.2,0-3.1.3-5.9.7-6.2C195.75,1184.13,196.45,1185.63,195.75,1189.93Z" transform="translate(-38.64 -27.29)"/><path d="M321,135.45c-3.91,6.16-9.87,26.74-9.67,33.6.62,18.89,4.73,77,6.58,91.46,1,8.45,2.88,23.26,4.11,32.81s3.7,24.75,5.56,33.8c3.29,16.5,3.9,59.64,1.64,139.17a367.44,367.44,0,0,0,2.47,53.19c2.46,19,3.49,47.32,3.9,119.29.62,101.4.62,102,7,138.68,2.26,13.42,5.14,37.58,6.16,53.69s3.5,42.25,5.15,58.15c1.85,15.81,4.11,41.36,5.14,56.67,1.23,15.31,2.88,34.49,4.11,42.75,1,8.15,2.47,44.23,3.08,80,1,44.14,2.26,69.69,4.32,79.43,1.44,7.86,3.29,14.52,3.91,14.81a4.47,4.47,0,0,0,3.08-.39c5.55-2.69,6.38-13.82,6.38-76.95,0-65-1.86-106.37-7.61-185.9-1.65-23.26-3.91-54.78-4.94-70.09-1.85-27.23-3.29-37.67-9.25-67.5-5.14-25.35-7.4-69-7-139.77.41-54.68-.21-72.47-2.88-90.46s-3.29-38.48-3.5-104.39c0-47-.82-87.48-2-94.94-1.24-7.15-3.09-20.77-4.11-30.32s-2.88-23.86-4.12-31.81c-4.93-33.5-6.37-44.24-8.22-62.63-1-10.64-2.88-24.85-4.11-31.51-1.24-7.46-1.44-15.91-.41-21.87,1.85-10.74,1-20.19-1.86-20.19A4.72,4.72,0,0,0,321,135.45Z" transform="translate(-38.64 -27.29)"/><path d="M174.49,142.63c-3.91,6.08-9.87,26.37-9.66,33.13.61,18.63,4.72,76,6.57,90.18,1,8.33,2.88,22.94,4.12,32.35s3.7,24.41,5.55,33.33c3.29,16.27,3.91,58.81,1.64,137.23a358.57,358.57,0,0,0,2.47,52.44c2.47,18.72,3.5,46.65,3.91,117.62.61,100,.61,100.57,7,136.74,2.26,13.23,5.14,37.05,6.17,52.93s3.49,41.66,5.14,57.34c1.85,15.59,4.11,40.78,5.14,55.88,1.23,15.09,2.88,34,4.11,42.14,1,8,2.47,43.62,3.09,78.91,1,43.52,2.26,68.71,4.31,78.32,1.44,7.74,3.29,14.31,3.91,14.61a4.56,4.56,0,0,0,3.09-.4c5.55-2.64,6.37-13.62,6.37-75.86,0-64.11-1.85-104.89-7.61-183.3-1.64-22.94-3.91-54-4.93-69.11-1.85-26.86-3.29-37.15-9.26-66.55-5.14-25-7.4-68-7-137.82.41-53.91-.2-71.46-2.88-89.2s-3.29-37.93-3.49-102.92c0-46.37-.83-86.26-2.06-93.61-1.23-7.06-3.08-20.49-4.11-29.9s-2.88-23.52-4.11-31.37c-4.94-33-6.38-43.61-8.23-61.75-1-10.49-2.88-24.5-4.11-31.07-1.23-7.35-1.44-15.68-.41-21.57,1.85-10.58,1-19.89-1.85-19.89A4.72,4.72,0,0,0,174.49,142.63Z" transform="translate(-38.64 -27.29)"/><path d="M822.55,147.13c-4.3,5.92-11.61,26.15-11.86,33-.63,19-.37,77.5.52,92.07.47,8.53,1.34,23.49,1.94,33.14s2.05,25,3.3,34.23c2.19,16.75,0,60-7.56,139.55a372.61,372.61,0,0,0-1,53.45c1.21,19.18.36,47.64-4,119.77-6.08,101.64-6.12,102.24-2.19,139.41,1.37,13.59,2.65,38,2.61,54.19s.7,42.56,1.29,58.6c.8,16,1.37,41.71,1.38,57.12.22,15.42.59,34.75,1.28,43.09.49,8.24-.46,44.49-2.21,80.39-1.89,44.29-2.35,70-.94,79.86.91,8,2.32,14.76,2.92,15.1a4.42,4.42,0,0,0,3.1-.19c5.72-2.33,7.27-13.43,11.45-76.68,4.29-65.14,5.18-106.69,4.69-186.75-.1-23.42-.28-55.14-.29-70.55-.05-27.41-.79-38-4.77-68.23-3.46-25.74-2.83-69.61,2.26-140.5,4-54.76,4.58-72.62,3.11-90.83s-.74-38.76,3.41-104.81c3.11-47.11,5-87.7,4.22-95.25-.76-7.26-1.7-21-2.1-30.65s-1.29-24.1-2-32.15c-2.71-33.89-3.44-44.74-4.07-63.29-.32-10.72-1.23-25.09-2-31.84-.74-7.55-.38-16,1-21.94,2.55-10.63,2.36-20.15-.52-20.34A4.73,4.73,0,0,0,822.55,147.13Z" transform="translate(-38.64 -27.29)"/><path d="M884.77,134.29c-4.3,5.92-11.59,26.14-11.83,33-.61,19-.28,77.46.63,92,.47,8.52,1.36,23.48,2,33.12s2.09,25,3.35,34.2c2.21,16.74,0,60-7.4,139.49a369,369,0,0,0-1,53.42c1.22,19.18.41,47.62-3.85,119.73-6,101.58-6,102.18-2,139.33,1.38,13.59,2.69,38,2.67,54.16s.74,42.54,1.35,58.58c.82,15.94,1.42,41.68,1.45,57.08.24,15.41.63,34.73,1.33,43.07.49,8.23-.41,44.46-2.12,80.34-1.84,44.27-2.27,69.94-.85,79.83.92,8,2.34,14.75,2.93,15.09a4.46,4.46,0,0,0,3.11-.2c5.71-2.33,7.26-13.43,11.36-76.65,4.22-65.11,5.06-106.64,4.48-186.66-.13-23.4-.34-55.11-.38-70.51-.07-27.4-.83-37.94-4.85-68.2-3.48-25.72-2.9-69.57,2.11-140.43,4-54.73,4.5-72.59,3-90.78s-.79-38.74,3.29-104.76c3-47.09,4.86-87.67,4.11-95.21-.76-7.25-1.73-21-2.13-30.63s-1.32-24.08-2-32.13c-2.75-33.87-3.49-44.71-4.14-63.25-.33-10.72-1.26-25.08-2.06-31.83-.74-7.54-.4-16,1-21.92,2.55-10.64,2.34-20.15-.53-20.33A4.63,4.63,0,0,0,884.77,134.29Z" transform="translate(-38.64 -27.29)"/><path d="M929,128.22c-4.24,5.85-11.33,25.78-11.5,32.54-.43,18.63.47,76.12,1.52,90.42.56,8.37,1.59,23.06,2.3,32.53s2.33,24.58,3.67,33.59c2.38,16.43.61,58.94-6,137.12a356.15,356.15,0,0,0-.47,52.5c1.41,18.83.88,46.79-2.68,117.67-5,99.87-5,100.46-.67,136.93,1.51,13.34,3.06,37.29,3.19,53.2s1.16,41.8,1.93,57.55c1,15.67,1.82,41,2,56.08.39,15.14,1,34.12,1.75,42.32.58,8.08,0,43.69-1.33,79-1.41,43.52-1.59,68.74-.07,78.45,1,7.81,2.48,14.47,3.08,14.8a4.51,4.51,0,0,0,3.1-.22c5.69-2.33,7.13-13.25,10.61-75.4,3.59-64,4-104.83,2.66-183.46-.36-23-.88-54.15-1.06-69.28-.35-26.92-1.21-37.28-5.52-67-3.73-25.24-3.58-68.34.73-138,3.43-53.81,3.8-71.37,2.12-89.23s-1.16-38.07,2.27-103c2.59-46.3,4-86.18,3.18-93.59-.83-7.12-1.93-20.63-2.43-30.08S939.74,270,939,262.12c-3.08-33.27-3.93-43.92-4.76-62.13-.44-10.53-1.5-24.63-2.37-31.26-.82-7.41-.56-15.74.8-21.55,2.44-10.47,2.14-19.81-.73-20A4.79,4.79,0,0,0,929,128.22Z" transform="translate(-38.64 -27.29)"/><path d="M247.08,174.42c-3.91,6-9.87,25.81-9.66,32.43.61,18.23,4.72,74.36,6.58,88.27,1,8.15,2.87,22.45,4.11,31.66s3.7,23.89,5.55,32.62c3.29,15.93,3.91,57.57,1.64,134.32a343.5,343.5,0,0,0,2.47,51.33c2.47,18.33,3.5,45.67,3.91,115.14.62,97.86.62,98.44,7,133.84,2.26,13,5.14,36.27,6.17,51.81S278.33,886.61,280,902c1.85,15.25,4.11,39.91,5.14,54.68,1.23,14.78,2.88,33.3,4.11,41.26,1,7.87,2.47,42.69,3.09,77.23,1,42.6,2.26,67.26,4.31,76.66,1.44,7.58,3.29,14,3.91,14.3a4.6,4.6,0,0,0,3.09-.38c5.55-2.6,6.37-13.34,6.37-74.27,0-62.74-1.85-102.66-7.61-179.41-1.64-22.45-3.91-52.87-4.93-67.64-1.85-26.29-3.29-36.36-9.26-65.15-5.14-24.46-7.4-66.58-7-134.89.41-52.77-.2-70-2.88-87.31s-3.29-37.13-3.49-100.74c0-45.39-.82-84.44-2.06-91.63-1.23-6.91-3.08-20.05-4.11-29.26s-2.88-23-4.11-30.71c-4.94-32.33-6.38-42.69-8.23-60.44-1-10.27-2.88-24-4.11-30.42-1.23-7.19-1.44-15.35-.41-21.1,1.85-10.37,1-19.48-1.85-19.48A4.82,4.82,0,0,0,247.08,174.42Z" transform="translate(-38.64 -27.29)"/><path d="M753.87,139.8c-4.25,6-11.37,26.31-11.56,33.22-.45,19,.34,77.68,1.37,92.27.55,8.55,1.55,23.53,2.24,33.19s2.29,25.09,3.62,34.28c2.35,16.77.51,60.15-6.27,139.94a373,373,0,0,0-.57,53.58c1.39,19.22.8,47.75-2.88,120.09-5.15,101.93-5.19,102.52-.91,139.74,1.5,13.62,3,38,3.11,54.29s1.08,42.65,1.82,58.73c.95,16,1.75,41.79,1.91,57.23.36,15.45.91,34.82,1.67,43.18.57,8.25,0,44.6-1.47,80.59-1.48,44.41-1.71,70.15-.21,80.06,1,8,2.46,14.77,3.06,15.1a4.39,4.39,0,0,0,3.1-.22c5.7-2.39,7.15-13.53,10.74-77,3.7-65.33,4.21-107,3-187.22-.32-23.47-.78-55.26-.94-70.71-.3-27.47-1.14-38-5.4-68.34-3.69-25.77-3.46-69.75,1-140.85,3.52-54.91,3.91-72.83,2.27-91.06s-1.1-38.84,2.45-105.08c2.67-47.25,4.15-88,3.34-95.51-.82-7.27-1.9-21.06-2.38-30.7s-1.52-24.14-2.29-32.2c-3-33.94-3.85-44.81-4.65-63.4-.42-10.74-1.46-25.13-2.32-31.9-.8-7.56-.53-16.06.84-22,2.45-10.69,2.17-20.22-.7-20.39A4.66,4.66,0,0,0,753.87,139.8Z" transform="translate(-38.64 -27.29)"/></g><g id="icon1-2" data-name="icon1"><path d="M1006,42l0-.17-1.23,4.54a5.52,5.52,0,0,1-2,.21c-1.48,2.76-1-1.51-.65.9.22,1.4,1.91,3.41,2.52,4.75a71.18,71.18,0,0,1,4.24,13,112.53,112.53,0,0,1,2.6,24.62c.18,18.45-1.88,36.95-3.25,55.33q-4.45,59.7-8.74,119.4C993.9,344,988.69,423.58,984.6,503.2c-4.08,79.35-7,158.77-8.05,238.23s-.1,158.83,3.55,238.15q2.74,59.48,7.63,118.84c2.56,30.72,7.13,64-4.22,93.56a68.51,68.51,0,0,1-10.94,18.83c-3.11,3.78-3.63,9,0,12.73,3.15,3.22,9.65,3.74,12.73,0,21.77-26.46,24.6-60.78,22.85-93.78-2.12-40-6.31-79.87-8.51-119.87-4.62-83.95-6-168-5.26-252.11.8-84.52,3.84-169,8.17-253.41s9.9-168.55,15.93-252.75q4.53-63.23,9.31-126.42c1.4-18.68,2.9-37.36.17-56-2-13.65-8.13-42-26.8-40.28-8.63.79-15.15,9.37-12.52,17.82,3.44,11,20.82,6.3,17.35-4.8Z" transform="translate(-38.64 -27.29)"/><path d="M134.05,90.51c3-9.49,14-13,23-13.33,14.07-.48,28.26,3,42.23,4.27,27.94,2.57,56.06,2.29,84,.57,57.14-3.5,114-11.68,170.93-17.39,114-11.43,228.39-18.73,343-17.73,64.83.57,129.61,3.17,194.38,5.78l-8.68-11.39q-1.71,6.52-3.43,13.05c-3,11.21,14.41,16,17.36,4.79q1.71-6.52,3.43-13.05a9.11,9.11,0,0,0-8.68-11.39C873.85,30,756.22,26.27,638.43,32.28c-58.54,3-117,7.72-175.32,13.47-58,5.71-115.82,13.94-173.95,17.89-32.52,2.21-65.27,2.64-97.7-1-15.55-1.74-31.64-5.83-47.17-1.76-12.71,3.32-23.63,12.1-27.6,24.83-3.46,11.09,13.91,15.83,17.36,4.79Z" transform="translate(-38.64 -27.29)"/><path d="M134.2,68l-5.33-3.64c-4.32-2.95-9.59-.45-12.31,3.23-9.22,12.47-4.38,28.3-1.26,42a166.85,166.85,0,0,1,3.64,48.77c-2.22,31.8-14,62.63-12.38,94.77a98.79,98.79,0,0,0,4.87,26.73c2.54,7.44,7.23,15.58,4.21,23.45l17.68,2.39c-2.39-38-5.5-76.07-6.55-114.15A485.4,485.4,0,0,1,128,136.21c.81-9.31,2-18.55,3.74-27.73.72-3.86,1.24-8.12,2.62-11.82.35-.94,1.26-2,1.42-3,.39-2.36,2,.35-.77-.47,11.15,3.24,15.91-14.13,4.79-17.36-15.84-4.6-22.48,13-24.86,25a343.76,343.76,0,0,0-5.9,49.56c-1.62,32.52.58,65.06,2.62,97.51q1.81,28.85,3.62,57.68C116,316.06,129.37,317.47,133,308c5.83-15.2-4.66-30.39-7.36-45.1s-.89-30.32,1.62-45c2.65-15.51,6.19-30.86,8.28-46.47a186.56,186.56,0,0,0,.14-49.57c-1.18-8.81-3.21-17.34-5.14-26-1.48-6.63-2.72-13.46,1.56-19.25l-12.31,3.23,5.33,3.64c9.58,6.56,18.59-9,9.08-15.54Z" transform="translate(-38.64 -27.29)"/><path d="M101.52,436.74q3.23,110,7.2,220c2.61,72.09,4.09,144.44,9.72,216.38,3.16,40.4,8.18,80.73,16.95,120.31,2.16,9.77,18.45,7.81,17.68-2.39Q140.41,823.35,133.5,655.25q-2-47.73-3.45-95.49c-.36-11.56-18.36-11.61-18,0q5.28,168.14,16.29,336,3.14,47.67,6.73,95.32l17.68-2.39c-15.31-69.12-18.59-140-21.41-210.53q-4.36-109-8-217.95-2-61.74-3.85-123.47c-.34-11.57-18.34-11.62-18,0Z" transform="translate(-38.64 -27.29)"/><path d="M115.46,273l-46,6.23c-3.81.52-6.64,5.12-6.61,8.68.53,52,2.73,103.89,4.8,155.82.29,7.4,7.29,10.44,13.54,7.77C90,447.73,99,447.86,108.34,449c8.79,1.07,17.7.57,24.28-6.09l-12.73-12.73c-3.25,3.58-8.16,3.55-12.62,2.47-7.51-1.82-14.38-5.55-21.93-7.29q3.3,4.33,6.61,8.68c4.94-45.36,2-91-1-136.37l-17.68,2.39a83.76,83.76,0,0,0,4.39,14.79c1.8,4.51,6,7.68,11.07,6.29C93,320,96.83,314.6,95,310.06a83.76,83.76,0,0,1-4.39-14.79c-2-9.87-18.35-7.75-17.68,2.39,3,45.39,5.94,91,1,136.37-.41,3.73,3.07,7.86,6.61,8.68C90.25,444.94,99,450,109,451.05c8.62.87,17.73-1.61,23.67-8.15,7.76-8.53-4.53-21-12.73-12.73-3.85,3.9-14.39.23-19.27,0-10-.46-19.47,1.89-28.57,5.77l13.54,7.77c-2.07-51.93-4.26-103.85-4.8-155.82q-3.3,4.34-6.61,8.68l46.05-6.23c4.82-.65,7.45-6.84,6.29-11.07-1.42-5.2-6.23-6.94-11.06-6.28Z" transform="translate(-38.64 -27.29)"/><path d="M151.27,948.15c-15.33-2.89-31.33-2-45.91,3.8-3.5,1.4-8.24,2.84-11,5.54-3.21,3.21-3,8.85-3.58,13.07q-1.72,13-2.79,26a503.76,503.76,0,0,0-1.56,51.25q.26,12.59,1.14,25.14c.52,7.43-.3,18.14,5.46,23.78,6.25,6.12,17.71,3.44,25.47,2.74,9.87-.89,19.7-2.23,29.46-3.93,4.74-.83,7.55-6.76,6.29-11.07-3.07-10.47-13.19-15.61-23.62-15.52-11.13.09-20.13,8.29-31,8.42l8.68,11.39c5.74-16.67,1.87-34-1-50.85-1.35-7.85-2.57-16-1.59-24,1.09-8.88,5.75-16.38,10.38-23.82l-16.77-4.54a525.94,525.94,0,0,0,7.1,86.17l15-8.76a23.29,23.29,0,0,0-13.73-7.51q2.68,6.61,5.38,13.22a70.67,70.67,0,0,0,8.51-49.41c-1.6-8.24-5.38-16.06-6.46-24.4-.61-4.71-.41-11.84,3.87-15l-10.91-1.41c4.68,4.63,3.14,11.82,1.65,17.53-2.13,8.13-4.39,16-5.19,24.37-1.56,16.52,2,33,9.11,47.9,3.14,6.55,12,5.1,15.54,0a39.32,39.32,0,0,0,6.1-14c1-4.81,2.19-12.13-.44-16.62-7.12-12.18-24.47,1.23-16.79,12.22,2.78,4,7.88,5.82,12.31,3.23,3.94-2.3,6-8.31,3.23-12.31-.18-.26-.36-.51-.53-.77l1.23,4.54c-.2.66-.41,1.32-.61,2l-5.38,4.14.58-.24-6.94-.91.58.43-4.46-7.77a24.55,24.55,0,0,1-4.43,17h15.54a72.06,72.06,0,0,1-5.35-46.59c3.63-15.92,10.56-33.4-3-46.85-2.6-2.57-7.72-3.73-10.91-1.41-15.38,11.22-14.38,29.79-9.38,46.27,2.54,8.37,4.8,16.28,4.38,25.12a51.8,51.8,0,0,1-7.38,23.85c-2.65,4.49-.5,12.37,5.38,13.22a8.15,8.15,0,0,1,5.79,2.88c2.66,2.93,7.59,3.35,10.91,1.41,3.68-2.15,4.79-6.18,4.14-10.16a497.3,497.3,0,0,1-6.45-81.38c0-9.1-12.12-12-16.77-4.54-5.16,8.3-10.24,17-12,26.73-1.63,9.1-1.12,18,.15,27.13C91,1051,96.53,1067.91,91,1084c-1.91,5.54,3.12,11.46,8.68,11.39,9.6-.12,17.18-4.77,26.08-7.53a15.92,15.92,0,0,1,7.36-.76,7.51,7.51,0,0,1,3.19,1.14c.46.36.43.31.64,1l6.29-11.07c-6.64,1.15-13.29,2.12-20,2.83q-4.68.49-9.38.84c-2.29.17-7.45-.51-9.4.57q-3-.37.43,1.54c1.74,2.2,2.27,2.07,1.59-.41.31-1.38-.3-3.43-.42-4.82q-.44-5.31-.76-10.62-.61-10.14-.82-20.31a495.44,495.44,0,0,1,5-81.55l-4.14,5.38a64.23,64.23,0,0,1,41.17-6.12c4.77.9,9.71-1.33,11.07-6.29,1.21-4.38-1.48-10.16-6.28-11.06Z" transform="translate(-38.64 -27.29)"/><path d="M134.07,1088.7c3.47,15.06,7.93,29.72,6.46,45.31a179.43,179.43,0,0,0,1.52,48.54c2.6,15,6,30.87,11.3,45.14,2.7,7.23,8.09,12.66,16.09,13.23,6.14.44,11.85-3,17.9-2.26,10,1.25,12.26-15.62,2.39-17.68q-21-4.38-42.21-8.08l6.29,6.29a507,507,0,0,1-1.16-132.43h-18c4.08,40.83,8.19,81.9,6,123-.41,7.64-1.1,15.83,3.43,22.49,5.92,8.69,16.14,8.35,25.5,7.85,9.62-.51,19.21-1.46,28.76-2.73,5.25-.7,10.49-1.49,15.71-2.41a60.18,60.18,0,0,1,6.09-1.08c3.89-.27.81.78.86-1.77-.23,11.59,17.77,11.59,18,0,.2-10.39-9.21-16.65-18.86-16.23-9.15.4-18.42,3.13-27.53,4.22a301.21,301.21,0,0,1-30.31,2.29c-2.44.05-3.57.59-3.82-1.67a68.28,68.28,0,0,1,.16-11c2.21-41.08-1.89-82.15-6-123-1.17-11.65-16.62-11.47-18,0A523.53,523.53,0,0,0,136.45,1224c.4,2.78,3.56,5.81,6.29,6.29q21.16,3.71,42.21,8.08,1.2-8.83,2.39-17.68a28.21,28.21,0,0,0-9.37.76c-2.07.44-4.46,1.64-6.59,1.54-1,0-.81,0-.35.34-.64-.5-.84-1.84-1.08-2.54-1.15-3.47-2-7.07-3-10.59-3.71-13.53-7.32-27.27-8.88-41.24a138.9,138.9,0,0,1-.82-20.69c.29-7.3,1.62-14.54,1.72-21.84.2-14.29-4.41-28.68-7.59-42.48-2.58-11.27-19.94-6.5-17.34,4.8Z" transform="translate(-38.64 -27.29)"/><path d="M138.23,1218.07a29.88,29.88,0,0,0,11.05,31.37c10.44,7.65,25.88,7.38,38.27,7.91,27.71,1.18,55.36-2,82.73-6s54.39-9.07,81.82-11.88a395.49,395.49,0,0,1,41.43-2.18c14,0,28,.7,41.94-.49s27.11-4.65,40.36-9.2c13-4.45,25.64-8.44,39.42-9.18,14.43-.77,29-.19,43.41-.07s28.61.24,42.92.37q87.34.81,174.67,2.1,98.14,1.44,196.28,3.34l-9-9c0-.43.53-1.44,1.08-1.39-.61-.06-.77.51-1.45.74a18.26,18.26,0,0,1-6.75.61c-6.17-.21-12.45-2-18.78-2.62a112.5,112.5,0,0,0-48.3,6c-10.84,3.84-6.17,21.24,4.79,17.36,17.94-6.35,35.37-6.77,54-3.69,13.73,2.27,32.33.36,33.45-17.06.32-4.92-4.38-8.92-9-9-112.67-2-225.33-4-338-5.11q-42.91-.43-85.84-.77c-13.69-.1-27.53-.73-41.17.77-13.28,1.46-25.62,5.5-38.2,9.8s-25.17,7.53-38.57,8.29c-13.67.78-27.35.08-41,.16-26.62.17-53.08,3.68-79.35,7.71-29.64,4.55-59.2,10-89.17,11.87a300,300,0,0,1-44.87-.23c-5.39-.46-12.86-.45-17.19-4.24a11.67,11.67,0,0,1-3.55-11.55c2.76-11.23-14.6-16-17.36-4.77Z" transform="translate(-38.64 -27.29)"/><path d="M898.59,1215.4c-9.86,7.06-10.06,18-10.39,29.08q-.59,19.59-1.16,39.19l4.46-7.77a214.28,214.28,0,0,1-98.85,20.4l8.68,6.61a340,340,0,0,1-8-78.93c.13-9.2-12.12-11.89-16.77-4.54a32.71,32.71,0,0,0-5.09,19.93c.35,4.85,3.88,9,9,9,4.6,0,9.35-4.13,9-9a16.45,16.45,0,0,1,2.63-10.85L775.29,1224A361.53,361.53,0,0,0,784,1307.7c.87,3.93,4.86,6.49,8.68,6.61a233.81,233.81,0,0,0,107.93-22.86c2.85-1.36,4.37-4.79,4.46-7.77l.93-31.35c.15-5,.19-10,.46-15.06.07-1.35,0-5.42,1.25-6.32,3.95-2.83,5.84-7.84,3.23-12.31-2.29-3.91-8.35-6.08-12.33-3.24Z" transform="translate(-38.64 -27.29)"/><path d="M736.82,1225.47q-2.88,25.15-5.75,50.32l9-9-21.75,1.86c-6.52.56-13.81,2.14-20.32,1.46l4.54,1.23,0,.07,2.31,4c-.66-1.74.73-6.92,1-9.67a105.26,105.26,0,0,0,.38-14,120.53,120.53,0,0,0-4.25-27.22c-3.11-11.35-19.34-6.45-17.36,4.79l1.89,10.71c.85,4.79,6.7,7.49,11.07,6.29,5.05-1.39,7.13-6.27,6.29-11.07l-1.89-10.71-17.36,4.79a99,99,0,0,1,3.69,27.1,102,102,0,0,1-.81,12.48c-.51,3.92-1.32,7.41,0,11.29,3.45,10.1,14.67,7.87,23,7.16l29.66-2.54c5.28-.45,8.4-3.79,9-9q2.88-25.15,5.75-50.32c.55-4.84-4.53-9-9-9-5.33,0-8.45,4.14-9,9Z" transform="translate(-38.64 -27.29)"/><path d="M449.72,1236.46c-2,5.8-1.86,11.8-1.59,17.85.28,6.29.31,12.59,0,18.88a180.36,180.36,0,0,1-5.82,36.72l11.07-6.29c-12.16-3.14-23.81.82-35.92,2.09a133.88,133.88,0,0,1-37.71-1.19c-2.61-.47-5.22-1-7.79-1.65,1.12.28.72,2.63.82-.1a25.87,25.87,0,0,0-.59-3.9c-.83-6.21-1.29-12.49-1.51-18.75a195.65,195.65,0,0,1,2.43-38.45l-13.22,5.38c6.4,4.77,3.67,18.42,3.08,25a143.23,143.23,0,0,0,2.3,41.57c.63,3.11,3.43,5.37,6.29,6.29a161.7,161.7,0,0,0,58,7.49c5.34-.29,8.34-3.93,9-9a16.29,16.29,0,0,0-2.48-10.58l-12.31,12.31a26.12,26.12,0,0,0,24.18,0,8.85,8.85,0,0,0,4.46-7.77q-.65-20.41-1.28-40.82-.32-10-.62-19.91c-.1-3.21-.25-6.43-.3-9.65,0-1-.44-3.47.36-4.33,7.85-8.5-4.84-21.26-12.73-12.73-4.64,5-5.73,11.08-5.62,17.74.14,7.63.48,15.27.72,22.9q.73,23.4,1.46,46.8l4.46-7.77a6.69,6.69,0,0,1-6,0c-7.74-3.8-17.18,4.14-12.31,12.31.66-.32.67.18,0,1.49l9-9a146.79,146.79,0,0,1-53.26-6.85l6.29,6.29c-3-14.75-1.95-28.87-1.11-43.74.74-13-1.57-25.37-12.54-33.55-4.39-3.27-12.33,0-13.22,5.38a207.43,207.43,0,0,0-.83,67.46c1,6.63,3.49,12.36,10.07,15.05,6.38,2.61,13.91,3.25,20.7,4.06a144.33,144.33,0,0,0,21.5,1,159.86,159.86,0,0,0,21.94-2.3c6.44-1.1,13-2.8,19.46-1.13a9.14,9.14,0,0,0,11.07-6.29,206.89,206.89,0,0,0,6.23-37.74q.63-9,.41-17.93c-.15-5.94-1.23-12.06.77-17.78,3.83-10.94-13.55-15.65-17.35-4.77Z" transform="translate(-38.64 -27.29)"/><path d="M125.61,297.25a239.74,239.74,0,0,0,.48-80.17c-.78-4.8-6.75-7.47-11.07-6.29-5.18,1.42-7,6.24-6.29,11.07,3.76,26.66,7.19,54.48-2.71,80.26L122.47,300c-5.56-11.92-21.13-15.89-32.21-9.53l12.31,3.23-4.74-10.95c-4.07-9.4-19.4-2.69-16.45,6.94a26.1,26.1,0,0,0,11.09,14.67c9.7,6.39,18.73-9.19,9.08-15.54a6.35,6.35,0,0,1-2.82-3.91l-16.45,6.94L87,302.77c1.94,4.49,8.5,5.42,12.31,3.23,3.16-1.81,6.16,0,7.59,3.07,3.61,7.75,14,4.3,16.45-2.15,11.07-28.82,6.9-60.09,2.71-89.83l-17.36,4.79a213.13,213.13,0,0,1-.48,70.6c-.84,4.78,1.28,9.7,6.29,11.07,4.35,1.18,10.23-1.48,11.08-6.3Z" transform="translate(-38.64 -27.29)"/><path d="M118.15,296.62l7.59-147q.95-18.37,1.9-36.74.47-8.94.92-17.87c.26-4.94.18-10.08,1.37-14.92,2-8.2,8.64-10.91,16.42-12.1,10.44-1.59,21.41-1.13,31.94-1.49,98.26-3.39,196.53-7.42,294.86-8.28,55.18-.48,110.38.12,165.52,2.56,11.58.51,11.56-17.49,0-18-101.67-4.49-203.48-2.69-305.16.46-50.42,1.57-100.84,3.38-151.26,5.12-11.37.39-22.92.24-34.24,1.42-9.68,1-19.46,3.31-26.79,10.15-8,7.44-9.71,18.21-10.32,28.56-.74,12.42-1.29,24.86-1.93,37.29L100.15,296.6c-.6,11.6,17.4,11.56,18,0Z" transform="translate(-38.64 -27.29)"/><path d="M247,83.5l61.72-12.7c4.33-.89,7.07-5.74,6.45-9.87-.71-4.73-4.26-7.29-8.84-7.8-18.36-2-36.37,1.21-53.28,8.47L266.27,67c0-.32-.1-.63-.16-.94v4.79a8.63,8.63,0,0,1-3.8,3.23l-4.54-1.23-.29-.39c8.36,8,21.11-4.69,12.73-12.73-9.48-9.08-23.29,0-21.3,12.06,1.06,6.36,8.48,7.41,13.22,5.38,13.94-6,29.2-7.67,44.19-6q-1.2-8.84-2.39-17.68l-61.72,12.7c-11.33,2.32-6.53,19.68,4.79,17.34Z" transform="translate(-38.64 -27.29)"/><path d="M997.37,28.64a233.89,233.89,0,0,0-51.49.15c-8.39,1-16.75,2.29-25,4.09-8.09,1.76-16.06,4-24.4,4s-16.9-1.08-25.35-1.41q-12.35-.48-24.71.12a305.18,305.18,0,0,0-51.33,7c-11.3,2.51-6.52,19.87,4.79,17.36a277.46,277.46,0,0,1,48.44-6.41q12.34-.52,24.71,0c8.46.38,17,1.6,25.43,1.29,16.65-.6,32.76-6.5,49.32-8.27a234.2,234.2,0,0,1,49.59.06c4.84.51,9-4.5,9-9,0-5.28-4.15-8.48-9-9Z" transform="translate(-38.64 -27.29)"/><path d="M122.9,283.17l1.2-156.44.3-39.6c.06-7.26-1-18.22,4.51-24,2.72-2.86,6.9-2.64,10.54-2.38,6.45.46,12.89,1.72,19.3,2.52q19,2.37,38.07,3.56A625.37,625.37,0,0,0,285,66.07c4.85-.38,9-3.86,9-9,0-4.57-4.13-9.38-9-9a626.15,626.15,0,0,1-82.3,1.13q-20.56-1.08-41-3.54c-12.26-1.47-26.3-5.8-38.1-.38-9.71,4.46-14.58,14.41-16.11,24.55-1.84,12.2-1.11,24.8-1.2,37.09q-.32,41.58-.64,83.17l-.72,93.07c-.09,11.6,17.91,11.61,18,0Z" transform="translate(-38.64 -27.29)"/><path d="M990.5,1143.86a149,149,0,0,1,6.49,31.81c.44,5.19.62,10.41.54,15.62-.06,3.71.73,11.53-1.43,14.38l3.23-3.23c-1.4,1-4.32,1.1-6.31,1.41l-10.59,1.65-20.22,3.15c-11.66,1.82-24.24,2.46-33.24,11-5.43,5.15-1.49,15.9,6.36,15.36,17.72-1.2,36-1.24,53.55-3.85,7.53-1.12,14.75-5.21,16.62-13.11,1.82-7.69-2.09-15.73-9.92-17.84-11.2-3-16,14.33-4.79,17.36-2.43-.66-2.86-5.11-2.14-4.83-.38-.15-2.47.76-3.12.85-5.43.78-11.09.78-16.56,1.15L935.32,1217l6.36,15.36c3.38-3.21,8.58-3.75,13-4.47,6.66-1.08,13.33-2.08,20-3.12l20.22-3.15c6.14-1,12.85-1.3,16.72-6.91,3.36-4.87,3.34-11.3,3.66-17a157.31,157.31,0,0,0-.11-19.3,170.37,170.37,0,0,0-7.34-39.35c-3.42-11-20.8-6.31-17.33,4.79Z" transform="translate(-38.64 -27.29)"/><path d="M992.77,281c-7.84,118.07-17.94,236.26-16,354.69,1.89,117.56,12.45,234.8,14.14,352.36,1,66.08-1,132.28-8.82,197.95-.57,4.83,4.55,9,9,9,5.34,0,8.42-4.15,9-9,13.87-116.67,9.08-234.37,3-351.39-3.06-59.06-6.44-118.13-7.89-177.26-1.45-58.84-.33-117.6,2.76-176.37,3.51-66.7,8.4-133.33,12.83-200,.76-11.56-17.25-11.52-18,0Z" transform="translate(-38.64 -27.29)"/><path d="M981.42,56.56c12.71,7.54,15.31,25.36,18.7,38.42,2.91,11.2,20.27,6.45,17.36-4.79-4.75-18.31-9.48-38.79-27-49.17-10-5.93-19,9.62-9.09,15.54Z" transform="translate(-38.64 -27.29)"/><path d="M813.43,1290.88a17.58,17.58,0,0,0-24.46-.05A9,9,0,0,0,799.88,1305c.64-.36,1.31-.67,2-1-.68.38-1,.32-.08.06.4-.11,2.76-.61.39-.22h.68a2.61,2.61,0,0,1-2.26-.78,5.42,5.42,0,0,1-2.71-3.2c-.08-.51-.17-1-.25-1.52.28-1.57.33-2,.15-1.29-.29,1,1-2,.28-.75,2.35-3.83,7.28-4,11-1.1-2-1.53-3.75-2.64-6.36-2.64a9.13,9.13,0,0,0-6.36,2.64c-3,3.22-4,9.65,0,12.73,2.41,1.87,4.62,3.13,7.74,3.18a11.15,11.15,0,0,0,7.62-3.27,13.57,13.57,0,0,0,3.59-12.55c-1.36-5.56-6.23-8.85-11.75-9.36-4.51-.42-8.83,1.39-12.7,3.54l10.91,14.14c.72-.67.59-.59-.38.24.87-.46.71-.42-.47.13a8.42,8.42,0,0,1,1.2-.3c-1.26.15-1.54.21-.84.2s.42,0-.84-.18a8.13,8.13,0,0,1,1.2.31q-1.77-.81-.48-.12c-1-.82-1.1-.9-.39-.23,3.36,3.3,9.42,3.6,12.73,0a9.16,9.16,0,0,0,0-12.73Z" transform="translate(-38.64 -27.29)"/><path d="M438.81,1253.52c3.26,20.81,7,44.16-1.74,64.18l12.31-3.23c-6.92-3.87-14.14-4.27-21.84-3-7,1.19-13.68,4.13-20.76,4.7-8.28.66-16.81-.56-25.06-1.13l-25-1.75,9,9a337.67,337.67,0,0,0,.45-46.53c-.47-7.76-1.33-15.46-2.24-23.17a40.32,40.32,0,0,1-.45-7.11c0-.72.54-2,.38-2.59s0-.65.22-.57q-.66,1.86-3.87.75l-5.38-4.14.41.64-1.23-4.54c0,.26,0,.52,0,.78l1.23-4.54-.35.63,5.38-4.14-.65.2c-11.05,3.36-6.34,20.74,4.79,17.36a10.28,10.28,0,0,0,6.82-13.75c-2.21-5.69-8.6-7.54-14-5.69-9.94,3.39-12.41,14.93-11.59,24.18,1,11.5,2.55,22.87,2.95,34.43a338.33,338.33,0,0,1-.86,37.81c-.4,5.09,4.46,8.68,9,9,15.29,1.07,30.82,3,46.16,3,7.36,0,14.32-1.69,21.37-3.58,5.07-1.36,11.07-3.49,16-.73,3.87,2.16,10.34,1.31,12.31-3.23,11-25.15,7.67-51.74,3.55-78.06-.75-4.81-6.77-7.47-11.07-6.29-5.13,1.4-7,6.25-6.29,11.07Z" transform="translate(-38.64 -27.29)"/><path d="M109,268.75,77.9,275.27c-8.88,1.86-20.31,2.43-28,7.57-8.11,5.39-9.38,14.63-10.3,23.54a200.08,200.08,0,0,0-.66,29.68c1.78,39.18,11.89,77.84,8.27,117.22-.64,7,8.06,10.93,13.54,7.77,2-1.13,5.1.22,7.17.7a110.79,110.79,0,0,0,13.18,2.19,97.56,97.56,0,0,0,26-1.09c5.43-.89,8.57-8.81,5.38-13.22-5-7-12.6-9.21-20.94-7.51-4.72,1-9.65,4.3-13.88.76-3.82-3.2-5.77-8.68-7.11-13.31a159.78,159.78,0,0,1-4.41-23.26c-4.47-33.65-2.26-67.91,2.09-101.45h-18c-3.28,32.77-6.15,67,5.91,98.43,1.74,4.54,6.06,7.66,11.07,6.29,4.34-1.19,8-6.51,6.29-11.07-11.51-30-8.39-62.39-5.26-93.65.48-4.84-4.48-9-9-9-5.38,0-8.37,4.16-9,9-4.57,35.19-6.38,70.72-1.49,106,2,14.46,4.15,30.29,13.66,42a25.43,25.43,0,0,0,17.31,9.64,31,31,0,0,0,11.61-1.6c1.58-.46,3.36-1.37,5-1.4,1.94,0,2.18,1.4.62-.76q2.68-6.61,5.38-13.22a74.43,74.43,0,0,1-26.08-.32c-8.48-1.66-16.51-4.33-24.61.34l13.54,7.77c3.33-36.25-5-71.95-7.7-107.93a250.69,250.69,0,0,1-.75-26c.13-4.64.4-9.29.94-13.9.29-2.52.22-6.35,2.54-7.84,2.78-1.79,7.69-1.89,10.83-2.54l13.6-2.85,29.14-6.11c11.31-2.38,6.52-19.74-4.8-17.36Z" transform="translate(-38.64 -27.29)"/><path d="M58.42,469.34a403,403,0,0,1,51.42-1.46l-8.68-11.39-.37,1,2.31-4,4.16-.64c-11.27-2.63-16.08,14.72-4.79,17.36,7.4,1.73,13.44-2,16-9,2.14-5.72-3.3-11.2-8.68-11.39a403,403,0,0,0-51.42,1.46c-4.84.45-9,3.82-9,9,0,4.51,4.14,9.44,9,9Z" transform="translate(-38.64 -27.29)"/><path d="M130.92,942c-14.95,2.31-31.32,5.47-45,12.07-7.54,3.63-9.07,10.58-9.08,18.28,0,8.27,0,16.54.1,24.81q.36,50.11,2,100.21a9.22,9.22,0,0,0,9,9q24.78,1.61,49.55,3.53c4.85.38,9-4.41,9-9,0-5.18-4.13-8.62-9-9q-24.76-1.93-49.55-3.53l9,9q-1.47-45.13-1.91-90.29-.1-10.92-.15-21.83l0-10.92c0-.29.26-5.26,0-5.34s-.92.83-.81,1.06c0-.06,18-5.76,19.67-6.18a220,220,0,0,1,22-4.52c4.81-.74,7.47-6.77,6.29-11.07-1.42-5.13-6.26-7-11.09-6.28Z" transform="translate(-38.64 -27.29)"/></g></svg>