<?xml version="1.0" encoding="utf-8"?>
<!-- Generator: Adobe Illustrator 26.0.3, SVG Export Plug-In . SVG Version: 6.00 Build 0)  -->
<svg version="1.1" xmlns="http://www.w3.org/2000/svg" xmlns:xlink="http://www.w3.org/1999/xlink" x="0px" y="0px"
	 viewBox="0 0 2360 1640" style="enable-background:new 0 0 2360 1640;" xml:space="preserve">
<g id="Layer_1">
	<g transform="translate(0.000000,1640.000000) scale(0.100000,-0.100000)">
		<path d="M15431.54,14438.67c-25-2-119-10-210-19c-126-12-338-16-893-20c-401-2-733-6-738-10c-6-3-150-8-322-10
			c-577-8-1041-23-1172-39c-244-29-480-46-785-55c-168-5-447-14-620-20s-463-13-645-15c-286-3-366-8-600-35c-148-16-310-39-360-51
			c-377-85-536-100-965-94c-285,4-318,6-485,35c-175,30-184,31-320,20c-222-17-318-30-342-46c-68-44-79-175-22-248l22-28l-12-771
			c-6-425-11-830-11-902v-130l-102-2c-94-2-103-4-127-28l-26-25l-7-403c-4-221-10-491-13-600c-5-156-4-217,8-285c9-48,19-131,22-185
			c8-121,14-126,119-119c41,2,85,2,99-2l24-6l6-202c4-112,16-351,27-533c11-181,20-386,20-455s7-170,15-225c60-394,81-786,66-1260
			c-11-351,2-1203,24-1653c8-167,15-393,15-503v-199l-52,6c-46,5-56,3-73-16c-19-21-19-36-18-353c2-309,18-604,43-782
			c5-38,9-98,10-131c0-47,5-68,21-88c20-25,23-26,88-20l68,7l12-164c22-300,78-623,133-777c30-83,31-93,29-222l-3-135l-34-31
			c-27-25-34-39-34-68c0-57,23-91,82-120c92-45,135-48,553-44c215,1,557,3,760,3c345,0,380-2,514-24l144-24l-6-225
			c-6-246-1-280,48-354c30-46,126-95,254-130c69-19,82-19,165-8c50,7,161,14,246,15c207,3,283,31,337,123c26,44,27,52,25,164
			c-3,150-26,316-52,375c-11,25-18,48-16,50c3,3,56,11,118,18c253,30,477,55,548,60c41,4,145,15,230,25s229,26,320,35s219,23,285,32
			c134,19,438,23,648,9l129-8l-6-27c-3-14-9-87-12-161c-6-112-4-141,9-165c40-77,116-115,231-115c39,0,87-5,106-10
			c19-6,72-13,117-16c77-7,82-6,106,18c31,31,62,160,53,216c-4,20-9,67-12,105c-5,51-11,70-24,77c-20,11-23,6-34-62
			c-4-20-16-59-28-85s-24-73-27-103l-6-55l-54,2c-63,3-245,39-281,57c-24,11-25,16-25,91c0,44,3,113,5,154l5,74l164-7
			c90-3,263-6,384-6h220l-7-158c-11-253,10-371,75-411c12-7,61-27,108-44c103-37,176-40,431-18c124,11,198,12,300,5
			c80-6,153-6,178-1c83,17,132,96,132,213c0,26,7,86,16,133c20,104,14,160-26,236l-29,55h27c63,0,226,31,342,66l125,36l203-1
			c118,0,210-5,221-11c36-19,69-12,85,18c21,41,25,85,41,470c11,255,12,381,5,451c-11,102,8,481,31,621c11,70,17,872,10,1345
			c-5,330,12,878,34,1090c8,83,20,301,26,485s14,385,18,445c4,61,4,180-1,265c-4,85-12,236-18,335c-5,99-14,360-20,580
			c-5,220-14,483-19,585c-6,117-6,236,0,325c5,77,14,453,19,835c6,382,12,720,15,750c21,239,27,409,30,845c1,275,8,613,16,750
			c7,138,13,435,14,660c1,226,7,489,12,585c9,162,8,179-10,227c-21,57-12,53-107,38c-27-4-30-2-30,21c0,17-13,40-37,64
			C15691.54,14437.67,15607.54,14451.67,15431.54,14438.67z M15766.54,14135.67c14-16,13-24-14-92c-39-97-88-330-102-482
			c-10-116-30-1153-34-1836c-1-179-6-613-10-965c-8-629,0-991,25-1200c9-72,7-91-14-177c-38-146-55-284-62-488c-6-156-3-210,15-350
			c11-91,25-251,30-356c6-104,12-197,15-205c14-41,37-397,41-634c4-269,4-270-30-470c-19-110-39-252-45-315c-36-370-38-420-32-1115
			c4-633,3-702-14-840c-22-182-26-488-6-523c10-17,13-108,12-395c0-252,4-412,14-497c9-79,11-145,6-180c-5-30-9-94-9-142l-1-88h-112
			c-109,0-179-5-449-33c-81-9-154-10-205-5c-395,40-412,40-1234,48c-454,4-937,11-1075,15c-374,11-615-6-1155-85
			c-113-16-261-34-330-40s-177-17-240-25c-319-39-953-45-1210-11c-69,9-190,30-270,46c-252,51-591,64-906,36c-87-8-204-17-259-21
			c-55-3-120-11-145-16c-25-6-97-14-160-19s-152-12-197-16l-82-7l-7,27c-4,16-1,32,6,41c17,21,14,381-5,545c-26,230-44,434-55,625
			c-20,363-41,672-65,984c-16,198-25,398-26,540c0,124-6,397-12,606c-8,239-9,502-5,710c16,691,14,1285-5,1490
			c-10,105-20,197-22,205s-9,78-15,155s-18,187-27,245c-8,58-19,186-23,285s-15,254-24,345c-33,348-36,407-46,805
			c-10,414-24,722-39,915c-5,58-12,389-16,735c-14,1408-26,1773-61,1993c-5,32-3,40,12,46c32,12,326,24,384,15c30-4,123-22,205-40
			l150-33h410c445,1,543,8,789,54c238,45,576,72,901,71c149,0,439,6,645,14s548,19,760,25c545,15,868,28,889,35c18,5,250,13,1101,35
			c349,9,473,14,880,40c388,24,623,31,773,21c209-14,711,10,736,34c3,3,13-11,23-31
			C15743.54,14168.67,15758.54,14144.67,15766.54,14135.67z M14538.54,2450.66c-22-42-24-73-16-262c3-53,0-86-8-94
			c-30-30-369-66-588-62c-129,3-226,29-236,64c-9,33-10,163-2,292l6,107l433-3l432-2L14538.54,2450.66z M9816.54,2320.66
			c22-2,139,0,260,5s221,7,223,5c2-1-6-30-17-63c-17-48-22-95-26-239c-4-148-8-180-21-190c-9-6-46-14-82-18c-37-3-105-12-152-20
			c-201-33-269-35-363-7c-39,12-90,26-113,32c-59,14-65,35-75,245c-4,99-11,195-14,213s-3,37,0,42
			C9442.54,2334.66,9712.54,2331.66,9816.54,2320.66z"/>
		<path d="M15431.54,14093.67c-43-30-73-88-78-154c-8-96,45-134,132-96c77,34,143,152,115,204c-15,28-30,39-46,34c-6-3-19,4-29,15
			C15502.54,14121.67,15471.54,14120.67,15431.54,14093.67z M15508.54,13990.67c2-1-16-19-38-41l-42-39l7,30c4,17,14,40,22,53
			c13,20,18,21,32,10C15498.54,13996.67,15507.54,13990.67,15508.54,13990.67z"/>
		<path d="M7304.54,13870.67c-50-35-84-134-64-187c34-90,231-28,231,72c0,34-31,70-60,70c-24,0-25-8-6-29c12-14,12-21,1-48
			c-29-68-115-85-115-22c0,51,26,89,61,89c33,0,48,23,32,49C7370.54,13886.67,7331.54,13889.67,7304.54,13870.67z"/>
		<path d="M9704.05,13392.33c-39.07-60.64-98.7-263.09-96.64-330.57c6.17-185.83,47.29-757.97,65.8-899.78
			c10.28-83.13,28.79-228.86,41.12-322.75c12.34-93.89,37.01-243.53,55.52-332.53c32.9-162.35,39.07-586.82,16.45-1369.24
			c-4.11-182.89,4.11-362.85,24.67-523.24c24.67-186.8,34.96-465.54,39.07-1173.63c6.17-997.59,6.17-1003.45,69.91-1364.35
			c22.62-132.03,51.41-369.69,61.69-528.13c10.28-158.44,34.96-415.66,51.41-572.15c18.51-155.51,41.12-406.86,51.41-557.48
			c12.34-150.62,28.79-339.38,41.12-420.55c10.28-80.2,24.67-435.22,30.84-787.31c10.28-434.24,22.62-685.6,43.18-781.44
			c14.39-77.26,32.9-142.79,39.07-145.73s20.56-0.98,30.84,3.91c55.52,26.41,63.74,135.95,63.74,756.99
			c0,639.63-18.51,1046.49-76.08,1828.91c-16.45,228.86-39.07,538.89-49.35,689.51c-18.51,267.98-32.9,370.67-92.53,664.08
			c-51.41,249.4-74.02,678.75-69.91,1375.1c4.11,537.92-2.06,712.98-28.79,890c-26.73,177.02-32.9,378.5-34.96,1026.93
			c0,462.61-8.22,860.66-20.56,934.01c-12.34,70.42-30.84,204.41-41.12,298.3s-28.79,234.73-41.12,312.97
			c-49.35,329.59-63.74,435.22-82.25,616.16c-10.28,104.65-28.79,244.51-41.12,310.04c-12.34,73.35-14.39,156.48-4.11,215.17
			c18.51,105.63,10.28,198.54-18.51,198.54C9722.56,13404.06,9710.22,13398.2,9704.05,13392.33z"/>
		<path d="M12407.54,12471.67c-3-14-32-74-65-133c-32-60-64-127-71-148c-6-22-30-84-53-138c-38-91-46-102-102-146
			c-33-26-79-59-103-74s-74-57-113-92c-75-69-134-95-214-95h-41l13,108c7,59,15,177,19,262c5,138,4,159-13,189c-10,19-26,39-36,45
			c-27,17-68-12-97-69c-25-50-25-52-23-297l2-248h-42c-79,0-212,21-255,40c-73,33-140,87-305,250c-124,121-171,174-214,245
			c-76,122-161,233-184,240c-30,10-56-3-69-36c-12-27-9-38,33-127c25-53,57-126,72-162c43-103,123-254,162-307
			c102-134,272-298,371-356c74-43,130-55,396-87c268-32,310-31,412,8c91,34,156,87,331,271l172,181l26,82c28,93,40,175,56,395
			c11,143,10,154-8,185C12440.54,12498.67,12416.54,12504.67,12407.54,12471.67z"/>
		<path d="M11686.54,10830.67c-485-60-751-112-870-172c-63-32-185-155-251-254c-28-42-72-106-97-141c-46-65-77-150-77-213
			c0-16-7-67-16-112c-11-52-14-98-10-128c17-112,159-323,315-468c68-62,165-114,276-145c39-11,131-38,205-61c177-54,266-63,505-51
			c458,24,667,46,732,76c17,9,37,29,44,46c18,44,2,79-46,103c-36,18-54,20-190,15c-201-7-438-4-680,8c-221,11-233,13-450,103
			c-169,70-181,77-240,139c-206,216-229,252-215,330c4,25,11,80,15,122c6,66,11,83,37,115c17,21,51,70,76,108
			c87,133,187,223,292,260c80,29,556,114,780,140c180,20,261,19,355-5c154-39,325-21,391,41c33,30,30,53-9,83c-49,38-79,46-252,72
			C12101.54,10872.67,12017.54,10870.67,11686.54,10830.67z"/>
		<path d="M11348.54,8540.67c-112-18-421-122-511-172c-125-69-241-196-271-296c-19-62-47-308-40-340c3-12,7-112,9-222
			c3-187,5-208,35-320c45-169,124-326,211-415c60-62,79-74,262-163c108-53,221-103,250-112s140-24,247-35c172-16,206-16,309-4
			c98,11,127,19,196,52c45,22,101,57,125,78c74,64,165,178,212,265c24,46,70,119,102,163c74,102,143,238,162,319c8,34,18,123,21,197
			c9,175-2,217-109,428c-95,188-183,313-254,358c-26,17-80,52-120,78c-79,51-130,71-297,115c-95,25-135,30-281,35
			C11484.54,8553.67,11411.54,8550.67,11348.54,8540.67z M11726.54,8256.67c215-54,352-122,432-216c19-22,70-111,114-197l79-157
			v-149c0-175-15-241-79-339c-22-34-69-119-105-189c-71-141-135-228-196-273c-22-16-77-39-122-51c-74-20-97-22-218-16
			c-245,12-308,28-528,139c-127,64-177,104-186,151c-4,18-25,62-48,97c-61,95-85,154-108,264c-35,165-25,343,21,405
			c39,52,65,106,90,194c21,72,28,84,95,151c95,96,145,129,267,176l102,40l155-5C11600.54,8278.67,11670.54,8270.67,11726.54,8256.67
			z"/>
		<path d="M11601.54,7925.67c-85-11-204-24-263-29c-141-12-188-34-235-111c-48-81-57-121-57-260c0-125,0-125,38-202
			c65-130,126-169,313-198c109-16,159-18,363-13c130,3,242,10,249,16c6,5,12,20,12,32c0,35-18,42-125,48c-188,9-380,28-443,44
			c-115,28-199,91-232,171c-14,36-8,164,11,235c18,68,35,77,152,77c301,1,545,35,626,88c45,29,61,59,40,73
			C11981.54,7940.67,11811.54,7951.67,11601.54,7925.67z"/>
		<path d="M11661.54,6205.67c-197-14-445-41-476-51c-45-14-66-41-62-81c2-28,10-37,48-56c44-23,50-23,190-16c80,5,240,9,355,9
			c140,1,225,5,254,14c43,12,111,67,111,89c0,23-51,69-87,79C11940.54,6208.67,11784.54,6214.67,11661.54,6205.67z"/>
		<path d="M15279.54,3225.67c-28-27-38-58-38-115c0-127,85-193,153-118c9,11,25,54,34,96l16,75l-32,41c-30,38-36,41-75,39
			C15314.54,3241.67,15288.54,3233.67,15279.54,3225.67z M15326.54,3135.67c9-15-6-101-16-94c-12,7-12,104,0,104
			C15316.54,3145.67,15323.54,3140.67,15326.54,3135.67z"/>
		<path d="M7642.54,2984.66c-46-49-35-166,19-221c52-52,110-29,131,52c18,67,6,112-41,154
			C7705.54,3010.67,7671.54,3015.67,7642.54,2984.66z M7725.54,2908.66c-10-75-23-86-24-22c0,31,3,59,7,62
			C7725.54,2966.66,7732.54,2951.66,7725.54,2908.66z"/>
		<path d="M8978.15,13453.5c-39.07-61.64-98.7-267.42-96.64-336.01c6.17-188.88,47.29-770.44,65.8-914.59
			c10.28-84.5,28.79-232.62,41.12-328.06c12.34-95.44,37.01-247.54,55.52-338c32.9-165.02,39.07-596.47,16.45-1391.77
			c-4.11-185.9,4.11-368.82,24.67-531.86c24.67-189.88,34.96-473.2,39.07-1192.95c6.17-1014,6.17-1019.97,69.91-1386.8
			c22.62-134.21,51.41-375.78,61.69-536.83c10.28-161.05,34.96-422.5,51.41-581.56c18.51-158.07,41.12-413.55,51.41-566.65
			c12.34-153.09,28.79-344.96,41.12-427.47c10.28-81.52,24.67-442.38,30.84-800.27c10.28-441.39,22.62-696.88,43.18-794.3
			c14.39-78.54,32.9-145.14,39.07-148.12s20.56-0.99,30.84,3.98c55.52,26.84,63.74,138.18,63.74,769.45
			c0,650.16-18.51,1063.71-76.08,1859.01c-16.45,232.62-39.07,547.76-49.35,700.86c-18.51,272.39-32.9,376.77-92.53,675.01
			c-51.41,253.5-74.02,689.92-69.91,1397.73c4.11,546.77-2.06,724.71-28.79,904.65c-26.73,179.94-32.9,384.72-34.96,1043.83
			c0,470.22-8.22,874.83-20.56,949.39c-12.34,71.58-30.84,207.77-41.12,303.21s-28.79,238.59-41.12,318.12
			c-49.35,335.02-63.74,442.38-82.25,626.3c-10.28,106.37-28.79,248.53-41.12,315.14c-12.34,74.56-14.39,159.06-4.11,218.71
			c18.51,107.37,10.28,201.81-18.51,201.81C8996.66,13465.43,8984.32,13459.47,8978.15,13453.5z"/>
		<path d="M7512.89,13381.67c-39.07-60.77-98.7-263.68-96.64-331.31c6.17-186.24,47.29-759.66,65.8-901.79
			c10.28-83.32,28.79-229.37,41.12-323.47c12.34-94.1,37.01-244.07,55.52-333.27c32.9-162.71,39.07-588.12,16.45-1372.29
			c-4.11-183.3,4.11-363.66,24.67-524.41c24.67-187.22,34.96-466.58,39.07-1176.25c6.17-999.81,6.17-1005.69,69.91-1367.39
			c22.62-132.33,51.41-370.52,61.69-529.31c10.28-158.79,34.96-416.59,51.41-573.42c18.51-155.85,41.12-407.77,51.41-558.72
			c12.34-150.95,28.79-340.13,41.12-421.49c10.28-80.38,24.67-436.19,30.84-789.07c10.28-435.21,22.62-687.13,43.18-783.19
			c14.39-77.44,32.9-143.11,39.07-146.05c6.17-2.94,20.56-0.98,30.84,3.92c55.52,26.47,63.74,136.25,63.74,758.68
			c0,641.06-18.51,1048.82-76.08,1832.99c-16.45,229.37-39.07,540.09-49.35,691.05c-18.51,268.58-32.9,371.5-92.53,665.56
			c-51.41,249.95-74.02,680.26-69.91,1378.17c4.11,539.11-2.06,714.57-28.79,891.99c-26.73,177.42-32.9,379.34-34.96,1029.22
			c0,463.64-8.23,862.58-20.56,936.1c-12.34,70.58-30.84,204.86-41.12,298.96c-10.28,94.1-28.79,235.25-41.12,313.67
			c-49.35,330.33-63.74,436.19-82.25,617.53c-10.28,104.88-28.79,245.05-41.12,310.73c-12.34,73.52-14.39,156.83-4.11,215.65
			c18.51,105.86,10.28,198.98-18.51,198.98C7531.4,13393.43,7519.06,13387.55,7512.89,13381.67z"/>
		<path d="M13993.53,13336.67c-43.06-59.18-116.16-261.43-118.64-330.29c-6.33-189.65-3.73-775.02,5.21-920.66
			c4.67-85.34,13.35-234.96,19.35-331.39c6-96.43,20.57-250.44,33.06-342.3c21.92-167.5-0.44-600.18-75.57-1395.5
			c-16.39-185.98-20.27-369.79-10.53-534.49c12.07-191.86,3.6-476.4-39.86-1197.79c-60.86-1016.34-61.26-1022.31-21.9-1394.04
			c13.7-135.95,26.46-379.88,26.07-541.91c-0.38-162.03,6.96-425.61,12.86-586.05c8.02-159.58,13.7-417.05,13.84-571.11
			c2.19-154.2,5.93-347.51,12.78-430.99c4.87-82.35-4.62-444.85-22.11-803.82c-18.91-442.91-23.49-699.69-9.41-798.66
			c9.17-79.63,23.24-147.58,29.19-150.98c5.96-3.39,20.45-2.35,31.04,1.95c57.17,23.24,72.74,134.25,114.46,766.72
			c42.97,651.39,51.84,1066.95,46.95,1867.55c-1.04,234.15-2.78,551.37-2.92,705.44c-0.46,274.12-7.93,379.65-47.72,682.38
			c-34.54,257.37-28.27,696.1,22.62,1404.99c40.24,547.54,45.85,726.23,31.07,908.27c-14.78,182.04-7.4,387.62,34.11,1048.11
			c31.08,471.11,49.61,877.03,42.23,952.54c-7.58,72.53-17.04,210.2-21,306.49c-3.95,96.29-12.96,240.94-20.01,321.43
			c-27.1,338.9-34.37,447.42-40.68,632.9c-3.23,107.25-12.3,250.9-20.21,318.44c-7.38,75.51-3.85,160.31,10.35,219.39
			c25.56,106.35,23.6,201.51-5.13,203.41C14012.79,13347.41,14000.08,13342.24,13993.53,13336.67z"/>
		<path d="M14615.67,13465.09c-42.99-59.2-115.86-261.42-118.26-330.25c-6.11-189.56-2.84-774.63,6.26-920.19
			c4.77-85.29,13.62-234.83,19.73-331.2c6.11-96.37,20.86-250.29,33.45-342.09c22.11-167.39,0.25-599.87-73.98-1394.87
			c-16.18-185.91-19.85-369.62-9.92-534.23c12.29-191.75,4.15-476.16-38.49-1197.22c-59.7-1015.88-60.09-1021.86-20.3-1393.35
			c13.85-135.87,26.89-379.65,26.69-541.6s7.44-425.38,13.53-585.74c8.2-159.49,14.18-416.82,14.5-570.8
			c2.37-154.12,6.32-347.33,13.28-430.76c4.96-82.3-4.11-444.63-21.2-803.43c-18.41-442.7-22.69-699.36-8.5-798.26
			c9.26-79.58,23.4-147.48,29.37-150.87c5.96-3.39,20.46-2.33,31.04,1.99c57.14,23.29,72.58,134.26,113.58,766.45
			c42.22,651.1,50.62,1066.46,44.82,1866.65c-1.31,234.03-3.41,551.09-3.73,705.07c-0.78,273.98-8.36,379.45-48.5,681.98
			c-34.83,257.2-29.06,695.72,21.01,1404.3c39.61,547.3,45.02,725.91,30.03,907.83c-14.99,181.93-7.84,387.42,32.91,1047.61
			c30.54,470.91,48.61,876.64,41.14,952.1c-7.66,72.48-17.29,210.07-21.35,306.31s-13.23,240.8-20.38,321.25
			c-27.49,338.7-34.88,447.16-41.4,632.53c-3.35,107.19-12.58,250.76-20.57,318.26c-7.47,75.47-4.03,160.22,10.1,219.29
			c25.44,106.32,23.37,201.44-5.36,203.3C14634.92,13475.84,14622.22,13470.67,14615.67,13465.09z"/>
		<path d="M15057.49,13525.81c-42.41-58.5-113.3-257.77-115.03-325.42c-4.26-186.31,4.72-761.2,15.24-904.16
			c5.6-83.77,15.91-230.65,22.96-325.3s23.3-245.79,36.78-335.89c23.74-164.32,6.1-589.46-60.36-1371.22
			c-14.36-182.8-16.24-363.36-4.71-525.03c14.16-188.33,8.79-467.86-26.81-1176.73c-49.78-998.7-50.11-1004.58-6.7-1369.31
			c15.18-133.4,30.59-372.86,31.97-531.99c1.38-159.14,11.59-417.94,19.24-575.46c9.76-156.66,18.25-409.48,20.06-560.78
			c3.87-151.42,9.71-341.25,17.48-423.18c5.77-80.84,0.23-436.94-13.35-789.65c-14.09-435.16-15.86-687.39-0.71-784.46
			c10.04-78.13,24.84-144.74,30.84-148.02c5.99-3.28,20.47-2.13,31.01,2.19c56.91,23.32,71.27,132.48,106.09,754.01
			c35.87,640.12,40.21,1048.33,26.6,1834.58c-3.59,229.96-8.79,541.5-10.61,692.8c-3.45,269.22-12.06,372.8-55.15,669.77
			c-37.34,252.47-35.85,683.42,7.31,1380.08c34.27,538.1,37.93,713.65,21.17,892.3c-16.76,178.66-11.62,380.63,22.68,1029.68
			c25.94,462.96,40.05,861.79,31.84,935.89c-8.37,71.16-19.33,206.29-24.33,300.83c-5,94.54-15.58,236.52-23.51,315.51
			c-30.79,332.61-39.24,439.12-47.57,621.24c-4.4,105.31-15.03,246.31-23.67,312.58c-8.21,74.1-5.6,157.41,7.96,215.56
			c24.4,104.67,21.4,198.12-7.34,199.73C15076.63,13536.52,15063.98,13531.34,15057.49,13525.81z"/>
		<path d="M8238.79,13063.8c-39.07-59.49-98.7-258.09-96.64-324.29c6.17-182.29,47.29-743.57,65.8-882.69
			c10.28-81.55,28.79-224.51,41.12-316.62c12.34-92.11,37.01-238.9,55.52-326.21c32.9-159.27,39.07-575.66,16.45-1343.22
			c-4.11-179.42,4.11-355.95,24.67-513.3c24.67-183.25,34.96-456.69,39.07-1151.33c6.17-978.63,6.17-984.39,69.91-1338.42
			c22.62-129.52,51.41-362.67,61.69-518.1c10.28-155.43,34.96-407.76,51.41-561.27c18.51-152.55,41.12-399.13,51.41-546.88
			c12.34-147.75,28.79-332.93,41.12-412.56c10.28-78.67,24.67-426.95,30.84-772.35c10.28-425.99,22.62-672.57,43.18-766.59
			c14.39-75.8,32.9-140.08,39.07-142.96c6.17-2.88,20.56-0.96,30.84,3.84c55.52,25.91,63.74,133.36,63.74,742.61
			c0,627.47-18.51,1026.6-76.08,1794.15c-16.45,224.51-39.07,528.65-49.35,676.41c-18.51,262.89-32.9,363.63-92.53,651.46
			c-51.41,244.66-74.02,665.85-69.91,1348.97c4.11,527.69-2.06,699.43-28.79,873.09c-26.73,173.66-32.9,371.3-34.96,1007.41
			c0,453.82-8.22,844.31-20.56,916.27c-12.34,69.08-30.84,200.52-41.12,292.63s-28.79,230.27-41.12,307.02
			c-49.35,323.33-63.74,426.95-82.25,604.45c-10.28,102.66-28.79,239.86-41.12,304.14c-12.34,71.96-14.39,153.51-4.11,211.08
			c18.51,103.62,10.28,194.77-18.51,194.77C8257.3,13075.31,8244.96,13069.55,8238.79,13063.8z"/>
		<path d="M13306.73,13410.01c-42.51-59.72-113.75-263.13-115.6-332.17c-4.58-190.14,3.39-776.83,13.67-922.71
			c5.46-85.49,15.51-235.37,22.4-331.96s22.87-250.82,36.2-342.77c23.46-167.68,5.08-601.55-62.74-1399.4
			c-14.68-186.56-16.87-370.83-5.62-535.81c13.83-192.19,7.98-477.46-28.85-1200.9c-51.52-1019.24-51.86-1025.23-9.08-1397.43
			c14.95-136.13,29.95-380.49,31.05-542.9c1.1-162.4,10.87-426.51,18.24-587.27c9.49-159.87,17.54-417.87,19.09-572.28
			c3.61-154.53,9.12-348.25,16.74-431.86c5.63-82.49-0.53-445.91-14.73-805.86c-14.84-444.1-17.06-701.51-2.07-800.57
			c9.9-79.73,24.59-147.7,30.58-151.05c5.99-3.35,20.47-2.16,31.02,2.25c56.96,23.83,71.5,135.25,107.41,769.55
			c36.98,653.29,42.03,1069.88,29.79,1872.26c-3.19,234.67-7.85,552.61-9.4,707.02c-2.98,274.75-11.42,380.45-53.99,683.49
			c-36.9,257.63-34.66,697.43,9.71,1408.42c35.21,549.17,39.17,728.32,22.72,910.63s-10.96,388.44,24.48,1050.83
			c26.75,472.48,41.55,879.5,33.47,955.12c-8.25,72.62-18.98,210.51-23.81,306.99c-4.84,96.48-15.17,241.37-22.96,321.98
			c-30.21,339.42-38.48,448.12-46.49,633.96c-4.21,107.46-14.6,251.35-23.13,318.98c-8.08,75.62-5.32,160.64,8.33,219.99
			c24.58,106.84,21.74,202.2-7,203.82C13325.89,13420.95,13313.23,13415.65,13306.73,13410.01z"/>
	</g>
</g>
<g id="Layer_2">
	<g>
		<g>
			<path d="M1582.79,201.15c0.01-0.06,0.02-0.11,0.03-0.17c-0.41,1.51-0.82,3.03-1.23,4.54c-0.08,0.18-2,0.28-1.96,0.21
				c-1.48,2.76-1.03-1.51-0.65,0.9c0.22,1.4,1.91,3.41,2.52,4.75c1.87,4.13,3.2,8.56,4.24,12.96c1.9,8.08,2.51,16.34,2.6,24.62
				c0.18,18.45-1.88,36.95-3.25,55.33c-2.97,39.8-5.91,79.6-8.74,119.4c-5.65,79.53-10.86,159.09-14.95,238.71
				c-4.08,79.35-7.03,158.77-8.05,238.23c-1.02,79.4-0.1,158.83,3.55,238.15c1.83,39.65,4.34,79.28,7.63,118.84
				c2.56,30.72,7.13,64-4.22,93.56c-2.6,6.76-6.34,13.25-10.94,18.83c-3.11,3.78-3.63,9.02,0,12.73c3.15,3.22,9.65,3.74,12.73,0
				c21.77-26.46,24.6-60.78,22.85-93.78c-2.12-39.99-6.31-79.87-8.51-119.87c-4.62-83.95-6.05-168.05-5.26-252.11
				c0.8-84.52,3.84-169.01,8.17-253.41c4.32-84.31,9.9-168.55,15.93-252.75c3.02-42.15,6.15-84.29,9.31-126.42
				c1.4-18.68,2.9-37.36,0.17-55.99c-2-13.65-8.13-41.99-26.8-40.28c-8.63,0.79-15.15,9.37-12.52,17.82
				C1568.88,216.96,1586.26,212.25,1582.79,201.15L1582.79,201.15z"/>
		</g>
	</g>
	<g>
		<g>
			<path d="M710.85,249.71c2.96-9.49,14.01-13.02,22.96-13.33c14.07-0.48,28.26,2.98,42.23,4.27c27.94,2.57,56.06,2.29,84.04,0.57
				c57.14-3.5,113.99-11.68,170.93-17.39c114.02-11.43,228.39-18.73,343.02-17.73c64.83,0.57,129.61,3.17,194.38,5.78
				c-2.89-3.8-5.79-7.6-8.68-11.39c-1.14,4.35-2.29,8.7-3.43,13.05c-2.95,11.21,14.41,16,17.36,4.79c1.14-4.35,2.29-8.7,3.43-13.05
				c1.53-5.83-2.82-11.16-8.68-11.39c-117.76-4.74-235.39-8.42-353.18-2.41c-58.54,2.99-116.99,7.72-175.32,13.47
				c-57.98,5.71-115.82,13.94-173.95,17.89c-32.52,2.21-65.27,2.64-97.7-0.99c-15.55-1.74-31.64-5.83-47.17-1.76
				c-12.71,3.32-23.63,12.1-27.6,24.83C690.03,256.01,707.4,260.75,710.85,249.71L710.85,249.71z"/>
		</g>
	</g>
	<g>
		<g>
			<path d="M711,227.16c-1.78-1.21-3.55-2.43-5.33-3.64c-4.32-2.95-9.59-0.45-12.31,3.23c-9.22,12.47-4.38,28.3-1.26,41.97
				c3.65,15.98,4.78,32.42,3.64,48.77c-2.22,31.8-14.04,62.63-12.38,94.77c0.47,9.05,1.94,18.14,4.87,26.73
				c2.54,7.44,7.23,15.58,4.21,23.45c5.89,0.8,11.79,1.6,17.68,2.39c-2.39-38.01-5.5-76.07-6.55-114.15
				c-0.5-18.43-0.33-36.89,1.27-55.27c0.81-9.31,2.02-18.55,3.74-27.73c0.72-3.86,1.24-8.12,2.62-11.82c0.35-0.94,1.26-2.03,1.42-3
				c0.39-2.36,2.03,0.35-0.77-0.47c11.15,3.24,15.91-14.13,4.79-17.36c-15.84-4.6-22.48,12.99-24.86,25.05
				c-3.23,16.32-5.07,32.94-5.9,49.56c-1.62,32.52,0.58,65.06,2.62,97.51c1.21,19.23,2.41,38.45,3.62,57.68
				c0.66,10.43,14.05,11.84,17.68,2.39c5.83-15.2-4.66-30.39-7.36-45.1c-2.71-14.78-0.89-30.32,1.62-45
				c2.65-15.51,6.19-30.86,8.28-46.47c2.21-16.52,2.34-33.04,0.14-49.57c-1.18-8.81-3.21-17.34-5.14-26
				c-1.48-6.63-2.72-13.46,1.56-19.25c-4.1,1.08-8.21,2.15-12.31,3.23c1.78,1.21,3.55,2.43,5.33,3.64
				C711.5,249.26,720.51,233.67,711,227.16L711,227.16z"/>
		</g>
	</g>
	<g>
		<g>
			<path d="M678.32,595.94c2.15,73.36,4.55,146.71,7.2,220.05c2.61,72.09,4.09,144.44,9.72,216.38
				c3.16,40.4,8.18,80.73,16.95,120.31c2.16,9.77,18.45,7.81,17.68-2.39c-8.44-111.83-14.97-223.79-19.57-335.84
				c-1.31-31.82-2.45-63.66-3.45-95.49c-0.36-11.56-18.36-11.61-18,0c3.52,112.09,8.94,224.12,16.29,336.02
				c2.09,31.78,4.34,63.55,6.73,95.32c5.89-0.8,11.79-1.59,17.68-2.39c-15.31-69.12-18.59-140.01-21.41-210.53
				c-2.91-72.64-5.56-145.29-7.97-217.95c-1.36-41.16-2.65-82.31-3.85-123.47C695.98,584.39,677.98,584.34,678.32,595.94
				L678.32,595.94z"/>
		</g>
	</g>
	<g>
		<g>
			<path d="M692.26,432.2c-15.35,2.08-30.7,4.15-46.05,6.23c-3.81,0.52-6.64,5.12-6.61,8.68c0.53,51.98,2.73,103.89,4.8,155.82
				c0.29,7.4,7.29,10.44,13.54,7.77c8.83-3.77,17.88-3.64,27.2-2.51c8.79,1.07,17.7,0.57,24.28-6.09
				c-4.24-4.24-8.49-8.49-12.73-12.73c-3.25,3.58-8.16,3.55-12.62,2.47c-7.51-1.82-14.38-5.55-21.93-7.29
				c2.2,2.89,4.4,5.79,6.61,8.68c4.94-45.36,2.02-90.98-1-136.37c-5.89,0.8-11.79,1.6-17.68,2.39c1.01,5.08,2.47,9.98,4.39,14.79
				c1.8,4.51,6.01,7.68,11.07,6.29c4.29-1.18,8.1-6.53,6.29-11.07c-1.92-4.81-3.38-9.71-4.39-14.79
				c-1.97-9.87-18.35-7.75-17.68,2.39c3.02,45.39,5.94,91,1,136.37c-0.41,3.73,3.07,7.86,6.61,8.68c9.69,2.23,18.39,7.33,28.39,8.34
				c8.62,0.87,17.73-1.61,23.67-8.15c7.76-8.53-4.53-21.02-12.73-12.73c-3.85,3.9-14.39,0.23-19.27,0.01
				c-9.97-0.46-19.47,1.89-28.57,5.77c4.51,2.59,9.03,5.18,13.54,7.77c-2.07-51.93-4.26-103.85-4.8-155.82
				c-2.2,2.89-4.4,5.79-6.61,8.68c15.35-2.08,30.7-4.15,46.05-6.23c4.82-0.65,7.45-6.84,6.29-11.07
				C701.9,433.28,697.09,431.54,692.26,432.2L692.26,432.2z"/>
		</g>
	</g>
	<g>
		<g>
			<path d="M728.07,1107.35c-15.33-2.89-31.33-2.02-45.91,3.8c-3.5,1.4-8.24,2.84-10.95,5.54c-3.21,3.21-3.02,8.85-3.58,13.07
				c-1.15,8.64-2.09,17.3-2.79,25.98c-1.39,17.04-1.91,34.16-1.56,51.25c0.17,8.39,0.55,16.77,1.14,25.14
				c0.52,7.43-0.3,18.14,5.46,23.78c6.25,6.12,17.71,3.44,25.47,2.74c9.87-0.89,19.7-2.23,29.46-3.93
				c4.74-0.83,7.55-6.76,6.29-11.07c-3.07-10.47-13.19-15.61-23.62-15.52c-11.13,0.09-20.13,8.29-31,8.42
				c2.89,3.8,5.79,7.6,8.68,11.39c5.74-16.67,1.87-34.04-1.03-50.85c-1.35-7.85-2.57-16.03-1.59-24
				c1.09-8.88,5.75-16.38,10.38-23.82c-5.59-1.51-11.18-3.03-16.77-4.54c-0.04,28.89,2.41,57.67,7.1,86.17
				c5.01-2.92,10.03-5.84,15.04-8.76c-3.58-3.95-8.44-6.74-13.73-7.51c1.79,4.41,3.59,8.81,5.38,13.22
				c8.79-14.93,11.8-32.41,8.51-49.41c-1.6-8.24-5.38-16.06-6.46-24.4c-0.61-4.71-0.41-11.84,3.87-14.97
				c-3.64-0.47-7.27-0.94-10.91-1.41c4.68,4.63,3.14,11.82,1.65,17.53c-2.13,8.13-4.39,15.95-5.19,24.37
				c-1.56,16.52,1.99,33.02,9.11,47.9c3.14,6.55,12.05,5.1,15.54,0c2.85-4.16,5.07-9,6.1-13.95c1-4.81,2.19-12.13-0.44-16.62
				c-7.12-12.18-24.47,1.23-16.79,12.22c2.78,3.98,7.88,5.82,12.31,3.23c3.94-2.3,6.03-8.31,3.23-12.31
				c-0.18-0.26-0.36-0.51-0.53-0.77c0.41,1.51,0.82,3.03,1.23,4.54c-0.2,0.66-0.41,1.32-0.61,1.98c-1.79,1.38-3.59,2.76-5.38,4.14
				c0.19-0.08,0.39-0.16,0.58-0.24c-2.31-0.3-4.62-0.6-6.94-0.91c0.19,0.14,0.39,0.29,0.58,0.43c-1.49-2.59-2.97-5.18-4.46-7.77
				c0.55,6.38-0.81,11.66-4.43,16.95c5.18,0,10.36,0,15.54,0c-6.86-14.32-8.88-31.08-5.35-46.59c3.63-15.92,10.56-33.4-3.04-46.85
				c-2.6-2.57-7.72-3.73-10.91-1.41c-15.38,11.22-14.38,29.79-9.38,46.27c2.54,8.37,4.8,16.28,4.38,25.12
				c-0.4,8.48-3.09,16.57-7.38,23.85c-2.65,4.49-0.5,12.37,5.38,13.22c2.59,0.37,4.03,0.93,5.79,2.88
				c2.66,2.93,7.59,3.35,10.91,1.41c3.68-2.15,4.79-6.18,4.14-10.16c-4.42-26.9-6.49-54.12-6.45-81.38
				c0.01-9.1-12.12-12.02-16.77-4.54c-5.16,8.3-10.24,16.97-11.99,26.73c-1.63,9.1-1.12,18.02,0.15,27.13
				c2.26,16.16,7.8,33.05,2.26,49.11c-1.91,5.54,3.12,11.46,8.68,11.39c9.6-0.12,17.18-4.77,26.08-7.53
				c2.42-0.75,4.86-1.17,7.36-0.76c1.18,0.19,2.42,0.55,3.19,1.14c0.46,0.36,0.43,0.31,0.64,1.03c2.1-3.69,4.19-7.38,6.29-11.07
				c-6.64,1.15-13.29,2.12-19.99,2.83c-3.12,0.33-6.25,0.61-9.38,0.84c-2.29,0.17-7.45-0.51-9.4,0.57c-2-0.25-1.86,0.26,0.43,1.54
				c1.74,2.2,2.27,2.07,1.59-0.41c0.31-1.38-0.3-3.43-0.42-4.82c-0.29-3.54-0.54-7.08-0.76-10.62c-0.41-6.76-0.69-13.53-0.82-20.31
				c-0.56-27.25,1.04-54.58,4.97-81.55c-1.38,1.79-2.76,3.59-4.14,5.38c12.61-6.51,27.2-8.75,41.17-6.12
				c4.77,0.9,9.71-1.33,11.07-6.29C735.56,1114.03,732.87,1108.25,728.07,1107.35L728.07,1107.35z"/>
		</g>
	</g>
	<g>
		<g>
			<path d="M710.87,1247.9c3.47,15.06,7.93,29.72,6.46,45.31c-1.56,16.49-1.32,32.17,1.52,48.54c2.6,14.98,5.96,30.87,11.3,45.14
				c2.7,7.23,8.09,12.66,16.09,13.23c6.14,0.44,11.85-3.01,17.9-2.26c10.04,1.25,12.26-15.62,2.39-17.68
				c-14.03-2.92-28.1-5.62-42.21-8.08c2.1,2.1,4.19,4.19,6.29,6.29c-6.27-43.83-6.47-88.49-1.16-132.43c-6,0-12,0-18,0
				c4.08,40.83,8.19,81.9,5.98,122.98c-0.41,7.64-1.1,15.83,3.43,22.49c5.92,8.69,16.14,8.35,25.5,7.85
				c9.62-0.51,19.21-1.46,28.76-2.73c5.25-0.7,10.49-1.49,15.71-2.41c2-0.35,4.06-0.94,6.09-1.08c3.89-0.27,0.81,0.78,0.86-1.77
				c-0.23,11.59,17.77,11.59,18,0c0.2-10.39-9.21-16.65-18.86-16.23c-9.15,0.4-18.42,3.13-27.53,4.22
				c-10.04,1.21-20.19,2.1-30.31,2.29c-2.44,0.05-3.57,0.59-3.82-1.67c-0.4-3.65-0.03-7.31,0.16-10.98
				c2.21-41.08-1.89-82.15-5.98-122.98c-1.17-11.65-16.62-11.47-18,0c-5.52,45.68-4.71,91.68,1.81,137.21
				c0.4,2.78,3.56,5.81,6.29,6.29c14.11,2.47,28.19,5.16,42.21,8.08c0.8-5.89,1.6-11.79,2.39-17.68c-3.15-0.39-6.28,0.1-9.37,0.76
				c-2.07,0.44-4.46,1.64-6.59,1.54c-1.01-0.05-0.81-0.02-0.35,0.34c-0.64-0.5-0.84-1.84-1.08-2.54c-1.15-3.47-2-7.07-2.97-10.59
				c-3.71-13.53-7.32-27.27-8.88-41.24c-0.76-6.87-1.09-13.79-0.82-20.69c0.29-7.3,1.62-14.54,1.72-21.84
				c0.2-14.29-4.41-28.68-7.59-42.48C725.63,1231.83,708.27,1236.6,710.87,1247.9L710.87,1247.9z"/>
		</g>
	</g>
	<g>
		<g>
			<path d="M715.03,1377.27c-2.88,11.71,1.23,24.18,11.05,31.37c10.44,7.65,25.88,7.38,38.27,7.91c27.71,1.18,55.36-2.01,82.73-6.01
				c27.27-3.99,54.39-9.07,81.82-11.88c13.77-1.41,27.59-2.22,41.43-2.18c13.98,0.04,27.99,0.7,41.94-0.49
				c14.01-1.19,27.11-4.65,40.36-9.2c12.96-4.45,25.64-8.44,39.42-9.18c14.43-0.77,28.97-0.19,43.41-0.07
				c14.31,0.11,28.61,0.24,42.92,0.37c58.23,0.54,116.45,1.24,174.67,2.1c65.43,0.96,130.85,2.17,196.28,3.34c-3-3-6-6-9-9
				c0.03-0.43,0.53-1.44,1.08-1.39c-0.61-0.06-0.77,0.51-1.45,0.74c-2.17,0.73-4.26,0.7-6.75,0.61c-6.17-0.21-12.45-1.99-18.78-2.62
				c-16.25-1.61-32.93,0.6-48.3,6.04c-10.84,3.84-6.17,21.24,4.79,17.36c17.94-6.35,35.37-6.77,53.97-3.69
				c13.73,2.27,32.33,0.36,33.45-17.06c0.32-4.92-4.38-8.92-9-9c-112.67-2.01-225.33-3.95-338.01-5.11
				c-28.61-0.29-57.23-0.55-85.84-0.77c-13.69-0.1-27.53-0.73-41.17,0.77c-13.28,1.46-25.62,5.5-38.2,9.8
				c-12.66,4.33-25.17,7.53-38.57,8.29c-13.67,0.78-27.35,0.08-41.03,0.16c-26.62,0.17-53.08,3.68-79.35,7.71
				c-29.64,4.55-59.2,9.95-89.17,11.87c-14.94,0.96-29.95,1.05-44.87-0.23c-5.39-0.46-12.86-0.45-17.19-4.24
				c-3.28-2.87-4.57-7.37-3.55-11.55C735.15,1370.81,717.79,1366.01,715.03,1377.27L715.03,1377.27z"/>
		</g>
	</g>
	<g>
		<g>
			<path d="M1475.39,1374.6c-9.86,7.06-10.06,17.96-10.39,29.08c-0.39,13.06-0.77,26.13-1.16,39.19c1.49-2.59,2.97-5.18,4.46-7.77
				c-30.8,14.66-64.79,21.48-98.85,20.4c2.89,2.2,5.79,4.41,8.68,6.61c-5.78-25.95-8.42-52.35-8.04-78.93
				c0.13-9.2-12.12-11.89-16.77-4.54c-3.78,5.97-5.6,12.88-5.09,19.93c0.35,4.85,3.88,9,9,9c4.6,0,9.35-4.13,9-9
				c-0.3-4.14,0.4-7.32,2.63-10.85c-5.59-1.51-11.18-3.03-16.77-4.54c-0.4,28.14,2.57,56.25,8.69,83.72
				c0.87,3.93,4.86,6.49,8.68,6.61c37.32,1.19,74.25-6.83,107.93-22.86c2.85-1.36,4.37-4.79,4.46-7.77
				c0.31-10.45,0.62-20.9,0.93-31.35c0.15-5.01,0.19-10.05,0.46-15.06c0.07-1.35-0.01-5.42,1.25-6.32
				c3.95-2.83,5.84-7.84,3.23-12.31C1485.43,1373.93,1479.37,1371.76,1475.39,1374.6L1475.39,1374.6z"/>
		</g>
	</g>
	<g>
		<g>
			<path d="M1313.62,1384.67c-1.92,16.77-3.84,33.55-5.75,50.32c3-3,6-6,9-9c-7.25,0.62-14.5,1.24-21.75,1.86
				c-6.52,0.56-13.81,2.14-20.32,1.46c1.51,0.41,3.03,0.82,4.54,1.23c-0.01,0.02-0.03,0.05-0.04,0.07c0.77,1.32,1.54,2.65,2.31,3.97
				c-0.66-1.74,0.73-6.92,0.99-9.67c0.44-4.65,0.56-9.32,0.38-13.98c-0.35-9.19-1.82-18.36-4.25-27.22
				c-3.11-11.35-19.34-6.45-17.36,4.79c0.63,3.57,1.26,7.14,1.89,10.71c0.85,4.79,6.7,7.49,11.07,6.29
				c5.05-1.39,7.13-6.27,6.29-11.07c-0.63-3.57-1.26-7.14-1.89-10.71c-5.79,1.6-11.57,3.19-17.36,4.79
				c2.45,8.91,3.75,17.86,3.69,27.1c-0.03,4.17-0.27,8.35-0.81,12.48c-0.51,3.92-1.32,7.41,0.01,11.29
				c3.45,10.1,14.67,7.87,22.96,7.16c9.89-0.85,19.77-1.69,29.66-2.54c5.28-0.45,8.4-3.79,9-9c1.92-16.77,3.84-33.55,5.75-50.32
				c0.55-4.84-4.53-9-9-9C1317.3,1375.67,1314.18,1379.82,1313.62,1384.67L1313.62,1384.67z"/>
		</g>
	</g>
	<g>
		<g>
			<path d="M1026.52,1395.66c-2.03,5.8-1.86,11.8-1.59,17.85c0.28,6.29,0.31,12.59-0.01,18.88c-0.63,12.45-2.66,24.67-5.82,36.72
				c3.69-2.1,7.38-4.19,11.07-6.29c-12.16-3.14-23.81,0.82-35.92,2.09c-12.51,1.31-25.32,1.06-37.71-1.19
				c-2.61-0.47-5.22-1-7.79-1.65c1.12,0.28,0.72,2.63,0.82-0.1c0.04-1.26-0.43-2.66-0.59-3.9c-0.83-6.21-1.29-12.49-1.51-18.75
				c-0.43-12.86,0.33-25.75,2.43-38.45c-4.41,1.79-8.81,3.59-13.22,5.38c6.4,4.77,3.67,18.42,3.08,24.96
				c-1.27,13.98-0.48,27.8,2.3,41.57c0.63,3.11,3.43,5.37,6.29,6.29c18.7,6,38.43,8.55,58.04,7.49c5.34-0.29,8.34-3.93,9-9
				c0.49-3.79-0.54-7.32-2.48-10.58c-4.1,4.1-8.21,8.21-12.31,12.31c8.04,3.96,16.12,3.96,24.18,0.01c2.72-1.33,4.55-4.81,4.46-7.77
				c-0.43-13.61-0.85-27.21-1.28-40.82c-0.21-6.64-0.41-13.28-0.62-19.91c-0.1-3.21-0.25-6.43-0.3-9.65
				c-0.01-0.98-0.44-3.47,0.36-4.33c7.85-8.5-4.84-21.26-12.73-12.73c-4.64,5.03-5.73,11.08-5.62,17.74
				c0.14,7.63,0.48,15.27,0.72,22.9c0.49,15.6,0.97,31.2,1.46,46.8c1.49-2.59,2.97-5.18,4.46-7.77c-1.93,0.95-4.08,0.94-6.01-0.01
				c-7.74-3.8-17.18,4.14-12.31,12.31c0.66-0.32,0.67,0.18,0.02,1.49c3-3,6-6,9-9c-18.17,0.99-35.93-1.29-53.26-6.85
				c2.1,2.1,4.19,4.19,6.29,6.29c-2.98-14.75-1.95-28.87-1.11-43.74c0.74-13.05-1.57-25.37-12.54-33.55
				c-4.39-3.27-12.33,0.01-13.22,5.38c-2.41,14.61-3.61,29.37-3.04,44.18c0.3,7.79,1.08,15.56,2.21,23.28
				c0.97,6.63,3.49,12.36,10.07,15.05c6.38,2.61,13.91,3.25,20.7,4.06c7.13,0.85,14.32,1.17,21.5,0.95
				c7.36-0.23,14.69-1.06,21.94-2.3c6.44-1.1,12.97-2.8,19.46-1.13c4.66,1.2,9.82-1.51,11.07-6.29c3.23-12.35,5.33-25,6.23-37.74
				c0.42-5.97,0.56-11.95,0.41-17.93c-0.15-5.94-1.23-12.06,0.77-17.78C1047.7,1389.49,1030.32,1384.78,1026.52,1395.66
				L1026.52,1395.66z"/>
		</g>
	</g>
	<g>
		<g>
			<path d="M702.41,456.45c4.67-26.68,4.81-53.44,0.48-80.17c-0.78-4.8-6.75-7.47-11.07-6.29c-5.18,1.42-6.97,6.24-6.29,11.07
				c3.76,26.66,7.19,54.48-2.71,80.26c5.48-0.72,10.97-1.43,16.45-2.15c-5.56-11.92-21.13-15.89-32.21-9.53
				c4.1,1.08,8.21,2.15,12.31,3.23c-1.58-3.65-3.16-7.3-4.74-10.95c-4.07-9.4-19.4-2.69-16.45,6.94c1.93,6.31,5.6,11.05,11.09,14.67
				c9.7,6.39,18.73-9.19,9.08-15.54c-1.59-1.05-2.28-2.15-2.82-3.91c-5.48,2.31-10.97,4.62-16.45,6.94
				c1.58,3.65,3.16,7.3,4.74,10.95c1.94,4.49,8.5,5.42,12.31,3.23c3.16-1.81,6.16,0.01,7.59,3.07c3.61,7.75,13.97,4.3,16.45-2.15
				c11.07-28.82,6.9-60.09,2.71-89.83c-5.79,1.6-11.57,3.19-17.36,4.79c3.78,23.31,3.59,47.35-0.48,70.6
				c-0.84,4.78,1.28,9.7,6.29,11.07C695.68,463.93,701.56,461.27,702.41,456.45L702.41,456.45z"/>
		</g>
	</g>
	<g>
		<g>
			<path d="M694.95,455.82c2.53-48.98,5.06-97.96,7.59-146.95c0.63-12.25,1.27-24.49,1.9-36.74c0.31-5.96,0.62-11.91,0.92-17.87
				c0.26-4.94,0.18-10.08,1.37-14.92c2.01-8.2,8.64-10.91,16.42-12.1c10.44-1.59,21.41-1.13,31.94-1.49
				c98.26-3.39,196.53-7.42,294.86-8.28c55.18-0.48,110.38,0.12,165.52,2.56c11.58,0.51,11.56-17.49,0-18
				c-101.67-4.49-203.48-2.69-305.16,0.46c-50.42,1.57-100.84,3.38-151.26,5.12c-11.37,0.39-22.92,0.24-34.24,1.42
				c-9.68,1.01-19.46,3.31-26.79,10.15c-7.96,7.44-9.71,18.21-10.32,28.56c-0.74,12.42-1.29,24.86-1.93,37.29
				c-2.94,56.92-5.88,113.85-8.82,170.77C676.35,467.4,694.35,467.36,694.95,455.82L694.95,455.82z"/>
		</g>
	</g>
	<g>
		<g>
			<path d="M823.8,242.7c20.57-4.23,41.15-8.47,61.72-12.7c4.33-0.89,7.07-5.74,6.45-9.87c-0.71-4.73-4.26-7.29-8.84-7.8
				c-18.36-2.04-36.37,1.21-53.28,8.47c4.41,1.79,8.81,3.59,13.22,5.38c-0.05-0.32-0.1-0.63-0.16-0.94c0,1.6,0,3.19,0,4.79
				c-0.99,1.49-2.26,2.56-3.8,3.23c-1.51-0.41-3.03-0.82-4.54-1.23c-0.1-0.13-0.2-0.26-0.29-0.39c8.36,8.02,21.11-4.69,12.73-12.73
				c-9.48-9.08-23.29,0.02-21.3,12.06c1.06,6.36,8.48,7.41,13.22,5.38c13.94-5.98,29.2-7.67,44.19-6.01
				c-0.8-5.89-1.6-11.79-2.39-17.68c-20.57,4.23-41.15,8.47-61.72,12.7C807.68,227.68,812.48,245.04,823.8,242.7L823.8,242.7z"/>
		</g>
	</g>
	<g>
		<g>
			<path d="M1574.17,187.84c-17.12-1.81-34.38-1.83-51.49,0.15c-8.39,0.97-16.75,2.29-25,4.09c-8.09,1.76-16.06,3.97-24.4,4.01
				c-8.46,0.05-16.9-1.08-25.35-1.41c-8.23-0.32-16.48-0.27-24.71,0.12c-17.26,0.83-34.46,3.22-51.33,6.96
				c-11.3,2.51-6.52,19.87,4.79,17.36c15.96-3.54,32.11-5.72,48.44-6.41c8.23-0.35,16.48-0.33,24.71,0.04
				c8.46,0.38,16.95,1.6,25.43,1.29c16.65-0.6,32.76-6.5,49.32-8.27c16.49-1.77,33.1-1.68,49.59,0.06c4.84,0.51,9-4.5,9-9
				C1583.17,191.55,1579.02,188.35,1574.17,187.84L1574.17,187.84z"/>
		</g>
	</g>
	<g>
		<g>
			<path d="M699.7,442.37c0.4-52.15,0.8-104.29,1.2-156.44c0.1-13.2,0.2-26.4,0.3-39.6c0.06-7.26-0.97-18.22,4.51-23.97
				c2.72-2.86,6.9-2.64,10.54-2.38c6.45,0.46,12.89,1.72,19.3,2.52c12.65,1.58,25.35,2.77,38.07,3.56
				c29.37,1.83,58.84,1.53,88.18-0.79c4.85-0.38,9-3.86,9-9c0-4.57-4.13-9.38-9-9c-27.38,2.16-54.87,2.58-82.3,1.13
				c-13.71-0.72-27.4-1.91-41.03-3.54c-12.26-1.47-26.3-5.8-38.1-0.38c-9.71,4.46-14.58,14.41-16.11,24.55
				c-1.84,12.2-1.11,24.8-1.2,37.09c-0.21,27.72-0.43,55.45-0.64,83.17c-0.24,31.02-0.48,62.05-0.72,93.07
				C681.61,453.96,699.61,453.97,699.7,442.37L699.7,442.37z"/>
		</g>
	</g>
	<g>
		<g>
			<path d="M1567.3,1303.06c3.24,10.36,5.57,20.99,6.49,31.81c0.44,5.19,0.62,10.41,0.54,15.62c-0.06,3.71,0.73,11.53-1.43,14.38
				c1.08-1.08,2.15-2.15,3.23-3.23c-1.4,1.01-4.32,1.1-6.31,1.41c-3.53,0.55-7.06,1.1-10.59,1.65c-6.74,1.05-13.48,2.1-20.22,3.15
				c-11.66,1.82-24.24,2.46-33.24,11.02c-5.43,5.15-1.49,15.9,6.36,15.36c17.72-1.2,35.99-1.24,53.55-3.85
				c7.53-1.12,14.75-5.21,16.62-13.11c1.82-7.69-2.09-15.73-9.92-17.84c-11.2-3.03-15.97,14.33-4.79,17.36
				c-2.43-0.66-2.86-5.11-2.14-4.83c-0.38-0.15-2.47,0.76-3.12,0.85c-5.43,0.78-11.09,0.78-16.56,1.15
				c-11.22,0.76-22.43,1.52-33.65,2.28c2.12,5.12,4.24,10.24,6.36,15.36c3.38-3.21,8.58-3.75,13-4.47c6.66-1.08,13.33-2.08,20-3.12
				c6.74-1.05,13.48-2.1,20.22-3.15c6.14-0.96,12.85-1.3,16.72-6.91c3.36-4.87,3.34-11.3,3.66-17.03c0.36-6.43,0.32-12.88-0.11-19.3
				c-0.9-13.36-3.35-26.58-7.34-39.35C1581.21,1287.26,1563.83,1291.96,1567.3,1303.06L1567.3,1303.06z"/>
		</g>
	</g>
	<g>
		<g>
			<path d="M1569.57,440.23c-7.84,118.07-17.94,236.26-16.03,354.69c1.89,117.56,12.45,234.8,14.14,352.36
				c0.95,66.08-1.02,132.28-8.82,197.95c-0.57,4.83,4.55,9,9,9c5.34,0,8.42-4.15,9-9c13.87-116.67,9.08-234.37,3.02-351.39
				c-3.06-59.06-6.44-118.13-7.89-177.26c-1.45-58.84-0.33-117.6,2.76-176.37c3.51-66.7,8.4-133.33,12.83-199.98
				C1588.34,428.67,1570.33,428.71,1569.57,440.23L1569.57,440.23z"/>
		</g>
	</g>
	<g>
		<g>
			<path d="M1558.22,215.76c12.71,7.54,15.31,25.36,18.7,38.42c2.91,11.2,20.27,6.45,17.36-4.79c-4.75-18.31-9.48-38.79-26.97-49.17
				C1557.32,194.29,1548.26,209.84,1558.22,215.76L1558.22,215.76z"/>
		</g>
	</g>
	<g>
		<g>
			<path d="M1390.23,1450.08c-6.76-6.64-17.66-6.61-24.46-0.05c-3.24,3.12-3.38,8.36-0.7,11.82c2.75,3.56,7.65,4.52,11.61,2.32
				c0.64-0.36,1.31-0.67,1.95-1.03c-0.68,0.38-1,0.32-0.08,0.06c0.4-0.11,2.76-0.61,0.39-0.22c0.23,0,0.45,0.01,0.68,0.01
				c-0.87,0.11-1.62-0.15-2.26-0.78c-1.33-0.8-2.22-1.65-2.71-3.2c-0.08-0.51-0.17-1.01-0.25-1.52c0.28-1.57,0.33-1.99,0.15-1.29
				c-0.29,1.03,1.03-1.98,0.28-0.75c2.35-3.83,7.28-3.98,10.98-1.1c-1.97-1.53-3.75-2.64-6.36-2.64c-2.21,0-4.84,0.98-6.36,2.64
				c-2.96,3.22-3.97,9.65,0,12.73c2.41,1.87,4.62,3.13,7.74,3.18c2.77,0.04,5.69-1.35,7.62-3.27c3.21-3.18,4.67-8.15,3.59-12.55
				c-1.36-5.56-6.23-8.85-11.75-9.36c-4.51-0.42-8.83,1.39-12.7,3.54c3.64,4.71,7.27,9.42,10.91,14.14
				c0.72-0.67,0.59-0.59-0.38,0.24c0.87-0.46,0.71-0.42-0.47,0.13c0.39-0.13,0.8-0.23,1.2-0.3c-1.26,0.15-1.54,0.21-0.84,0.2
				c0.7,0.02,0.42-0.04-0.84-0.18c0.41,0.07,0.81,0.18,1.2,0.31c-1.18-0.54-1.34-0.58-0.48-0.12c-0.97-0.82-1.1-0.9-0.39-0.23
				c3.36,3.3,9.42,3.6,12.73,0C1393.5,1459.24,1393.82,1453.6,1390.23,1450.08L1390.23,1450.08z"/>
		</g>
	</g>
	<g>
		<g>
			<path d="M1015.61,1412.72c3.26,20.81,6.99,44.16-1.74,64.18c4.1-1.08,8.21-2.15,12.31-3.23c-6.92-3.87-14.14-4.27-21.84-2.96
				c-6.99,1.19-13.68,4.13-20.76,4.7c-8.28,0.66-16.81-0.56-25.06-1.13c-8.32-0.58-16.64-1.17-24.96-1.75c3,3,6,6,9,9
				c1.2-15.49,1.39-31.03,0.45-46.53c-0.47-7.76-1.33-15.46-2.24-23.17c-0.28-2.35-0.59-4.74-0.45-7.11
				c0.04-0.72,0.54-2.04,0.38-2.59c-0.08-0.46,0-0.65,0.22-0.57c-0.44,1.24-1.73,1.49-3.87,0.75c-1.79-1.38-3.59-2.76-5.38-4.14
				c0.14,0.21,0.27,0.43,0.41,0.64c-0.41-1.51-0.82-3.03-1.23-4.54c0,0.26,0,0.52,0.01,0.78c0.41-1.51,0.82-3.03,1.23-4.54
				c-0.12,0.21-0.23,0.42-0.35,0.63c1.79-1.38,3.59-2.76,5.38-4.14c-0.22,0.07-0.43,0.13-0.65,0.2
				c-11.05,3.36-6.34,20.74,4.79,17.36c5.94-1.8,9.1-7.88,6.82-13.75c-2.21-5.69-8.6-7.54-14-5.69
				c-9.94,3.39-12.41,14.93-11.59,24.18c1.02,11.5,2.55,22.87,2.95,34.43c0.44,12.61,0.11,25.23-0.86,37.81c-0.4,5.09,4.46,8.68,9,9
				c15.29,1.07,30.82,3.04,46.16,3c7.36-0.02,14.32-1.69,21.37-3.58c5.07-1.36,11.07-3.49,16-0.73c3.87,2.16,10.34,1.31,12.31-3.23
				c10.96-25.15,7.67-51.74,3.55-78.06c-0.75-4.81-6.77-7.47-11.07-6.29C1016.77,1403.05,1014.86,1407.9,1015.61,1412.72
				L1015.61,1412.72z"/>
		</g>
	</g>
	<g>
		<g>
			<path d="M685.78,427.95c-10.36,2.17-20.72,4.35-31.08,6.52c-8.88,1.86-20.31,2.43-28.04,7.57c-8.11,5.39-9.38,14.63-10.3,23.54
				c-1.02,9.86-1.11,19.79-0.66,29.68c1.78,39.18,11.89,77.84,8.27,117.22c-0.64,7.01,8.06,10.93,13.54,7.77
				c1.96-1.13,5.1,0.22,7.17,0.7c4.35,1,8.74,1.72,13.18,2.19c8.74,0.92,17.38,0.32,26.04-1.09c5.43-0.89,8.57-8.81,5.38-13.22
				c-5.05-6.98-12.6-9.21-20.94-7.51c-4.72,0.97-9.65,4.3-13.88,0.76c-3.82-3.2-5.77-8.68-7.11-13.31
				c-2.18-7.54-3.38-15.5-4.41-23.26c-4.47-33.65-2.26-67.91,2.09-101.45c-6,0-12,0-18,0c-3.28,32.77-6.15,67,5.91,98.43
				c1.74,4.54,6.06,7.66,11.07,6.29c4.34-1.19,8.04-6.51,6.29-11.07c-11.51-30-8.39-62.39-5.26-93.65c0.48-4.84-4.48-9-9-9
				c-5.38,0-8.37,4.16-9,9c-4.57,35.19-6.38,70.72-1.49,105.98c2.01,14.46,4.15,30.29,13.66,41.99c4.35,5.35,10.39,8.99,17.31,9.64
				c3.97,0.37,7.82-0.49,11.61-1.6c1.58-0.46,3.36-1.37,5-1.4c1.94-0.04,2.18,1.4,0.62-0.76c1.79-4.41,3.59-8.81,5.38-13.22
				c-8.55,1.4-17.57,1.35-26.08-0.32c-8.48-1.66-16.51-4.33-24.61,0.34c4.51,2.59,9.03,5.18,13.54,7.77
				c3.33-36.25-4.95-71.95-7.7-107.93c-0.66-8.65-0.99-17.33-0.75-26c0.13-4.64,0.4-9.29,0.94-13.9c0.29-2.52,0.22-6.35,2.54-7.84
				c2.78-1.79,7.69-1.89,10.83-2.54c4.53-0.95,9.07-1.9,13.6-2.85c9.71-2.04,19.43-4.07,29.14-6.11
				C701.89,442.93,697.1,425.57,685.78,427.95L685.78,427.95z"/>
		</g>
	</g>
	<g>
		<g>
			<path d="M635.22,628.54c17.1-1.58,34.26-2.07,51.42-1.46c-2.89-3.8-5.79-7.6-8.68-11.39c-0.12,0.33-0.25,0.66-0.37,0.99
				c0.77-1.32,1.54-2.65,2.31-3.97c1.39-0.21,2.77-0.43,4.16-0.64c-11.27-2.63-16.08,14.72-4.79,17.36
				c7.4,1.73,13.44-1.98,16.04-8.95c2.14-5.72-3.3-11.2-8.68-11.39c-17.16-0.61-34.32-0.12-51.42,1.46c-4.84,0.45-9,3.82-9,9
				C626.22,624.06,630.35,628.99,635.22,628.54L635.22,628.54z"/>
		</g>
	</g>
	<g>
		<g>
			<path d="M707.72,1101.17c-14.95,2.31-31.32,5.47-45.04,12.07c-7.54,3.63-9.07,10.58-9.08,18.28c-0.01,8.27,0.04,16.54,0.1,24.81
				c0.24,33.41,0.91,66.82,2,100.21c0.17,5.1,4,8.68,9,9c16.52,1.07,33.04,2.24,49.55,3.53c4.85,0.38,9-4.41,9-9
				c0-5.18-4.13-8.62-9-9c-16.51-1.29-33.02-2.46-49.55-3.53c3,3,6,6,9,9c-0.98-30.09-1.63-60.19-1.91-90.29
				c-0.07-7.28-0.12-14.56-0.15-21.83c-0.01-3.64-0.02-7.28-0.03-10.92c0-0.29,0.26-5.26,0.02-5.34c-0.15-0.05-0.92,0.83-0.81,1.06
				c-0.03-0.06,18.04-5.76,19.67-6.18c7.26-1.9,14.61-3.37,22.03-4.52c4.81-0.74,7.47-6.77,6.29-11.07
				C717.39,1102.32,712.55,1100.42,707.72,1101.17L707.72,1101.17z"/>
		</g>
	</g>
</g>
</svg>
