<?xml version="1.0" encoding="utf-8"?>
<!-- Generator: Adobe Illustrator 26.0.3, SVG Export Plug-In . SVG Version: 6.00 Build 0)  -->
<svg version="1.1" id="Layer_1" xmlns="http://www.w3.org/2000/svg" xmlns:xlink="http://www.w3.org/1999/xlink" x="0px" y="0px"
	 viewBox="0 0 2360 1640" style="enable-background:new 0 0 2360 1640;" xml:space="preserve">
<g transform="translate(0.000000,1640.000000) scale(0.100000,-0.100000)">
	<path d="M16210,13913c-25-2-119-10-210-19c-126-12-338-16-893-20c-401-2-733-6-738-10c-6-3-150-8-322-10c-577-8-1041-23-1172-39
		c-244-29-480-46-785-55c-168-5-447-14-620-20s-463-13-645-15c-286-3-366-8-600-35c-148-16-310-39-360-51c-377-85-536-100-965-94
		c-285,4-318,6-485,35c-175,30-184,31-320,20c-222-17-318-30-342-46c-68-44-79-175-22-248l22-28l-12-771c-6-425-11-830-11-902v-130
		l-102-2c-94-2-103-4-127-28l-26-25l-7-403c-4-221-10-491-13-600c-5-156-4-217,8-285c9-48,19-131,22-185c8-121,14-126,119-119
		c41,2,85,2,99-2l24-6l6-202c4-112,16-351,27-533c11-181,20-386,20-455s7-170,15-225c60-394,81-786,66-1260c-11-351,2-1203,24-1653
		c8-167,15-393,15-503v-199l-52,6c-46,5-56,3-73-16c-19-21-19-36-18-353c2-309,18-604,43-782c5-38,9-98,10-131c0-47,5-68,21-88
		c20-25,23-26,88-20l68,7l12-164c22-300,78-623,133-777c30-83,31-93,29-222l-3-135l-34-31c-27-25-34-39-34-68c0-57,23-91,82-120
		c92-45,135-48,553-44c215,1,557,3,760,3c345,0,380-2,514-24l144-24l-6-225c-6-246-1-280,48-354c30-46,126-95,254-130
		c69-19,82-19,165-8c50,7,161,14,246,15c207,3,283,31,337,123c26,44,27,52,25,164c-3,150-26,316-52,375c-11,25-18,48-16,50
		c3,3,56,11,118,18c253,30,477,55,548,60c41,4,145,15,230,25s229,26,320,35s219,23,285,32c134,19,438,23,648,9l129-8l-6-27
		c-3-14-9-87-12-161c-6-112-4-141,9-165c40-77,116-115,231-115c39,0,87-5,106-10c19-6,72-13,117-16c77-7,82-6,106,18
		c31,31,62,160,53,216c-4,20-9,67-12,105c-5,51-11,70-24,77c-20,11-23,6-34-62c-4-20-16-59-28-85s-24-73-27-103l-6-55l-54,2
		c-63,3-245,39-281,57c-24,11-25,16-25,91c0,44,3,113,5,154l5,74l164-7c90-3,263-6,384-6h220l-7-158c-11-253,10-371,75-411
		c12-7,61-27,108-44c103-37,176-40,431-18c124,11,198,12,300,5c80-6,153-6,178-1c83,17,132,96,132,213c0,26,7,86,16,133
		c20,104,14,160-26,236l-29,55h27c63,0,226,31,342,66l125,36l203-1c118,0,210-5,221-11c36-19,69-12,85,18c21,41,25,85,41,470
		c11,255,12,381,5,451c-11,102,8,481,31,621c11,70,17,872,10,1345c-5,330,12,878,34,1090c8,83,20,301,26,485s14,385,18,445
		c4,61,4,180-1,265c-4,85-12,236-18,335c-5,99-14,360-20,580c-5,220-14,483-19,585c-6,117-6,236,0,325c5,77,14,453,19,835
		c6,382,12,720,15,750c21,239,27,409,30,845c1,275,8,613,16,750c7,138,13,435,14,660c1,226,7,489,12,585c9,162,8,179-10,227
		c-21,57-12,53-107,38c-27-4-30-2-30,21c0,17-13,40-37,64C16470,13912,16386,13926,16210,13913z M16545,13610c14-16,13-24-14-92
		c-39-97-88-330-102-482c-10-116-30-1153-34-1836c-1-179-6-613-10-965c-8-629,0-991,25-1200c9-72,7-91-14-177c-38-146-55-284-62-488
		c-6-156-3-210,15-350c11-91,25-251,30-356c6-104,12-197,15-205c14-41,37-397,41-634c4-269,4-270-30-470c-19-110-39-252-45-315
		c-36-370-38-420-32-1115c4-633,3-702-14-840c-22-182-26-488-6-523c10-17,13-108,12-395c0-252,4-412,14-497c9-79,11-145,6-180
		c-5-30-9-94-9-142l-1-88h-112c-109,0-179-5-449-33c-81-9-154-10-205-5c-395,40-412,40-1234,48c-454,4-937,11-1075,15
		c-374,11-615-6-1155-85c-113-16-261-34-330-40s-177-17-240-25c-319-39-953-45-1210-11c-69,9-190,30-270,46c-252,51-591,64-906,36
		c-87-8-204-17-259-21c-55-3-120-11-145-16c-25-6-97-14-160-19s-152-12-197-16l-82-7l-7,27c-4,16-1,32,6,41c17,21,14,381-5,545
		c-26,230-44,434-55,625c-20,363-41,672-65,984c-16,198-25,398-26,540c0,124-6,397-12,606c-8,239-9,502-5,710c16,691,14,1285-5,1490
		c-10,105-20,197-22,205s-9,78-15,155s-18,187-27,245c-8,58-19,186-23,285s-15,254-24,345c-33,348-36,407-46,805
		c-10,414-24,722-39,915c-5,58-12,389-16,735c-14,1408-26,1773-61,1993c-5,32-3,40,12,46c32,12,326,24,384,15c30-4,123-22,205-40
		l150-33h410c445,1,543,8,789,54c238,45,576,72,901,71c149,0,439,6,645,14s548,19,760,25c545,15,868,28,889,35c18,5,250,13,1101,35
		c349,9,473,14,880,40c388,24,623,31,773,21c209-14,711,10,736,34c3,3,13-11,23-31C16522,13643,16537,13619,16545,13610z
		 M15317,1925c-22-42-24-73-16-262c3-53,0-86-8-94c-30-30-369-66-588-62c-129,3-226,29-236,64c-9,33-10,163-2,292l6,107l433-3l432-2
		L15317,1925z M10595,1795c22-2,139,0,260,5s221,7,223,5c2-1-6-30-17-63c-17-48-22-95-26-239c-4-148-8-180-21-190c-9-6-46-14-82-18
		c-37-3-105-12-152-20c-201-33-269-35-363-7c-39,12-90,26-113,32c-59,14-65,35-75,245c-4,99-11,195-14,213s-3,37,0,42
		C10221,1809,10491,1806,10595,1795z"/>
	<path d="M16210,13568c-43-30-73-88-78-154c-8-96,45-134,132-96c77,34,143,152,115,204c-15,28-30,39-46,34c-6-3-19,4-29,15
		C16281,13596,16250,13595,16210,13568z M16287,13465c2-1-16-19-38-41l-42-39l7,30c4,17,14,40,22,53c13,20,18,21,32,10
		C16277,13471,16286,13465,16287,13465z"/>
	<path d="M8083,13345c-50-35-84-134-64-187c34-90,231-28,231,72c0,34-31,70-60,70c-24,0-25-8-6-29c12-14,12-21,1-48
		c-29-68-115-85-115-22c0,51,26,89,61,89c33,0,48,23,32,49C8149,13361,8110,13364,8083,13345z"/>
	<path d="M13805,13218c-4-13-9-106-11-208s-9-349-15-550c-8-273-8-404,0-520c22-300,24-447,8-645c-28-337-32-669-12-1080
		c17-338,17-396,4-670c-9-193-14-508-13-880c5-2524,5-2594,20-2839c8-137,19-290,24-340c12-115,12-474,0-766c-5-124-12-308-16-410
		c-10-254-9-581,5-990c6-190,11-429,12-533c1-103,5-189,9-192c16-10,29,31,46,141c14,94,17,234,22,1019c6,1206,4,1488-13,1750
		c-8,121-19,308-25,415c-15,281-30,1908-28,3100c1,762-2,1072-12,1210c-7,102-13,338-13,525c0,287,4,369,23,530c24,204,24,289,0,660
		c-12,178-9,353,10,725c5,102,11,272,14,378c4,180,3,192-14,192C13820,13240,13809,13230,13805,13218z"/>
	<path d="M15466,13198c-20-113-27-348-16-507c7-105,9-265,5-422c-3-140-10-454-15-699c-5-249-17-524-26-625c-14-159-16-313-11-1338
		c6-1189,4-1283-33-1557c-29-206-32-318-35-1175c-2-515-8-971-15-1065c-6-91-14-221-19-289c-5-73-4-250,2-435c15-417,15-761-1-991
		c-15-236-1-957,22-1100c8-49,24-155,36-235c27-188,28-190,47-190c14,0,15,17,10,158c-3,86-13,218-22,292c-20,160-26,933-11,1445
		c6,220,6,342-2,420c-15,143-16,668-1,1270c6,264,13,773,14,1130c3,603,9,782,35,985c30,237,37,544,20,870c-19,380-33,1434-21,1630
		c12,188,43,536,61,690c33,269,41,367,50,570c18,420,9,784-25,990c-8,47-17,113-21,148C15487,13236,15475,13248,15466,13198z"/>
	<path d="M14905,12853c3-192,8-441,10-554c4-170,2-233-15-360c-48-369-52-432-45-689c13-413,15-1324,5-1730c-9-359-15-483-40-830
		c-20-275-23-772-6-1233c22-619,16-1360-14-1717c-5-58-13-332-19-610s-18-586-26-685c-19-226-39-912-30-1065c15-281,49-512,102-700
		c9-30,19-77,23-105l7-50l18,40c14,33,17,56,12,135c-4,52-14,131-22,175c-34,168-45,313-56,685c-12,402-5,647,26,935
		c31,278,35,428,40,1250c2,468,7,929,11,1025c4,119,1,279-11,500c-13,248-16,413-12,695c6,376,11,472,50,880c21,223,22,270,23,1490
		c0,894,3,1289,12,1360c30,263,34,340,27,562c-3,126-8,316-11,423c-4,201-26,488-38,509C14903,13226,14900,13180,14905,12853z"/>
	<path d="M16006,13068c-30-112-37-180-41-375c-7-324-16-546-22-557c-12-18-27-788-26-1251c1-247,8-580,15-740
		c22-492,11-1433-24-2050c-8-156-8-299,3-650c17-544,17-917,1-1545c-7-261-17-664-22-895s-16-512-25-625c-26-331-29-546-11-850
		c10-151,24-304,32-340s17-75,20-87c5-27,19-30,28-7c20,51,16,128-13,304c-53,325-63,591-36,960c24,329,34,530,45,900
		c6,195,15,416,20,490s10,473,12,885c2,817,11,1242,28,1490c7,104,13,703,16,1699c2,846,7,1542,9,1547c3,5,10,163,15,351
		c5,189,14,449,19,578c17,407,18,760,2,798c-7,17-17,32-21,32S16015,13102,16006,13068z"/>
	<path d="M9391,12958c-33-236-25-559,20-849c14-91,20-200,24-395c9-485,25-916,40-1084c9-98,19-406,25-760c6-327,15-651,20-720
		s16-258,25-420c8-162,18-313,22-335s9-382,11-800c5-1132,5-1212-3-1695c-9-544,16-1360,50-1610c7-58,30-247,51-420
		c34-289,37-346,44-700c7-357,9-389,28-440c12-30,21-68,22-83c0-48,25-25,30,29c3,27,2,232-2,454c-6,410-23,627-92,1213
		c-9,71-20,249-26,395c-6,147-15,371-20,497c-13,326-12,783,4,1040c16,281,14,1927-3,2210c-7,105-21,325-31,490
		c-22,336-40,883-40,1260c0,138-4,302-10,365c-19,235-36,570-60,1150c-6,140-17,300-25,355c-18,136-28,351-29,651
		c-1,233-2,253-20,273C9413,13066,9404,13055,9391,12958z"/>
	<path d="M8873,13028c-15-25-15-227,1-364c12-107,17-295,21-824c6-751,7-785,35-1040c31-289,49-461,55-540c4-41,17-165,30-275
		c48-399,64-832,45-1205c-24-489-36-1048-28-1348c7-248,16-375,59-777c69-655,83-991,99-2265c12-943,20-1124,59-1316
		c17-82,38-194,46-249c20-129,35-195,45-195c4,0,11,52,15,117c6,96,3,151-18,322c-37,290-47,548-57,1416c-14,1201-28,1466-121,2205
		c-16,129-34,300-41,380c-16,197-16,977,1,1330c31,677,23,1118-29,1495c-11,77-26,205-35,285c-39,377-48,458-71,640
		c-28,219-38,460-54,1290c-6,289-15,559-21,600c-6,42-9,132-6,203c5,103,3,127-8,127C8887,13040,8878,13034,8873,13028z"/>
	<path d="M10014,12893c-11-111-6-811,7-963c11-136,28-1077,29-1615c0-355,3-406,37-770l36-390l-11-260c-7-143-23-408-37-590
		c-30-404-42-915-26-1140c23-332,40-605,46-745c8-182,70-1001,90-1175c8-71,21-213,30-315s24-268,35-370s25-291,32-420
		c13-236,13-324,5-765c-3-132-1-280,3-330c9-94,37-196,56-202c29-9,35,153,38,892c1,135-18,458-49,845c-8,102-17,235-20,295
		c-3,61-15,202-25,315c-11,113-29,315-40,450s-27,317-35,405s-19,255-25,370c-6,116-20,320-32,455c-19,206-22,312-22,665
		c0,363,5,485,32,898c18,263,32,535,32,605c0,141-18,359-55,682c-32,281-43,627-55,1743c-5,489-12,892-14,896c-3,4-9,110-15,237
		c-13,277-22,384-31,384C10026,12980,10019,12941,10014,12893z"/>
	<path d="M10535,12958c-19-62-48-269-47-338c3-190,23-775,32-920c5-85,14-234,20-330s18-249,27-340c16-166,19-600,8-1400
		c-2-187,2-371,12-535c12-191,17-476,19-1200c3-1020,3-1026,34-1395c11-135,25-378,30-540s17-425,25-585c9-159,20-416,25-570
		c6-154,14-347,20-430c5-82,12-445,15-805c5-444,11-701,21-799c7-79,16-146,19-149s10-1,15,4c27,27,31,139,31,774
		c0,654-9,1070-37,1870c-8,234-19,551-24,705c-9,274-16,379-45,679c-25,255-36,694-34,1406c2,550-1,729-14,910s-16,387-17,1050
		c0,473-4,880-10,955c-6,72-15,209-20,305s-14,240-20,320c-24,337-31,445-40,630c-5,107-14,250-20,317c-6,75-7,160-2,220
		c9,108,5,203-9,203C10544,12970,10538,12964,10535,12958z"/>
	<path d="M14371,12823c-25-93-40-235-47-448c-11-297-7-802,6-977c6-75,13-268,15-430c2-161,7-356,10-433c5-85,3-182-3-245
		c-6-58-14-152-17-210s-10-150-14-205c-19-254-21-1300-2-1702c12-265,11-351-3-690c-8-215-18-731-21-1158c-3-423-10-824-15-890
		s-12-266-16-445c-5-263-3-364,11-530c23-281,37-743,40-1325c2-487,2-490,25-542c33-77,44-68,34,25c-4,42-9,280-9,527
		c-1,248-7,521-13,607c-15,197-17,1031-2,1273c5,99,15,270,21,380s12,612,13,1115c2,809,4,932,20,1060c19,156,18,405-3,660
		c-33,393-40,636-31,1101c9,443,16,583,43,874c7,72,12,180,12,240c-1,301-15,867-25,1002c-13,173-16,526-8,1041c2,194,1,355-3,358
		C14384,12858,14376,12844,14371,12823z"/>
	<path d="M8311,12663c-23-43-33-157-28-297c24-574,35-764,57-956c16-145,30-421,30-610c0-107,6-220,15-278c8-53,19-167,25-252
		s22-213,35-285c45-235,55-390,65-945c10-530,27-905,55-1190c31-327,35-395,45-715c5-181,14-429,20-550c6-137,6-572,1-1155
		c-8-986,3-1626,33-1970c27-295,41-709,28-818c-11-101-6-218,11-229c6-3,7,19,2,63c-5,50-2,94,11,159c15,75,18,136,16,365
		c-1,151-8,358-14,460c-10,135-13,574-13,1625c0,866-5,1635-12,1930c-12,457-18,568-42,815c-30,294-51,814-51,1274
		c-1,355-26,648-80,919c-11,55-25,163-30,240c-6,78-18,189-25,246c-8,58-15,179-15,270c0,151-22,571-35,681c-14,114-35,425-35,515
		c0,55-9,190-20,300c-10,110-21,244-23,297C8333,12675,8328,12694,8311,12663z"/>
	<path d="M13186,11946c-3-14-32-74-65-133c-32-60-64-127-71-148c-6-22-30-84-53-138c-38-91-46-102-102-146c-33-26-79-59-103-74
		s-74-57-113-92c-75-69-134-95-214-95h-41l13,108c7,59,15,177,19,262c5,138,4,159-13,189c-10,19-26,39-36,45c-27,17-68-12-97-69
		c-25-50-25-52-23-297l2-248h-42c-79,0-212,21-255,40c-73,33-140,87-305,250c-124,121-171,174-214,245c-76,122-161,233-184,240
		c-30,10-56-3-69-36c-12-27-9-38,33-127c25-53,57-126,72-162c43-103,123-254,162-307c102-134,272-298,371-356c74-43,130-55,396-87
		c268-32,310-31,412,8c91,34,156,87,331,271l172,181l26,82c28,93,40,175,56,395c11,143,10,154-8,185
		C13219,11973,13195,11979,13186,11946z"/>
	<path d="M12465,10305c-485-60-751-112-870-172c-63-32-185-155-251-254c-28-42-72-106-97-141c-46-65-77-150-77-213c0-16-7-67-16-112
		c-11-52-14-98-10-128c17-112,159-323,315-468c68-62,165-114,276-145c39-11,131-38,205-61c177-54,266-63,505-51
		c458,24,667,46,732,76c17,9,37,29,44,46c18,44,2,79-46,103c-36,18-54,20-190,15c-201-7-438-4-680,8c-221,11-233,13-450,103
		c-169,70-181,77-240,139c-206,216-229,252-215,330c4,25,11,80,15,122c6,66,11,83,37,115c17,21,51,70,76,108c87,133,187,223,292,260
		c80,29,556,114,780,140c180,20,261,19,355-5c154-39,325-21,391,41c33,30,30,53-9,83c-49,38-79,46-252,72
		C12880,10347,12796,10345,12465,10305z"/>
	<path d="M12127,8015c-112-18-421-122-511-172c-125-69-241-196-271-296c-19-62-47-308-40-340c3-12,7-112,9-222c3-187,5-208,35-320
		c45-169,124-326,211-415c60-62,79-74,262-163c108-53,221-103,250-112s140-24,247-35c172-16,206-16,309-4c98,11,127,19,196,52
		c45,22,101,57,125,78c74,64,165,178,212,265c24,46,70,119,102,163c74,102,143,238,162,319c8,34,18,123,21,197c9,175-2,217-109,428
		c-95,188-183,313-254,358c-26,17-80,52-120,78c-79,51-130,71-297,115c-95,25-135,30-281,35C12263,8028,12190,8025,12127,8015z
		 M12505,7731c215-54,352-122,432-216c19-22,70-111,114-197l79-157v-149c0-175-15-241-79-339c-22-34-69-119-105-189
		c-71-141-135-228-196-273c-22-16-77-39-122-51c-74-20-97-22-218-16c-245,12-308,28-528,139c-127,64-177,104-186,151
		c-4,18-25,62-48,97c-61,95-85,154-108,264c-35,165-25,343,21,405c39,52,65,106,90,194c21,72,28,84,95,151c95,96,145,129,267,176
		l102,40l155-5C12379,7753,12449,7745,12505,7731z"/>
	<path d="M12380,7400c-85-11-204-24-263-29c-141-12-188-34-235-111c-48-81-57-121-57-260c0-125,0-125,38-202c65-130,126-169,313-198
		c109-16,159-18,363-13c130,3,242,10,249,16c6,5,12,20,12,32c0,35-18,42-125,48c-188,9-380,28-443,44c-115,28-199,91-232,171
		c-14,36-8,164,11,235c18,68,35,77,152,77c301,1,545,35,626,88c45,29,61,59,40,73C12760,7415,12590,7426,12380,7400z"/>
	<path d="M12440,5680c-197-14-445-41-476-51c-45-14-66-41-62-81c2-28,10-37,48-56c44-23,50-23,190-16c80,5,240,9,355,9
		c140,1,225,5,254,14c43,12,111,67,111,89c0,23-51,69-87,79C12719,5683,12563,5689,12440,5680z"/>
	<path d="M16058,2700c-28-27-38-58-38-115c0-127,85-193,153-118c9,11,25,54,34,96l16,75l-32,41c-30,38-36,41-75,39
		C16093,2716,16067,2708,16058,2700z M16105,2610c9-15-6-101-16-94c-12,7-12,104,0,104C16095,2620,16102,2615,16105,2610z"/>
	<path d="M8421,2459c-46-49-35-166,19-221c52-52,110-29,131,52c18,67,6,112-41,154C8484,2485,8450,2490,8421,2459z M8504,2383
		c-10-75-23-86-24-22c0,31,3,59,7,62C8504,2441,8511,2426,8504,2383z"/>
</g>
</svg>
