<svg width="991" height="1308" viewBox="0 0 991 1308" fill="none" xmlns="http://www.w3.org/2000/svg">
<g id="Icon fix 1 1" clip-path="url(#clip0_1_2)">
<g id="Layer 1">
<path id="Vector" d="M927.71 9.64C925.21 9.84 915.81 10.64 906.71 11.54C894.11 12.74 872.91 13.14 817.41 13.54C777.31 13.74 744.11 14.14 743.61 14.54C743.11 14.94 728.61 15.34 711.41 15.54C653.71 16.34 607.31 17.84 594.21 19.44C569.81 22.34 546.21 24.04 515.71 24.94C498.91 25.44 471.01 26.34 453.71 26.94C436.41 27.54 407.41 28.24 389.21 28.44C360.61 28.74 352.61 29.24 329.21 31.94C314.41 33.54 298.21 35.84 293.21 37.04C255.51 45.54 239.61 47.04 196.71 46.44C168.21 46.04 164.91 45.84 148.21 42.94C130.71 39.94 129.81 39.84 116.21 40.94C94.01 42.64 84.41 43.94 82.01 45.54C75.21 49.94 74.11 63.04 79.81 70.34L82.01 73.14L80.81 150.24C80.21 192.74 79.71 233.24 79.71 240.44V253.44L69.51 253.64C60.11 253.84 59.21 254.04 56.81 256.44L54.21 258.94L53.51 299.24C53.11 321.34 52.51 348.34 52.21 359.24C51.71 374.84 51.81 380.94 53.01 387.74C54.074 393.863 54.8084 400.038 55.21 406.24C56.01 418.34 56.61 418.84 67.11 418.14C71.21 417.94 75.61 417.94 77.01 418.34L79.41 418.94L80.01 439.14C80.41 450.34 81.61 474.24 82.71 492.44C83.81 510.64 84.71 531.04 84.71 537.94C84.7641 545.463 85.265 552.976 86.21 560.44C92.21 599.84 94.31 639.04 92.81 686.44C91.71 721.54 93.01 806.74 95.21 851.74C96.01 868.44 96.71 891.04 96.71 902.04V921.94L91.51 921.34C86.91 920.84 85.91 921.04 84.21 922.94C82.31 925.04 82.31 926.54 82.41 958.24C82.61 989.14 84.21 1018.64 86.71 1036.44C87.21 1040.24 87.61 1046.24 87.71 1049.54C87.71 1054.24 88.21 1056.34 89.81 1058.34C91.81 1060.84 92.11 1060.94 98.61 1060.34L105.41 1059.64L106.61 1076.04C108.81 1106.04 114.41 1138.34 119.91 1153.74C122.91 1162.04 123.01 1163.04 122.81 1175.94L122.51 1189.44L119.11 1192.54C116.41 1195.04 115.71 1196.44 115.71 1199.34C115.71 1205.04 118.01 1208.44 123.91 1211.34C133.11 1215.84 137.41 1216.14 179.21 1215.74C200.71 1215.64 234.91 1215.44 255.21 1215.44C289.71 1215.44 293.21 1215.64 306.61 1217.84L321.01 1220.24L320.41 1242.74C319.81 1267.34 320.31 1270.74 325.21 1278.14C328.21 1282.74 337.81 1287.64 350.61 1291.14C357.51 1293.04 358.81 1293.04 367.11 1291.94C372.11 1291.24 383.21 1290.54 391.71 1290.44C412.41 1290.14 420.01 1287.34 425.41 1278.14C428.01 1273.74 428.11 1272.94 427.91 1261.74C427.61 1246.74 425.31 1230.14 422.71 1224.24C421.61 1221.74 420.91 1219.44 421.11 1219.24C421.31 1219.04 426.71 1218.14 432.91 1217.44C458.21 1214.44 480.61 1211.94 487.71 1211.44C491.81 1211.04 502.21 1209.94 510.71 1208.94C519.21 1207.94 533.61 1206.34 542.71 1205.44C551.81 1204.54 564.61 1203.14 571.21 1202.24C584.61 1200.34 615.01 1199.94 636.01 1201.34L648.91 1202.14L648.31 1204.84C648.01 1206.24 647.41 1213.54 647.11 1220.94C646.51 1232.14 646.71 1235.04 648.01 1237.44C652.01 1245.14 659.61 1248.94 671.11 1248.94C674.668 1248.92 678.218 1249.26 681.71 1249.94C685.558 1250.8 689.472 1251.34 693.41 1251.54C701.11 1252.24 701.61 1252.14 704.01 1249.74C707.11 1246.64 710.21 1233.74 709.31 1228.14C708.91 1226.14 708.41 1221.44 708.11 1217.64C707.61 1212.54 707.01 1210.64 705.71 1209.94C703.71 1208.84 703.41 1209.34 702.31 1216.14C701.652 1219.06 700.714 1221.9 699.51 1224.64C698.144 1227.93 697.236 1231.4 696.81 1234.94L696.21 1240.44L690.81 1240.24C684.51 1239.94 666.31 1236.34 662.71 1234.54C660.31 1233.44 660.21 1232.94 660.21 1225.44C660.21 1221.04 660.51 1214.14 660.71 1210.04L661.21 1202.64L677.61 1203.34C686.61 1203.64 703.91 1203.94 716.01 1203.94H738.01L737.31 1219.74C736.21 1245.04 738.31 1256.84 744.81 1260.84C748.329 1262.5 751.934 1263.97 755.61 1265.24C765.91 1268.94 773.21 1269.24 798.71 1267.04C808.676 1265.99 818.715 1265.82 828.71 1266.54C836.71 1267.14 844.01 1267.14 846.51 1266.64C854.81 1264.94 859.71 1257.04 859.71 1245.34C859.919 1240.87 860.453 1236.43 861.31 1232.04C863.31 1221.64 862.71 1216.04 858.71 1208.44L855.81 1202.94H858.51C864.81 1202.94 881.11 1199.84 892.71 1196.34L905.21 1192.74L925.51 1192.84C937.31 1192.84 946.51 1193.34 947.61 1193.94C951.21 1195.84 954.51 1195.14 956.11 1192.14C958.21 1188.04 958.61 1183.64 960.21 1145.14C961.31 1119.64 961.41 1107.04 960.71 1100.04C959.61 1089.84 961.51 1051.94 963.81 1037.94C964.91 1030.94 965.51 950.74 964.81 903.44C964.31 870.44 966.01 815.64 968.21 794.44C969.01 786.14 970.21 764.34 970.81 745.94C971.41 727.54 972.21 707.44 972.61 701.44C973.024 692.611 972.991 683.766 972.51 674.94C972.11 666.44 971.31 651.34 970.71 641.44C970.11 631.54 969.31 605.44 968.71 583.44C968.11 561.44 967.31 535.14 966.81 524.94C966.207 514.115 966.207 503.265 966.81 492.44C967.31 484.74 968.21 447.14 968.71 408.94C969.21 370.74 969.91 336.94 970.21 333.94C972.31 310.04 972.91 293.04 973.21 249.44C973.31 221.94 974.01 188.14 974.81 174.44C975.61 160.74 976.11 130.94 976.21 108.44C976.31 85.94 976.91 59.54 977.41 49.94C978.31 33.74 978.21 32.04 976.41 27.24C974.31 21.54 975.21 21.94 965.71 23.44C963.01 23.84 962.71 23.64 962.71 21.34C962.71 19.64 961.41 17.34 959.01 14.94C953.71 9.73999 945.31 8.34 927.71 9.64ZM961.21 39.94C962.61 41.54 962.51 42.34 959.81 49.14C955.91 58.84 951.01 82.14 949.61 97.34C948.61 108.94 946.61 212.64 946.21 280.94C946.11 298.84 945.61 342.24 945.21 377.44C944.41 440.34 945.21 476.54 947.71 497.44C948.61 504.64 948.41 506.54 946.31 515.14C942.51 529.74 940.81 543.54 940.11 563.94C939.51 579.54 939.81 584.94 941.61 598.94C942.71 608.04 944.11 624.04 944.61 634.54C945.11 645.04 945.81 654.24 946.11 655.04C947.51 659.14 949.81 694.74 950.21 718.44C950.61 745.34 950.61 745.44 947.21 765.44C945.31 776.44 943.31 790.64 942.71 796.94C939.11 833.94 938.91 838.94 939.51 908.44C939.91 971.74 939.81 978.64 938.11 992.44C935.91 1010.64 935.51 1041.24 937.51 1044.74C938.51 1046.44 938.81 1055.54 938.71 1084.24C938.71 1109.44 939.11 1125.44 940.11 1133.94C941.01 1141.84 941.21 1148.44 940.71 1151.94C940.102 1156.65 939.801 1161.39 939.81 1166.14L939.71 1174.94H928.56C917.66 1174.94 910.66 1175.44 883.66 1178.24C876.859 1179.08 869.993 1179.24 863.16 1178.74C823.66 1174.74 821.96 1174.74 739.76 1173.94C694.36 1173.54 646.06 1172.84 632.26 1172.44C594.86 1171.34 570.76 1173.04 516.76 1180.94C505.46 1182.54 490.66 1184.34 483.76 1184.94C476.86 1185.54 466.06 1186.64 459.76 1187.44C427.86 1191.34 364.46 1191.94 338.76 1188.54C331.86 1187.64 319.76 1185.54 311.76 1183.94C286.56 1178.84 252.66 1177.54 221.16 1180.34C212.46 1181.14 200.76 1182.04 195.26 1182.44C190.401 1182.7 185.56 1183.24 180.76 1184.04C175.464 1184.95 170.123 1185.59 164.76 1185.94C158.46 1186.44 149.56 1187.14 145.06 1187.54L136.86 1188.24L136.16 1185.54C135.961 1184.85 135.912 1184.13 136.015 1183.42C136.119 1182.72 136.373 1182.04 136.76 1181.44C138.46 1179.34 138.16 1143.34 136.26 1126.94C133.66 1103.94 131.86 1083.54 130.76 1064.44C128.76 1028.14 126.66 997.24 124.26 966.04C122.66 946.24 121.76 926.24 121.66 912.04C121.66 899.64 121.06 872.34 120.46 851.44C119.66 827.54 119.56 801.24 119.96 780.44C121.56 711.34 121.36 651.94 119.46 631.44C118.46 620.94 117.46 611.74 117.26 610.94C117.06 610.14 116.36 603.14 115.76 595.44C115.16 587.74 113.96 576.74 113.06 570.94C112.16 565.14 111.16 552.34 110.76 542.44C110.36 532.54 109.26 517.04 108.36 507.94C105.06 473.14 104.76 467.24 103.76 427.44C102.76 386.04 101.36 355.24 99.86 335.94C99.36 330.14 98.66 297.04 98.26 262.44C96.86 121.64 95.66 85.14 92.16 63.14C91.66 59.94 91.86 59.14 93.36 58.54C96.56 57.34 125.96 56.14 131.76 57.04C134.76 57.44 144.06 59.24 152.26 61.04L167.26 64.34H208.26C252.76 64.24 262.56 63.54 287.16 58.94C310.96 54.44 344.76 51.74 377.26 51.84C392.16 51.84 421.16 51.24 441.76 50.44C462.36 49.64 496.56 48.54 517.76 47.94C572.26 46.44 604.56 45.14 606.66 44.44C608.46 43.94 631.66 43.14 716.76 40.94C751.66 40.04 764.06 39.54 804.76 36.94C843.56 34.54 867.06 33.84 882.06 34.84C902.96 36.24 953.16 33.84 955.66 31.44C955.96 31.14 956.96 32.54 957.96 34.54C958.843 36.4531 959.933 38.2639 961.21 39.94ZM838.41 1208.44C836.21 1212.64 836.01 1215.74 836.81 1234.64C837.11 1239.94 836.81 1243.24 836.01 1244.04C833.01 1247.04 799.11 1250.64 777.21 1250.24C764.31 1249.94 754.61 1247.34 753.61 1243.84C752.71 1240.54 752.61 1227.54 753.41 1214.64L754.01 1203.94L797.31 1204.24L840.51 1204.44L838.41 1208.44ZM366.21 1221.44C368.41 1221.64 380.11 1221.44 392.21 1220.94C404.31 1220.44 414.31 1220.24 414.51 1220.44C414.71 1220.64 413.91 1223.44 412.81 1226.74C411.11 1231.54 410.61 1236.24 410.21 1250.64C409.81 1265.44 409.41 1268.64 408.11 1269.64C407.21 1270.24 403.51 1271.04 399.91 1271.44C396.31 1271.84 389.41 1272.64 384.71 1273.44C364.61 1276.74 357.81 1276.94 348.41 1274.14C344.51 1272.94 339.41 1271.54 337.11 1270.94C331.21 1269.54 330.61 1267.44 329.61 1246.44C329.21 1236.54 328.51 1226.94 328.21 1225.14C327.91 1223.34 327.91 1221.44 328.21 1220.94C328.81 1220.04 355.81 1220.34 366.21 1221.44Z" fill="black"/>
<path id="Vector_2" d="M927.71 44.14C923.41 47.14 920.41 52.94 919.91 59.54C919.11 69.14 924.41 72.94 933.11 69.14C940.81 65.74 947.41 53.94 944.61 48.74C943.11 45.94 941.61 44.84 940.01 45.34C939.41 45.64 938.11 44.94 937.11 43.84C934.81 41.34 931.71 41.44 927.71 44.14ZM935.41 54.44C935.61 54.54 933.81 56.34 931.61 58.54L927.41 62.44L928.11 59.44C928.598 57.5813 929.339 55.7981 930.31 54.14C931.61 52.14 932.11 52.04 933.51 53.14C934.102 53.6313 934.738 54.0665 935.41 54.44Z" fill="black"/>
<path id="Vector_3" d="M115.01 66.4399C110.01 69.9399 106.61 79.84 108.61 85.14C112.01 94.14 131.71 87.9399 131.71 77.9399C131.71 74.5399 128.61 70.9399 125.71 70.9399C123.31 70.9399 123.21 71.7399 125.11 73.8399C126.31 75.2399 126.31 75.94 125.21 78.64C122.31 85.44 113.71 87.1399 113.71 80.8399C113.71 75.7399 116.31 71.9399 119.81 71.9399C123.11 71.9399 124.61 69.6399 123.01 67.0399C121.61 64.8399 117.71 64.5099 115.01 66.4399Z" fill="black"/>
<path id="Vector_4" d="M354.96 114.28C351.06 120.34 345.09 140.59 345.3 147.33C345.92 165.92 350.03 223.13 351.88 237.33C352.88 245.65 354.76 260.22 355.99 269.61C357.22 279 359.69 293.96 361.54 302.86C364.84 319.1 365.45 361.54 363.19 439.78C362.726 457.26 363.551 474.751 365.66 492.11C368.12 510.79 369.15 538.66 369.56 609.47C370.18 709.23 370.18 709.82 376.56 745.91C378.82 759.11 381.7 782.91 382.72 798.72C383.74 814.53 386.22 840.29 387.87 855.93C389.72 871.49 391.98 896.62 393.01 911.68C394.24 926.74 395.89 945.62 397.12 953.74C398.12 961.74 399.59 997.26 400.2 1032.47C401.2 1075.89 402.46 1101.03 404.52 1110.61C405.96 1118.34 407.81 1124.89 408.43 1125.19C409.472 1125.42 410.562 1125.28 411.51 1124.79C417.06 1122.15 417.89 1111.2 417.89 1049.1C417.89 985.1 416.03 944.45 410.28 866.2C408.63 843.32 406.37 812.32 405.34 797.2C403.49 770.41 402.05 760.14 396.09 730.8C390.95 705.86 388.69 662.92 389.09 593.29C389.5 539.49 388.88 521.99 386.21 504.29C383.54 486.59 382.92 466.44 382.71 401.59C382.71 355.33 381.89 315.53 380.71 308.19C379.47 301.19 377.62 287.75 376.6 278.36C375.58 268.97 373.72 254.89 372.48 247.06C367.55 214.11 366.11 203.54 364.26 185.45C363.26 174.98 361.38 161 360.15 154.45C358.91 147.12 358.71 138.81 359.74 132.94C361.59 122.37 360.74 113.08 357.88 113.08C356.798 113.135 355.768 113.559 354.96 114.28Z" fill="black"/>
<path id="Vector_5" d="M625.31 206.34C625.01 207.74 622.11 213.74 618.81 219.64C616.178 224.441 613.808 229.382 611.71 234.44C611.11 236.64 608.71 242.84 606.41 248.24C602.61 257.34 601.81 258.44 596.21 262.84C592.91 265.44 588.31 268.74 585.91 270.24C581.953 273.066 578.179 276.138 574.61 279.44C567.11 286.34 561.21 288.94 553.21 288.94H549.11L550.41 278.14C551.11 272.24 551.91 260.44 552.31 251.94C552.81 238.14 552.71 236.04 551.01 233.04C550.147 231.299 548.919 229.764 547.41 228.54C544.71 226.84 540.61 229.74 537.71 235.44C535.21 240.44 535.21 240.64 535.41 265.14L535.61 289.94H531.41C523.51 289.94 510.21 287.84 505.91 285.94C498.61 282.64 491.91 277.24 475.41 260.94C463.01 248.84 458.31 243.54 454.01 236.44C446.41 224.24 437.91 213.14 435.61 212.44C432.61 211.44 430.01 212.74 428.71 216.04C427.51 218.74 427.81 219.84 432.01 228.74C434.51 234.04 437.71 241.34 439.21 244.94C443.51 255.24 451.51 270.34 455.41 275.64C465.61 289.04 482.61 305.44 492.51 311.24C499.91 315.54 505.51 316.74 532.11 319.94C558.91 323.14 563.11 323.04 573.31 319.14C582.41 315.74 588.91 310.44 606.41 292.04L623.61 273.94L626.21 265.74C629.01 256.44 630.21 248.24 631.81 226.24C632.91 211.94 632.81 210.84 631.01 207.74C628.61 203.64 626.21 203.04 625.31 206.34Z" fill="black"/>
<path id="Vector_6" d="M553.21 370.44C504.71 376.44 478.11 381.64 466.21 387.64C459.91 390.84 447.71 403.14 441.11 413.04C438.31 417.24 433.91 423.64 431.41 427.14C426.81 433.64 423.71 442.14 423.71 448.44C423.425 452.205 422.891 455.946 422.11 459.64C421.107 463.828 420.769 468.147 421.11 472.44C422.81 483.64 437.01 504.74 452.61 519.24C459.41 525.44 469.11 530.64 480.21 533.74C484.11 534.84 493.31 537.54 500.71 539.84C518.41 545.24 527.31 546.14 551.21 544.94C597.01 542.54 617.91 540.34 624.41 537.34C626.304 536.282 627.837 534.679 628.81 532.74C630.61 528.34 629.01 524.84 624.21 522.44C620.61 520.64 618.81 520.44 605.21 520.94C585.11 521.64 561.41 521.34 537.21 520.14C515.11 519.04 513.91 518.84 492.21 509.84C475.31 502.84 474.11 502.14 468.21 495.94C447.61 474.34 445.31 470.74 446.71 462.94C447.11 460.44 447.81 454.94 448.21 450.74C448.81 444.14 449.31 442.44 451.91 439.24C453.61 437.14 457.01 432.24 459.51 428.44C468.21 415.14 478.21 406.14 488.71 402.44C496.71 399.54 544.31 391.04 566.71 388.44C584.71 386.44 592.81 386.54 602.21 388.94C617.61 392.84 634.71 391.04 641.31 384.84C644.61 381.84 644.31 379.54 640.41 376.54C635.51 372.74 632.51 371.94 615.21 369.34C594.71 366.24 586.31 366.44 553.21 370.44Z" fill="black"/>
<path id="Vector_7" d="M519.41 599.44C508.21 601.24 477.31 611.64 468.31 616.64C455.81 623.54 444.21 636.24 441.21 646.24C439.31 652.44 436.51 677.04 437.21 680.24C437.51 681.44 437.91 691.44 438.11 702.44C438.41 721.14 438.61 723.24 441.61 734.44C446.11 751.34 454.01 767.04 462.71 775.94C468.71 782.14 470.61 783.34 488.91 792.24C499.71 797.54 511.01 802.54 513.91 803.44C516.81 804.34 527.91 805.84 538.61 806.94C555.81 808.54 559.21 808.54 569.51 807.34C579.31 806.24 582.21 805.44 589.11 802.14C593.539 799.987 597.729 797.372 601.61 794.34C610.017 786.668 617.17 777.726 622.81 767.84C625.874 762.204 629.281 756.76 633.01 751.54C640.41 741.34 647.31 727.74 649.21 719.64C650.377 713.132 651.079 706.548 651.31 699.94C652.21 682.44 651.11 678.24 640.41 657.14C630.91 638.34 622.11 625.84 615.01 621.34L603.01 613.54C595.11 608.44 590.01 606.44 573.31 602.04C563.81 599.54 559.81 599.04 545.21 598.54C533.01 598.14 525.71 598.44 519.41 599.44ZM557.21 627.84C578.71 633.24 592.41 640.04 600.41 649.44C602.31 651.64 607.41 660.54 611.81 669.14L619.71 684.84V699.74C619.71 717.24 618.21 723.84 611.81 733.64C609.61 737.04 604.91 745.54 601.31 752.54C594.21 766.64 587.81 775.34 581.71 779.84C579.51 781.44 574.01 783.74 569.51 784.94C562.11 786.94 559.81 787.14 547.71 786.54C523.21 785.34 516.91 783.74 494.91 772.64C482.21 766.24 477.21 762.24 476.31 757.54C475.91 755.74 473.81 751.34 471.51 747.84C465.41 738.34 463.01 732.44 460.71 721.44C457.21 704.94 458.21 687.14 462.81 680.94C466.71 675.74 469.31 670.34 471.81 661.54C473.91 654.34 474.61 653.14 481.31 646.44C490.81 636.84 495.81 633.54 508.01 628.84L518.21 624.84L533.71 625.34C544.61 625.64 551.61 626.44 557.21 627.84Z" fill="black"/>
<path id="Vector_8" d="M544.71 660.94C536.21 662.04 524.31 663.34 518.41 663.84C504.31 665.04 499.61 667.24 494.91 674.94C490.11 683.04 489.21 687.04 489.21 700.94C489.21 713.44 489.21 713.44 493.01 721.14C499.51 734.14 505.61 738.04 524.31 740.94C535.21 742.54 540.21 742.74 560.61 742.24C573.61 741.94 584.81 741.24 585.51 740.64C586.279 739.751 586.704 738.616 586.71 737.44C586.71 733.94 584.91 733.24 574.21 732.64C555.41 731.74 536.21 729.84 529.91 728.24C518.41 725.44 510.01 719.14 506.71 711.14C505.31 707.54 505.91 694.74 507.81 687.64C509.61 680.84 511.31 679.94 523.01 679.94C553.11 679.84 577.51 676.44 585.61 671.14C590.11 668.24 591.71 665.24 589.61 663.84C582.71 659.44 565.71 658.34 544.71 660.94Z" fill="black"/>
<path id="Vector_9" d="M550.71 832.94C531.01 834.34 506.21 837.04 503.11 838.04C498.61 839.44 496.51 842.14 496.91 846.14C497.11 848.94 497.91 849.84 501.71 851.74C506.11 854.04 506.71 854.04 520.71 853.34C528.71 852.84 544.71 852.44 556.21 852.44C570.21 852.34 578.71 851.94 581.61 851.04C585.91 849.84 592.71 844.34 592.71 842.14C592.71 839.94 587.61 835.24 584.01 834.24C578.61 832.64 563.01 832.04 550.71 832.94Z" fill="black"/>
<path id="Vector_10" d="M912.56 1130.94C909.76 1133.64 908.76 1136.74 908.76 1142.44C908.76 1155.14 917.26 1161.74 924.06 1154.24C924.96 1153.14 926.56 1148.84 927.46 1144.64L929.06 1137.14L925.86 1133.04C922.86 1129.24 922.26 1128.94 918.36 1129.14C916.01 1129.34 913.41 1130.14 912.56 1130.94ZM917.26 1139.94C918.16 1141.44 916.66 1150.04 915.66 1149.34C914.46 1148.64 914.46 1138.94 915.66 1138.94C915.977 1138.98 916.28 1139.09 916.548 1139.26C916.816 1139.44 917.043 1139.67 917.21 1139.94H917.26Z" fill="black"/>
<path id="Vector_11" d="M148.81 1155.04C144.21 1159.94 145.31 1171.64 150.71 1177.14C155.91 1182.34 161.71 1180.04 163.81 1171.94C165.61 1165.24 164.41 1160.74 159.71 1156.54C155.01 1152.34 151.71 1151.94 148.81 1155.04ZM157.11 1162.64C156.11 1170.14 154.81 1171.24 154.71 1164.84C154.71 1161.74 155.01 1158.94 155.41 1158.64C157.11 1156.84 157.81 1158.34 157.11 1162.64Z" fill="black"/>
<path id="Vector_12" d="M282.38 108.16C278.47 114.32 272.51 134.9 272.71 141.76C273.33 160.65 277.44 218.81 279.29 233.22C280.29 241.67 282.17 256.48 283.4 266.03C284.63 275.58 287.1 290.78 288.96 299.83C292.25 316.33 292.86 359.47 290.6 439C290.136 456.766 290.961 474.543 293.07 492.19C295.56 511.18 296.56 539.51 296.97 611.51C297.59 712.91 297.59 713.51 303.97 750.19C306.23 763.61 309.11 787.77 310.13 803.88C311.15 819.99 313.63 846.13 315.28 862.03C317.13 877.84 319.39 903.39 320.42 918.7C321.65 934.01 323.3 953.19 324.53 961.45C325.53 969.6 327 1005.68 327.61 1041.45C328.61 1085.59 329.87 1111.14 331.93 1120.88C333.37 1128.74 335.22 1135.4 335.84 1135.69C336.88 1135.93 337.973 1135.79 338.92 1135.3C344.47 1132.61 345.3 1121.48 345.3 1058.3C345.3 993.3 343.44 951.93 337.69 872.4C336.04 849.14 333.78 817.62 332.75 802.31C330.9 775.08 329.46 764.64 323.5 734.81C318.36 709.46 316.1 665.81 316.5 595.04C316.91 540.36 316.29 522.57 313.62 504.58C310.95 486.59 310.33 466.1 310.12 400.19C310.12 353.19 309.3 312.71 308.07 305.25C306.83 298.1 304.98 284.48 303.96 274.93C302.94 265.38 301.08 251.07 299.84 243.12C294.91 209.62 293.47 198.88 291.62 180.49C290.62 169.85 288.74 155.64 287.51 148.98C286.27 141.52 286.07 133.07 287.1 127.11C288.95 116.37 288.1 106.92 285.24 106.92C284.174 106.997 283.165 107.435 282.38 108.16Z" fill="black"/>
<path id="Vector_13" d="M135.85 115.34C131.94 121.42 125.98 141.71 126.19 148.47C126.8 167.1 130.91 224.47 132.76 238.65C133.76 246.98 135.64 261.59 136.88 271C138.12 280.41 140.58 295.41 142.43 304.33C145.72 320.6 146.34 363.14 144.07 441.56C143.617 459.077 144.45 476.604 146.56 494C149.03 512.72 150.06 540.65 150.47 611.62C151.08 711.62 151.08 712.19 157.47 748.36C159.73 761.59 162.61 785.36 163.64 801.29C164.67 817.22 167.13 842.95 168.78 858.63C170.63 874.22 172.89 899.41 173.92 914.51C175.15 929.6 176.8 948.51 178.03 956.65C179.03 964.65 180.5 1000.27 181.12 1035.56C182.12 1079.08 183.38 1104.27 185.43 1113.88C186.87 1121.62 188.72 1128.19 189.34 1128.49C190.385 1128.72 191.479 1128.58 192.43 1128.09C197.98 1125.45 198.8 1114.47 198.8 1052.23C198.8 988.12 196.95 947.34 191.19 868.93C189.55 845.99 187.28 814.93 186.26 799.82C184.41 772.96 182.97 762.67 177 733.27C171.86 708.27 169.6 665.27 170 595.45C170.41 541.54 169.8 523.99 167.12 506.25C164.44 488.51 163.83 468.32 163.63 403.33C163.63 356.96 162.8 317.07 161.57 309.72C160.34 302.66 158.49 289.23 157.46 279.82C156.43 270.41 154.58 256.3 153.35 248.45C148.41 215.45 146.97 204.84 145.12 186.7C144.12 176.21 142.24 162.2 141.01 155.63C139.78 148.28 139.57 139.95 140.6 134.06C142.45 123.48 141.6 114.17 138.75 114.17C137.678 114.219 136.656 114.632 135.85 115.34Z" fill="black"/>
<path id="Vector_14" d="M783.91 119.84C779.61 125.76 772.3 145.99 772.05 152.84C771.42 171.84 771.68 230.34 772.57 244.91C773.04 253.44 773.91 268.4 774.51 278.05C775.11 287.7 776.51 303.05 777.81 312.28C780 329.03 777.81 372.28 770.25 451.83C768.637 469.6 768.303 487.462 769.25 505.28C770.46 524.46 769.61 552.92 765.25 625.05C759.17 726.69 759.13 727.29 763.06 764.46C764.43 778.05 765.71 802.46 765.67 818.65C765.63 834.84 766.37 861.21 766.96 877.25C767.76 893.25 768.33 918.96 768.34 934.37C768.56 949.79 768.93 969.12 769.62 977.46C770.11 985.7 769.16 1021.95 767.41 1057.85C765.52 1102.14 765.06 1127.85 766.47 1137.71C767.38 1145.71 768.79 1152.47 769.39 1152.81C770.412 1153.12 771.514 1153.06 772.49 1152.62C778.21 1150.29 779.76 1139.19 783.94 1075.94C788.23 1010.8 789.12 969.25 788.63 889.19C788.53 865.77 788.35 834.05 788.34 818.64C788.34 791.23 787.55 780.64 783.57 750.41C780.11 724.67 780.74 680.8 785.83 609.91C789.83 555.15 790.41 537.29 788.94 519.08C787.47 500.87 788.2 480.32 792.35 414.27C795.46 367.16 797.35 326.57 796.57 319.02C795.81 311.76 794.87 298.02 794.47 288.37C794.07 278.72 793.18 264.27 792.47 256.22C789.76 222.33 789.03 211.48 788.4 192.93C788.08 182.21 787.17 167.84 786.4 161.09C785.66 153.54 786.02 145.09 787.4 139.15C789.95 128.52 789.76 119 786.88 118.81C785.801 118.805 784.754 119.168 783.91 119.84Z" fill="black"/>
<path id="Vector_15" d="M846.13 107C841.83 112.92 834.54 133.14 834.3 140C833.69 159 834.02 217.46 834.93 232C835.4 240.52 836.29 255.48 836.93 265.12C837.57 274.76 839.02 290.12 840.28 299.32C842.49 316.06 840.28 359.32 832.88 438.81C831.256 456.569 830.922 474.423 831.88 492.23C833.1 511.41 832.29 539.85 828.03 611.96C822.03 713.54 822.03 714.14 826.03 751.29C827.41 764.88 828.72 789.29 828.7 805.45C828.68 821.61 829.44 847.99 830.05 864.03C830.87 879.97 831.47 905.71 831.5 921.11C831.74 936.52 832.13 955.84 832.83 964.18C833.32 972.41 832.42 1008.64 830.71 1044.52C828.87 1088.79 828.44 1114.46 829.86 1124.35C830.78 1132.35 832.2 1139.1 832.79 1139.44C833.817 1139.75 834.921 1139.68 835.9 1139.24C841.61 1136.91 843.16 1125.81 847.26 1062.59C851.48 997.48 852.32 955.95 851.74 875.93C851.61 852.53 851.4 820.82 851.36 805.42C851.29 778.02 850.53 767.48 846.51 737.22C843.03 711.5 843.61 667.65 848.62 596.79C852.62 542.06 853.12 524.2 851.62 506.01C850.12 487.82 850.83 467.27 854.91 401.25C857.91 354.16 859.77 313.58 859.02 306.04C858.26 298.79 857.29 285.04 856.89 275.41C856.49 265.78 855.57 251.33 854.89 243.28C852.14 209.41 851.4 198.57 850.75 180.03C850.42 169.31 849.49 154.95 848.69 148.2C847.95 140.66 848.29 132.2 849.69 126.28C852.24 115.64 852.03 106.13 849.16 105.95C848.057 105.928 846.983 106.3 846.13 107Z" fill="black"/>
<path id="Vector_16" d="M890.31 100.93C886.07 106.78 878.98 126.71 878.81 133.47C878.38 152.1 879.28 209.59 880.33 223.89C880.89 232.26 881.92 246.95 882.63 256.42C883.34 265.89 884.96 281 886.3 290.01C888.68 306.44 886.91 348.95 880.3 427.13C878.852 444.595 878.695 462.142 879.83 479.63C881.24 498.46 880.71 526.42 877.15 597.3C872.15 697.17 872.15 697.76 876.48 734.23C877.99 747.57 879.54 771.52 879.67 787.43C879.8 803.34 880.83 829.23 881.6 844.98C882.6 860.65 883.42 885.98 883.6 901.06C883.99 916.2 884.6 935.18 885.35 943.38C885.93 951.46 885.35 987.07 884.02 1022.38C882.61 1065.9 882.43 1091.12 883.95 1100.83C884.95 1108.64 886.43 1115.3 887.03 1115.63C888.057 1115.93 889.155 1115.85 890.13 1115.41C895.82 1113.08 897.26 1102.16 900.74 1040.01C904.33 976.01 904.74 935.18 903.4 856.55C903.04 833.55 902.52 802.4 902.34 787.27C901.99 760.35 901.13 749.99 896.82 720.27C893.09 695.03 893.24 651.93 897.55 582.27C900.98 528.46 901.35 510.9 899.67 493.04C897.99 475.18 898.51 454.97 901.94 390.04C904.53 343.74 905.94 303.86 905.12 296.45C904.29 289.33 903.19 275.82 902.69 266.37C902.19 256.92 901.13 242.71 900.34 234.82C897.26 201.55 896.41 190.9 895.58 172.69C895.14 162.16 894.08 148.06 893.21 141.43C892.39 134.02 892.65 125.69 894.01 119.88C896.45 109.41 896.15 100.07 893.28 99.88C892.2 99.8851 891.153 100.255 890.31 100.93Z" fill="black"/>
<path id="Vector_17" d="M208.44 147.13C204.53 153.08 198.57 172.94 198.78 179.56C199.39 197.79 203.5 253.92 205.36 267.83C206.36 275.98 208.23 290.28 209.47 299.49C210.71 308.7 213.17 323.38 215.02 332.11C218.31 348.04 218.93 389.68 216.66 466.43C216.2 483.578 217.026 500.736 219.13 517.76C221.6 536.09 222.63 563.43 223.04 632.9C223.66 730.76 223.66 731.34 230.04 766.74C232.3 779.69 235.18 803.01 236.21 818.55C237.24 834.09 239.7 859.32 241.35 874.68C243.2 889.93 245.46 914.59 246.49 929.36C247.72 944.14 249.37 962.66 250.6 970.62C251.6 978.49 253.07 1013.31 253.69 1047.85C254.69 1090.45 255.95 1115.11 258 1124.51C259.44 1132.09 261.29 1138.51 261.91 1138.81C262.953 1139.05 264.045 1138.91 265 1138.43C270.55 1135.83 271.37 1125.09 271.37 1064.16C271.37 1001.42 269.52 961.5 263.76 884.75C262.12 862.3 259.85 831.88 258.83 817.11C256.98 790.82 255.54 780.75 249.57 751.96C244.43 727.5 242.17 685.38 242.57 617.07C242.98 564.3 242.37 547.12 239.69 529.76C237.01 512.4 236.4 492.63 236.2 429.02C236.2 383.63 235.38 344.58 234.14 337.39C232.91 330.48 231.06 317.34 230.03 308.13C229 298.92 227.15 285.13 225.92 277.42C220.98 245.09 219.54 234.73 217.69 216.98C216.69 206.71 214.81 192.98 213.58 186.56C212.35 179.37 212.14 171.21 213.17 165.46C215.02 155.09 214.17 145.98 211.32 145.98C210.26 146.036 209.247 146.44 208.44 147.13Z" fill="black"/>
<path id="Vector_18" d="M715.23 112.51C710.98 118.51 703.86 138.82 703.67 145.73C703.22 164.73 704.01 223.41 705.04 238C705.59 246.55 706.59 261.53 707.28 271.19C707.97 280.85 709.57 296.28 710.9 305.47C713.25 322.24 711.41 365.62 704.63 445.41C703.156 463.233 702.965 481.139 704.06 498.99C705.45 518.21 704.86 546.74 701.18 619.08C696.03 721.01 695.99 721.6 700.27 758.82C701.77 772.44 703.27 796.87 703.38 813.11C703.49 829.35 704.46 855.76 705.2 871.84C706.15 887.84 706.95 913.63 707.11 929.07C707.47 944.52 708.02 963.89 708.78 972.25C709.35 980.5 708.78 1016.85 707.31 1052.84C705.83 1097.25 705.6 1122.99 707.1 1132.9C708.1 1140.9 709.56 1147.67 710.16 1148C711.186 1148.31 712.288 1148.23 713.26 1147.78C718.96 1145.39 720.41 1134.25 724 1070.78C727.7 1005.45 728.21 963.78 727 883.56C726.68 860.09 726.22 828.3 726.06 812.85C725.76 785.38 724.92 774.85 720.66 744.51C716.97 718.74 717.2 674.76 721.66 603.66C725.18 548.75 725.57 530.83 723.93 512.6C722.29 494.37 722.83 473.76 726.38 407.52C729.05 360.27 730.53 319.57 729.72 312.01C728.9 304.74 727.82 290.95 727.34 281.31C726.86 271.67 725.82 257.17 725.05 249.11C722.05 215.17 721.2 204.3 720.4 185.71C719.98 174.97 718.94 160.58 718.08 153.81C717.28 146.25 717.55 137.75 718.92 131.81C721.37 121.12 721.09 111.59 718.22 111.42C717.126 111.421 716.068 111.807 715.23 112.51Z" fill="black"/>
<path id="Vector_19" d="M967.35 14.66V14.49L966.12 19.03C965.472 19.2218 964.794 19.293 964.12 19.24C962.64 22 963.12 17.73 963.47 20.14C963.69 21.54 965.38 23.55 965.99 24.89C967.817 29.0772 969.237 33.4306 970.23 37.89C972 45.976 972.871 54.2326 972.83 62.51C973.01 80.96 970.95 99.5099 969.58 117.84C966.607 157.64 963.693 197.44 960.84 237.24C955.19 316.77 949.98 396.33 945.89 475.95C941.81 555.3 938.89 634.72 937.84 714.18C936.79 793.64 937.74 873.01 941.39 952.33C943.217 991.983 945.76 1031.6 949.02 1071.17C951.58 1101.89 956.15 1135.17 944.8 1164.73C942.181 1171.55 938.487 1177.91 933.86 1183.56C930.75 1187.34 930.23 1192.56 933.86 1196.29C937.01 1199.51 943.51 1200.03 946.59 1196.29C968.36 1169.83 971.19 1135.51 969.44 1102.51C967.32 1062.51 963.13 1022.64 960.93 982.64C956.31 898.69 954.93 814.64 955.67 730.53C956.47 646.01 959.51 561.53 963.84 477.12C968.17 392.71 973.74 308.57 979.77 224.37C982.79 182.223 985.893 140.083 989.08 97.95C990.48 79.27 991.98 60.59 989.25 41.95C987.25 28.3 981.12 -0.0500371 962.45 1.66996C953.82 2.45996 947.3 11.04 949.93 19.49C953.37 30.49 970.75 25.79 967.28 14.69L967.35 14.66Z" fill="black"/>
<path id="Vector_20" d="M95.41 63.22C98.41 53.73 109.41 50.22 118.41 49.89C132.48 49.41 146.67 52.89 160.64 54.16C188.58 56.73 216.7 56.45 244.64 54.73C301.78 51.23 358.64 43.05 415.57 37.34C529.57 25.91 643.96 18.61 758.57 19.61C823.4 20.18 888.18 22.78 952.95 25.39L944.27 14C943.13 18.3467 941.987 22.68 940.84 27C937.84 38.21 955.25 43 958.2 31.79C959.34 27.4367 960.483 23.0867 961.63 18.74C961.975 17.4051 962.013 16.0092 961.74 14.6576C961.468 13.3059 960.892 12.0338 960.056 10.9371C959.22 9.84042 958.146 8.94775 956.915 8.32639C955.685 7.70502 954.329 7.37117 952.95 7.35001C835.19 2.61001 717.56 -1.07 599.77 4.94C541.23 7.94 482.77 12.66 424.45 18.41C366.45 24.12 308.63 32.35 250.45 36.3C217.93 38.51 185.18 38.94 152.75 35.3C137.2 33.56 121.11 29.47 105.58 33.54C92.87 36.86 81.95 45.64 77.98 58.37C74.56 69.51 91.96 74.26 95.41 63.22Z" fill="black"/>
<path id="Vector_21" d="M95.56 40.67L90.23 37.03C85.91 34.03 80.64 36.58 77.92 40.26C68.7 52.73 73.54 68.56 76.66 82.26C80.2622 98.2496 81.4887 114.683 80.3 131.03C78.08 162.83 66.3 193.66 67.92 225.8C68.3063 234.885 69.9451 243.873 72.79 252.51C75.33 259.95 80.02 268.09 77 275.96L94.68 278.35C92.29 240.35 89.18 202.28 88.13 164.2C87.503 145.767 87.927 127.314 89.4 108.93C90.21 99.62 91.4 90.38 93.14 81.2C93.86 77.34 94.38 73.08 95.76 69.38C96.11 68.44 97.02 67.38 97.18 66.38C97.57 64.02 99.18 66.73 96.41 65.91C107.56 69.15 112.32 51.78 101.2 48.55C85.36 43.95 78.72 61.55 76.34 73.55C73.1751 89.9052 71.2032 106.469 70.44 123.11C68.82 155.63 71.02 188.17 73.06 220.62C74.2733 239.853 75.48 259.08 76.68 278.3C77.34 288.73 90.68 290.14 94.36 280.69C100.19 265.49 89.7 250.3 87 235.59C84.3 220.88 86.11 205.27 88.62 190.59C91.27 175.08 94.81 159.73 96.9 144.12C99.1514 127.676 99.1985 111.006 97.04 94.55C95.86 85.74 93.83 77.21 91.9 68.55C90.42 61.92 89.18 55.09 93.46 49.3L81.15 52.53L86.48 56.17C96.06 62.73 105.07 47.17 95.56 40.63V40.67Z" fill="black"/>
<path id="Vector_22" d="M62.88 409.45C65.0333 482.783 67.4333 556.117 70.08 629.45C72.69 701.54 74.17 773.89 79.8 845.83C82.96 886.23 87.98 926.56 96.8 966.14C98.96 975.91 115.25 973.95 114.48 963.75C106.007 851.957 99.4666 740.027 94.86 627.96C93.5266 596.14 92.3766 564.31 91.41 532.47C91.05 520.91 73.05 520.86 73.41 532.47C76.93 644.557 82.36 756.557 89.7 868.47C91.7933 900.25 94.0367 932.023 96.43 963.79L114.11 961.4C98.8 892.28 95.52 821.4 92.7 750.87C89.7933 678.203 87.1267 605.537 84.7 532.87C83.3667 491.71 82.0833 450.553 80.85 409.4C80.51 397.83 62.51 397.78 62.85 409.4L62.88 409.45Z" fill="black"/>
<path id="Vector_23" d="M76.82 245.71L30.82 251.94C27.01 252.46 24.18 257.06 24.21 260.62C24.74 312.62 26.94 364.51 29.01 416.44C29.3 423.84 36.3 426.88 42.55 424.21C51.38 420.44 60.43 420.57 69.75 421.7C78.54 422.77 87.45 422.27 94.03 415.61L81.3 402.88C78.05 406.46 73.14 406.43 68.68 405.35C61.17 403.53 54.3 399.8 46.75 398.06C48.95 400.953 51.1533 403.847 53.36 406.74C58.3 361.38 55.36 315.74 52.36 270.37L34.68 272.76C35.6714 277.799 37.1242 282.737 39.02 287.51C40.82 292.02 45.02 295.19 50.09 293.8C54.38 292.62 58.19 287.27 56.38 282.73C54.4648 277.946 52.9952 272.995 51.99 267.94C49.99 258.07 33.64 260.19 34.31 270.33C37.31 315.72 40.25 361.33 35.31 406.7C34.9 410.43 38.38 414.56 41.92 415.38C51.61 417.61 60.31 422.71 70.31 423.72C78.93 424.59 88.04 422.11 93.98 415.57C101.74 407.04 89.45 394.57 81.25 402.84C77.4 406.74 66.86 403.07 61.98 402.84C51.98 402.38 42.51 404.73 33.41 408.61L46.95 416.38C44.88 364.45 42.69 312.53 42.15 260.56C39.95 263.447 37.7466 266.34 35.54 269.24L81.54 263.01C86.36 262.36 88.99 256.17 87.83 251.94C86.41 246.74 81.6 245 76.77 245.66L76.82 245.71Z" fill="black"/>
<path id="Vector_24" d="M112.63 920.86C97.3 917.97 81.3 918.86 66.72 924.66C63.22 926.06 58.48 927.5 55.77 930.2C52.56 933.41 52.77 939.05 52.19 943.27C51.0367 951.937 50.1067 960.603 49.4001 969.27C48.0104 986.316 47.4898 1003.42 47.8401 1020.52C48.0134 1028.91 48.3933 1037.29 48.98 1045.66C49.5 1053.09 48.68 1063.8 54.44 1069.44C60.69 1075.56 72.15 1072.88 79.91 1072.18C89.78 1071.29 99.61 1069.95 109.37 1068.25C114.11 1067.42 116.92 1061.49 115.66 1057.18C112.59 1046.71 102.47 1041.57 92.04 1041.66C80.91 1041.75 71.91 1049.95 61.04 1050.08L69.72 1061.47C75.46 1044.8 71.59 1027.47 68.72 1010.62C67.37 1002.77 66.15 994.62 67.13 986.62C68.22 977.74 72.88 970.24 77.51 962.8L60.74 958.26C60.7377 987.13 63.1124 1015.95 67.8401 1044.43L82.8401 1035.67C79.2666 1031.66 74.4159 1029 69.11 1028.16C70.9033 1032.57 72.6967 1036.97 74.49 1041.38C83.2701 1026.5 86.2974 1008.93 83 991.97C81.4 983.73 77.62 975.91 76.54 967.57C75.93 962.86 76.13 955.73 80.41 952.57L69.56 951.17C74.24 955.8 72.7 962.99 71.21 968.7C69.08 976.83 66.82 984.7 66.02 993.07C64.46 1009.59 68.02 1026.07 75.13 1040.97C78.27 1047.52 87.18 1046.07 90.67 1040.97C93.5987 1036.75 95.6712 1031.99 96.77 1026.97C97.77 1022.16 98.96 1014.84 96.33 1010.35C89.21 998.17 71.86 1011.58 79.54 1022.57C82.32 1026.57 87.42 1028.39 91.85 1025.8C95.79 1023.5 97.85 1017.49 95.08 1013.49C94.9 1013.23 94.72 1012.98 94.55 1012.72L95.78 1017.26C95.58 1017.92 95.37 1018.58 95.17 1019.26L89.79 1023.4L90.37 1023.16L83.43 1022.25L84.01 1022.68L79.55 1014.91C80.2208 1020.93 78.643 1026.98 75.12 1031.91H90.66C83.7318 1017.41 81.8487 1001.01 85.31 985.32C88.94 969.4 95.87 951.92 82.31 938.47C79.71 935.9 74.5901 934.74 71.4001 937.06C56.0201 948.28 57.02 966.85 62.02 983.33C64.56 991.7 66.8201 999.61 66.4001 1008.45C65.9213 1016.88 63.3877 1025.07 59.02 1032.3C56.37 1036.79 58.5201 1044.67 64.4001 1045.52C65.5106 1045.58 66.5972 1045.87 67.5929 1046.36C68.5887 1046.86 69.4725 1047.55 70.19 1048.4C72.85 1051.33 77.78 1051.75 81.1 1049.81C84.78 1047.66 85.89 1043.63 85.24 1039.65C80.8634 1012.75 78.7061 985.528 78.79 958.27C78.79 949.17 66.67 946.27 62.02 953.73C56.86 962.03 51.78 970.73 50.02 980.46C48.39 989.56 48.9 998.46 50.17 1007.59C52.43 1023.75 57.97 1040.59 52.43 1056.7C50.52 1062.24 55.55 1068.16 61.11 1068.09C70.71 1067.97 78.29 1063.32 87.19 1060.56C89.5496 1059.73 92.071 1059.47 94.55 1059.8C95.6863 1059.93 96.7774 1060.32 97.74 1060.94C98.2 1061.3 98.17 1061.25 98.38 1061.94L104.67 1050.87C98.03 1052.02 91.38 1052.99 84.67 1053.7C81.55 1054.03 78.4233 1054.31 75.29 1054.54C73 1054.71 67.84 1054.03 65.89 1055.11C63.89 1054.86 64.0334 1055.38 66.32 1056.65C68.06 1058.85 68.59 1058.72 67.91 1056.24C68.22 1054.86 67.61 1052.81 67.49 1051.42C67.2034 1047.88 66.95 1044.34 66.73 1040.8C66.3233 1034.04 66.05 1027.27 65.91 1020.49C65.3286 993.215 67.0009 965.939 70.91 938.94L66.77 944.32C79.4337 937.767 93.9178 935.614 107.94 938.2C112.71 939.1 117.65 936.87 119.01 931.91C120.22 927.53 117.53 921.75 112.73 920.85L112.63 920.86Z" fill="black"/>
<path id="Vector_25" d="M95.43 1061.41C98.9 1076.47 103.36 1091.13 101.89 1106.72C100.195 1122.89 100.706 1139.22 103.41 1155.26C106.01 1170.26 109.41 1186.13 114.71 1200.4C117.41 1207.63 122.8 1213.06 130.8 1213.63C136.94 1214.07 142.65 1210.63 148.7 1211.37C158.7 1212.62 160.96 1195.75 151.09 1193.69C137.09 1190.77 123.02 1188.08 108.88 1185.61L115.17 1191.9C108.998 1148.01 108.608 1103.5 114.01 1059.51H96.01C100.09 1100.34 104.2 1141.41 102.01 1182.51C101.6 1190.15 100.91 1198.34 105.44 1205C111.36 1213.69 121.58 1213.35 130.94 1212.85C140.56 1212.34 150.15 1211.39 159.7 1210.12C164.95 1209.42 170.19 1208.63 175.41 1207.71C177.42 1207.25 179.453 1206.89 181.5 1206.63C185.39 1206.36 182.31 1207.41 182.36 1204.86C182.13 1216.45 200.13 1216.45 200.36 1204.86C200.56 1194.47 191.15 1188.21 181.5 1188.63C172.35 1189.03 163.08 1191.76 153.97 1192.85C143.912 1194.12 133.795 1194.89 123.66 1195.14C121.22 1195.14 120.09 1195.73 119.84 1193.47C119.597 1189.8 119.651 1186.13 120 1182.47C122.21 1141.39 118.11 1100.32 114 1059.47C112.83 1047.82 97.38 1048 96 1059.47C90.5808 1105.09 91.1893 1151.22 97.81 1196.68C98.21 1199.46 101.37 1202.49 104.1 1202.97C118.207 1205.44 132.277 1208.13 146.31 1211.05C147.11 1205.16 147.907 1199.27 148.7 1193.37C145.556 1193.1 142.389 1193.35 139.33 1194.13C137.26 1194.57 134.87 1195.77 132.74 1195.67C131.74 1195.62 131.93 1195.67 132.39 1196.01C131.75 1195.51 131.55 1194.17 131.31 1193.47C130.16 1190 129.31 1186.4 128.31 1182.88C124.6 1169.35 120.99 1155.61 119.43 1141.64C118.642 1134.77 118.368 1127.86 118.61 1120.95C118.9 1113.65 120.23 1106.41 120.33 1099.11C120.53 1084.82 115.92 1070.43 112.74 1056.63C110.16 1045.36 92.8 1050.13 95.4 1061.43L95.43 1061.41Z" fill="black"/>
<path id="Vector_26" d="M99.56 1190.78C98.0861 1196.52 98.3496 1202.56 100.317 1208.14C102.284 1213.73 105.867 1218.6 110.61 1222.15C121.05 1229.8 136.49 1229.53 148.88 1230.06C176.59 1231.24 204.24 1228.06 231.61 1224.06C258.98 1220.06 286 1214.99 313.43 1212.18C327.192 1210.73 341.021 1210 354.86 1210C368.86 1210 382.86 1210.7 396.8 1209.51C410.74 1208.32 423.91 1204.86 437.16 1200.31C450.16 1195.86 462.8 1191.87 476.58 1191.13C491.01 1190.36 505.58 1190.94 519.99 1191.06C534.4 1191.18 548.6 1191.3 562.91 1191.43C621.137 1191.97 679.36 1192.67 737.58 1193.53C803.013 1194.49 868.44 1195.6 933.86 1196.87L924.86 1187.87C924.86 1187.44 925.39 1186.43 925.94 1186.48C925.33 1186.42 925.17 1186.99 924.49 1187.22C922.298 1187.84 920.008 1188.05 917.74 1187.83C911.57 1187.62 905.29 1185.83 898.96 1185.21C882.615 1183.66 866.129 1185.71 850.66 1191.21C839.82 1195.05 844.49 1212.45 855.45 1208.57C873.39 1202.22 890.82 1201.8 909.45 1204.88C923.18 1207.15 941.78 1205.24 942.9 1187.82C943.22 1182.9 938.52 1178.9 933.9 1178.82C821.23 1176.82 708.57 1174.87 595.9 1173.71C567.293 1173.42 538.68 1173.17 510.06 1172.94C496.37 1172.84 482.53 1172.21 468.89 1173.71C455.61 1175.17 443.27 1179.21 430.69 1183.51C418.11 1187.81 405.52 1191.04 392.12 1191.8C378.45 1192.58 364.77 1191.88 351.12 1191.96C324.5 1192.13 298.04 1195.64 271.77 1199.67C242.13 1204.22 212.57 1209.67 182.6 1211.54C167.659 1212.58 152.66 1212.51 137.73 1211.31C132.34 1210.85 124.87 1210.86 120.54 1207.07C118.951 1205.65 117.78 1203.83 117.154 1201.79C116.528 1199.75 116.471 1197.59 116.99 1195.52C119.75 1184.29 102.39 1179.52 99.63 1190.75L99.56 1190.78Z" fill="black"/>
<path id="Vector_27" d="M859.95 1188.11C850.09 1195.17 849.89 1206.11 849.56 1217.19C849.167 1230.25 848.78 1243.31 848.4 1256.38L852.86 1248.61C822.004 1263.18 788.114 1270.18 754.01 1269.01L762.69 1275.62C756.952 1249.71 754.267 1223.22 754.69 1196.69C754.82 1187.49 742.57 1184.8 737.92 1192.15C734.124 1198.07 732.339 1205.06 732.83 1212.08C733.18 1216.93 736.71 1221.08 741.83 1221.08C746.43 1221.08 751.18 1216.95 750.83 1212.08C750.415 1208.27 751.345 1204.43 753.46 1201.23L736.69 1196.69C736.317 1224.84 739.233 1252.94 745.38 1280.41C746.25 1284.34 750.24 1286.9 754.06 1287.02C791.345 1288.12 828.352 1280.28 861.99 1264.16C864.84 1262.8 866.36 1259.37 866.45 1256.39L867.38 1225.04C867.53 1220.04 867.57 1215.04 867.84 1209.98C867.91 1208.63 867.84 1204.56 869.09 1203.66C873.09 1200.83 874.93 1195.82 872.32 1191.35C870.03 1187.44 863.97 1185.27 859.99 1188.11H859.95Z" fill="black"/>
<path id="Vector_28" d="M698.18 1198.18C696.26 1214.95 694.343 1231.72 692.43 1248.5L701.43 1239.5L679.68 1241.36C673.16 1241.92 665.87 1243.5 659.36 1242.82L663.9 1244.05V1244.12L666.21 1248.12C665.55 1246.38 666.94 1241.2 667.21 1238.45C667.647 1233.8 667.774 1229.12 667.59 1224.45C667.218 1215.24 665.792 1206.11 663.34 1197.23C660.23 1185.88 644 1190.78 645.98 1202.02L647.87 1212.73C648.72 1217.52 654.57 1220.22 658.94 1219.02C663.99 1217.63 666.07 1212.75 665.23 1207.95L663.34 1197.24L645.98 1202.03C648.458 1210.85 649.7 1219.97 649.67 1229.13C649.656 1233.3 649.385 1237.47 648.86 1241.61C648.35 1245.53 647.54 1249.02 648.86 1252.9C652.31 1263 663.53 1260.77 671.86 1260.06L701.52 1257.52C706.8 1257.07 709.92 1253.73 710.52 1248.52C712.44 1231.75 714.357 1214.98 716.27 1198.2C716.82 1193.36 711.74 1189.2 707.27 1189.2C701.94 1189.2 698.82 1193.34 698.27 1198.2L698.18 1198.18Z" fill="black"/>
<path id="Vector_29" d="M411.08 1209.17C409.08 1214.97 409.22 1220.97 409.49 1227.02C409.77 1233.31 409.8 1239.61 409.49 1245.9C408.82 1258.31 406.87 1270.61 403.67 1282.62L414.74 1276.33C402.58 1273.19 390.93 1277.15 378.82 1278.42C366.257 1279.81 353.561 1279.4 341.11 1277.23C338.5 1276.76 335.89 1276.23 333.32 1275.58C334.44 1275.86 334.04 1278.21 334.14 1275.48C334.043 1274.17 333.846 1272.86 333.55 1271.58C332.72 1265.37 332.26 1259.09 332.04 1252.83C331.583 1239.96 332.397 1227.09 334.47 1214.38L321.25 1219.76C327.65 1224.53 324.92 1238.18 324.33 1244.76C323.068 1258.65 323.843 1272.66 326.63 1286.33C327.26 1289.44 330.06 1291.7 332.92 1292.62C351.637 1298.62 371.292 1301.16 390.92 1300.11C396.26 1299.82 399.26 1296.18 399.92 1291.11C400.329 1287.4 399.453 1283.67 397.44 1280.53L385.13 1292.84C388.862 1294.79 393.01 1295.81 397.22 1295.81C401.43 1295.81 405.578 1294.79 409.31 1292.84C410.678 1292.06 411.812 1290.93 412.596 1289.56C413.38 1288.2 413.785 1286.64 413.77 1285.07C413.337 1271.46 412.91 1257.86 412.49 1244.25C412.277 1237.58 412.07 1230.95 411.87 1224.34C411.77 1221.13 411.62 1217.91 411.57 1214.69C411.57 1213.69 411.13 1211.22 411.93 1210.36C419.78 1201.86 407.09 1189.1 399.2 1197.63C394.56 1202.63 393.47 1208.71 393.58 1215.37C393.72 1223 394.06 1230.64 394.3 1238.27C394.793 1253.87 395.28 1269.47 395.76 1285.07L400.22 1277.3C399.289 1277.77 398.262 1278.01 397.22 1278.01C396.178 1278.01 395.151 1277.77 394.22 1277.3C386.48 1273.5 377.04 1281.44 381.91 1289.61C382.57 1289.29 382.58 1289.79 381.91 1291.1L390.91 1282.1C372.886 1283.11 354.831 1280.79 337.65 1275.25L343.94 1281.54C340.94 1266.79 341.99 1252.67 342.83 1237.8C343.57 1224.8 341.26 1212.43 330.29 1204.25C325.9 1200.98 317.96 1204.25 317.07 1209.63C313.114 1231.92 312.833 1254.71 316.24 1277.09C317.24 1283.72 319.73 1289.45 326.31 1292.09C332.69 1294.7 340.22 1295.34 347.01 1296.15C354.143 1297 361.33 1297.32 368.51 1297.1C375.868 1296.84 383.198 1296.07 390.45 1294.8C396.89 1293.7 403.45 1292 409.91 1293.67C412.211 1294.27 414.654 1293.94 416.72 1292.77C418.787 1291.6 420.315 1289.66 420.98 1287.38C424.218 1275.02 426.303 1262.39 427.21 1249.64C427.63 1243.64 427.767 1237.66 427.62 1231.71C427.47 1225.77 426.39 1219.65 428.39 1213.93C432.22 1202.99 414.84 1198.28 411.04 1209.16L411.08 1209.17Z" fill="black"/>
<path id="Vector_30" d="M86.97 269.96C91.6288 243.453 91.7911 216.351 87.45 189.79C86.67 184.99 80.7 182.32 76.38 183.5C71.2 184.92 69.38 189.74 70.09 194.57C73.85 221.23 77.28 249.05 67.38 274.83L83.83 272.68C78.27 260.76 62.7 256.79 51.62 263.15L63.93 266.38L59.19 255.43C55.12 246.03 39.79 252.74 42.74 262.37C44.5344 268.443 48.476 273.657 53.83 277.04C63.53 283.43 72.56 267.85 62.91 261.5C61.4925 260.618 60.4795 259.213 60.09 257.59L43.64 264.51L48.38 275.51C50.32 280 56.88 280.93 60.69 278.74C63.85 276.93 66.85 278.74 68.28 281.81C71.89 289.56 82.28 286.11 84.73 279.66C95.8 250.84 91.63 219.57 87.44 189.83L70.08 194.62C73.8461 218.016 73.6838 241.877 69.6 265.22C68.76 270 70.88 274.92 75.89 276.29C80.24 277.47 86.12 274.81 86.97 269.99V269.96Z" fill="black"/>
<path id="Vector_31" d="M79.56 269.33L87.15 122.38C87.7767 110.133 88.41 97.8867 89.05 85.64C89.3567 79.68 89.6633 73.7233 89.97 67.77C90.23 62.83 90.15 57.69 91.34 52.85C93.34 44.65 99.98 41.94 107.76 40.75C118.2 39.16 129.17 39.62 139.7 39.26C237.96 35.87 336.23 31.84 434.56 30.98C489.74 30.5 544.94 31.1 600.08 33.54C611.66 34.05 611.64 16.05 600.08 15.54C498.41 11.05 396.6 12.85 294.92 16C244.5 17.57 194.08 19.38 143.66 21.12C132.29 21.51 120.74 21.36 109.42 22.54C99.74 23.54 89.96 25.85 82.63 32.69C74.63 40.13 72.92 50.9 72.31 61.25C71.57 73.67 71.02 86.11 70.38 98.54L61.56 269.31C60.96 280.91 78.96 280.87 79.56 269.31V269.33Z" fill="black"/>
<path id="Vector_32" d="M208.36 56.21L270.08 43.51C274.41 42.62 277.15 37.77 276.53 33.64C275.82 28.91 272.27 26.35 267.69 25.84C249.33 23.84 231.32 27.05 214.41 34.31L227.63 39.69C227.58 39.37 227.53 39.06 227.47 38.75V43.51C226.549 44.9372 225.227 46.0607 223.67 46.74L219.13 45.51L218.84 45.12C227.2 53.12 239.95 40.43 231.57 32.39C222.09 23.31 208.28 32.39 210.27 44.45C211.33 50.81 218.75 51.86 223.49 49.83C237.43 43.83 252.69 42.16 267.68 43.83C266.88 37.9366 266.083 32.0433 265.29 26.15L203.56 38.87C192.23 41.19 197.03 58.55 208.35 56.21H208.36Z" fill="black"/>
<path id="Vector_33" d="M958.73 1.34997C941.613 -0.495165 924.346 -0.444851 907.24 1.49998C898.85 2.49998 890.49 3.78998 882.24 5.58998C874.15 7.34998 866.18 9.58998 857.84 9.58998C849.5 9.58998 840.94 8.50998 832.49 8.17998C824.257 7.85998 816.02 7.89997 807.78 8.29997C790.502 9.17423 773.331 11.516 756.45 15.3C745.15 17.81 749.93 35.17 761.24 32.66C777.167 29.1029 793.376 26.958 809.68 26.25C817.913 25.8967 826.15 25.8967 834.39 26.25C842.85 26.63 851.39 27.85 859.82 27.54C876.47 26.94 892.58 21.04 909.14 19.27C925.625 17.5349 942.249 17.5551 958.73 19.33C963.57 19.84 967.73 14.83 967.73 10.33C967.73 5.04999 963.58 1.84999 958.73 1.32999V1.34997Z" fill="black"/>
<path id="Vector_34" d="M84.26 255.88L85.46 99.4399L85.76 59.84C85.82 52.58 84.76 41.62 90.27 35.84C92.99 32.98 97.17 33.2 100.81 33.46C107.26 33.92 113.7 35.18 120.11 35.98C132.777 37.56 145.467 38.7466 158.18 39.54C187.555 41.3519 217.022 41.0879 246.36 38.75C251.21 38.37 255.36 34.89 255.36 29.75C255.36 25.18 251.23 20.37 246.36 20.75C218.981 22.9312 191.488 23.3087 164.06 21.88C150.347 21.16 136.68 19.98 123.06 18.34C110.8 16.87 96.76 12.54 84.96 17.96C75.25 22.42 70.3799 32.37 68.8499 42.51C67.0099 54.71 67.74 67.31 67.65 79.6C67.4433 107.32 67.23 135.043 67.01 162.77L66.2899 255.84C66.1999 267.44 84.1999 267.45 84.2899 255.84L84.26 255.88Z" fill="black"/>
<path id="Vector_35" d="M951.86 1116.57C955.175 1126.91 957.352 1137.57 958.35 1148.38C958.79 1153.57 958.97 1158.79 958.89 1164C958.83 1167.71 959.62 1175.53 957.46 1178.38L960.69 1175.15C959.29 1176.15 956.37 1176.25 954.38 1176.56L943.79 1178.21L923.57 1181.36C911.91 1183.18 899.33 1183.82 890.33 1192.36C884.9 1197.51 888.84 1208.26 896.69 1207.72C914.41 1206.52 932.69 1206.48 950.24 1203.87C957.77 1202.75 964.99 1198.66 966.86 1190.76C968.68 1183.07 964.77 1175.03 956.94 1172.92C945.74 1169.92 940.94 1187.25 952.15 1190.28C949.72 1189.62 949.29 1185.17 950.01 1185.45C949.63 1185.3 947.54 1186.21 946.89 1186.3C941.46 1187.08 935.8 1187.08 930.33 1187.45L896.68 1189.73L903.04 1205.09C906.42 1201.88 911.62 1201.34 916.04 1200.62C922.7 1199.54 929.37 1198.54 936.04 1197.5L956.26 1194.35C962.4 1193.35 969.11 1193.05 972.98 1187.44C976.34 1182.57 976.32 1176.14 976.64 1170.44C976.998 1164.01 976.962 1157.56 976.53 1151.14C975.638 1137.78 973.174 1124.57 969.19 1111.79C965.77 1100.79 948.39 1105.48 951.86 1116.58V1116.57Z" fill="black"/>
<path id="Vector_36" d="M954.13 253.74C946.29 371.81 936.19 490 938.13 608.43C940.02 725.99 950.58 843.23 952.27 960.79C953.27 1026.87 951.27 1093.07 943.45 1158.79C942.88 1163.62 948 1167.79 952.45 1167.79C957.79 1167.79 960.87 1163.64 961.45 1158.79C975.32 1042.12 970.53 924.42 964.45 807.4C961.39 748.34 958.01 689.27 956.56 630.14C955.11 571.3 956.23 512.54 959.32 453.77C962.83 387.07 967.72 320.44 972.15 253.77C972.91 242.21 954.9 242.25 954.15 253.77L954.13 253.74Z" fill="black"/>
<path id="Vector_37" d="M942.78 29.27C955.49 36.81 958.09 54.63 961.48 67.69C964.39 78.89 981.75 74.14 978.84 62.9C974.09 44.59 969.36 24.11 951.84 13.73C941.84 7.79999 932.84 23.35 942.75 29.27H942.78Z" fill="black"/>
<path id="Vector_38" d="M774.79 1263.59C771.511 1260.41 767.125 1258.64 762.56 1258.64C757.995 1258.64 753.609 1260.41 750.33 1263.59C748.775 1265.14 747.837 1267.2 747.692 1269.38C747.548 1271.57 748.208 1273.74 749.547 1275.47C750.887 1277.21 752.814 1278.4 754.967 1278.81C757.12 1279.23 759.351 1278.84 761.24 1277.73C761.88 1277.37 762.55 1277.06 763.24 1276.73C762.56 1277.11 762.24 1277.05 763.16 1276.79C763.56 1276.68 765.92 1276.18 763.55 1276.57H764.23C763.818 1276.63 763.399 1276.59 763.005 1276.45C762.612 1276.32 762.257 1276.09 761.97 1275.79C761.328 1275.46 760.758 1275.01 760.293 1274.46C759.828 1273.91 759.477 1273.28 759.26 1272.59C759.18 1272.08 759.09 1271.59 759.01 1271.07C759.29 1269.5 759.34 1269.07 759.16 1269.78C758.87 1270.78 760.16 1267.78 759.44 1269.03C761.79 1265.2 766.72 1265.03 770.44 1267.93C768.44 1266.4 766.69 1265.29 764.08 1265.29C761.697 1265.31 759.414 1266.25 757.72 1267.93C754.72 1271.15 753.72 1277.58 757.72 1280.66C760.13 1282.53 762.34 1283.79 765.46 1283.84C768.326 1283.77 771.055 1282.6 773.08 1280.57C774.685 1278.95 775.856 1276.95 776.483 1274.75C777.111 1272.56 777.175 1270.24 776.67 1268.02C775.31 1262.46 770.44 1259.17 764.92 1258.66C760.41 1258.24 756.09 1260.05 752.22 1262.2L763.13 1276.34C763.85 1275.67 763.72 1275.75 762.75 1276.58C763.62 1276.12 763.46 1276.16 762.28 1276.71C762.672 1276.58 763.073 1276.48 763.48 1276.41C762.22 1276.56 761.94 1276.62 762.64 1276.61C763.34 1276.6 763.06 1276.61 761.8 1276.43C762.207 1276.5 762.608 1276.61 763 1276.74C761.82 1276.2 761.66 1276.16 762.52 1276.62C761.52 1275.8 761.42 1275.72 762.13 1276.39C765.49 1279.69 771.55 1279.99 774.86 1276.39C776.51 1274.68 777.433 1272.4 777.433 1270.02C777.433 1267.65 776.51 1265.37 774.86 1263.66L774.79 1263.59Z" fill="black"/>
<path id="Vector_39" d="M400.17 1226.23C403.43 1247.04 407.17 1270.39 398.43 1290.41L410.74 1287.18C403.82 1283.31 396.6 1282.91 388.9 1284.18C381.9 1285.37 375.22 1288.31 368.14 1288.88C359.86 1289.54 351.33 1288.32 343.08 1287.75L318.08 1286L327.08 1295C328.308 1279.53 328.468 1264 327.56 1248.51C327.09 1240.75 326.23 1233.05 325.32 1225.34C324.961 1222.99 324.81 1220.61 324.87 1218.23C324.87 1217.51 325.41 1216.23 325.25 1215.64C325.09 1215.05 325.25 1214.99 325.47 1215.07C325.03 1216.31 323.74 1216.56 321.6 1215.82L316.22 1211.68L316.63 1212.32L315.4 1207.78C315.4 1208.04 315.4 1208.3 315.4 1208.56L316.63 1204.02L316.28 1204.65L321.66 1200.51L321.01 1200.71C309.96 1204.07 314.67 1221.45 325.8 1218.07C327.198 1217.69 328.499 1217.01 329.618 1216.09C330.736 1215.17 331.648 1214.02 332.292 1212.72C332.936 1211.43 333.298 1210.01 333.355 1208.56C333.411 1207.11 333.161 1205.66 332.62 1204.32C330.41 1198.63 324.02 1196.78 318.62 1198.63C308.68 1202.02 306.21 1213.56 307.03 1222.81C308.03 1234.31 309.58 1245.68 310.03 1257.24C310.449 1269.85 310.161 1282.47 309.17 1295.05C308.77 1300.14 313.63 1303.73 318.17 1304.05C333.46 1305.12 348.99 1307.05 364.33 1307.05C371.69 1307.05 378.65 1305.36 385.7 1303.47C390.77 1302.11 396.77 1299.98 401.7 1302.74C405.57 1304.9 412.04 1304.05 414.01 1299.51C425.01 1274.36 421.68 1247.77 417.56 1221.45C416.81 1216.64 410.79 1213.98 406.49 1215.16C401.36 1216.56 399.49 1221.41 400.2 1226.23H400.17Z" fill="black"/>
<path id="Vector_40" d="M70.34 241.51L39.26 248.03C30.38 249.89 18.95 250.46 11.26 255.6C3.15 260.99 1.88001 270.23 0.960012 279.14C0.00532919 289.003 -0.215312 298.924 0.299977 308.82C2.07998 348 12.19 386.66 8.57 426.04C7.93 433.04 16.63 436.97 22.11 433.81C24.11 432.68 27.21 434.03 29.28 434.51C33.6252 435.504 38.0266 436.236 42.46 436.7C51.1365 437.499 59.8809 437.133 68.46 435.61C73.89 434.72 77.03 426.8 73.84 422.39C68.84 415.39 61.24 413.18 52.9 414.88C48.18 415.88 43.25 419.18 39.02 415.64C35.2 412.44 33.25 406.96 31.91 402.33C29.8668 394.696 28.3928 386.922 27.5 379.07C23.03 345.42 25.24 311.16 29.59 277.62H11.56C8.27999 310.39 5.40996 344.62 17.47 376.05C19.21 380.59 23.53 383.71 28.54 382.34C32.88 381.15 36.54 375.83 34.83 371.27C23.32 341.27 26.44 308.88 29.57 277.62C30.05 272.78 25.09 268.62 20.57 268.62C15.19 268.62 12.2 272.78 11.57 277.62C7 312.81 5.19001 348.34 10.08 383.62C12.08 398.08 14.23 413.91 23.74 425.62C25.8334 428.303 28.4441 430.539 31.4175 432.195C34.3909 433.851 37.6664 434.893 41.05 435.26C44.9865 435.47 48.9269 434.927 52.66 433.66C54.24 433.2 56.02 432.29 57.66 432.26C59.6 432.26 59.84 433.66 58.28 431.5C60.0666 427.093 61.86 422.687 63.66 418.28C55.0156 419.709 46.1867 419.601 37.58 417.96C29.1 416.3 21.07 413.63 12.97 418.3L26.56 425.99C29.89 389.74 21.56 353.99 18.86 318.06C18.1602 309.412 17.9099 300.734 18.11 292.06C18.24 287.42 18.51 282.77 19.05 278.16C19.34 275.64 19.27 271.81 21.59 270.32C24.37 268.53 29.28 268.43 32.42 267.78L46.02 264.93L75.16 258.82C86.47 256.44 81.68 239.08 70.36 241.46L70.34 241.51Z" fill="black"/>
<path id="Vector_41" d="M19.78 442.05C36.8714 440.469 54.0464 439.981 71.2 440.59L62.56 429.2L62.19 430.2L64.5 426.2L68.66 425.56C57.39 422.93 52.58 440.28 63.87 442.92C71.27 444.65 77.31 440.92 79.87 433.97C82.01 428.25 76.57 422.77 71.19 422.58C54.0364 421.971 36.8614 422.459 19.77 424.04C14.93 424.49 10.77 427.86 10.77 433.04C10.77 437.55 14.91 442.48 19.77 442.04L19.78 442.05Z" fill="black"/>
<path id="Vector_42" d="M92.28 914.68C77.28 916.99 60.96 920.15 47.28 926.75C39.74 930.38 38.21 937.33 38.2 945.03C38.2 953.3 38.2 961.57 38.3 969.84C38.54 1003.25 39.2067 1036.66 40.3 1070.05C40.3559 1072.42 41.3221 1074.68 42.9979 1076.35C44.6738 1078.03 46.9306 1078.99 49.3 1079.05C65.82 1080.12 82.3366 1081.3 98.85 1082.58C103.7 1082.96 107.85 1078.17 107.85 1073.58C107.85 1068.4 103.72 1064.96 98.85 1064.58C82.3433 1063.29 65.8267 1062.12 49.3 1061.05L58.3 1070.05C57.32 1039.96 56.6833 1009.87 56.39 979.76C56.3233 972.48 56.2733 965.203 56.24 957.93V947.01C56.24 946.72 56.5 941.75 56.24 941.67C55.98 941.59 55.32 942.5 55.43 942.73C55.43 942.67 73.43 936.97 75.1 936.55C82.3516 934.67 89.6945 933.161 97.1 932.03C101.91 931.29 104.57 925.26 103.39 920.96C101.97 915.83 97.13 913.96 92.3 914.68H92.28Z" fill="black"/>
</g>
</g>
<defs>
<clipPath id="clip0_1_2">
<rect width="990.84" height="1307.05" fill="white"/>
</clipPath>
</defs>
</svg>
