<svg id="Layer_1" data-name="Layer 1" xmlns="http://www.w3.org/2000/svg" viewBox="0 0 1492.31 1968.55"><g id="icon1"><path d="M1786.56,117.94c-3.76.3-17.92,1.51-31.62,2.86-19,1.81-50.91,2.41-134.5,3-60.39.3-110.4.9-111.15,1.5s-22.59,1.21-48.5,1.51c-86.9,1.2-156.78,3.46-176.51,5.87-36.75,4.37-72.29,6.93-118.23,8.29-25.3.75-67.32,2.1-93.38,3s-69.73,2-97.14,2.26c-43.08.45-55.12,1.2-90.37,5.27-22.29,2.41-46.69,5.87-54.22,7.68-56.78,12.8-80.72,15.06-145.34,14.16-42.92-.61-47.89-.91-73-5.27-26.36-4.52-27.71-4.67-48.2-3-33.43,2.56-47.89,4.52-51.51,6.93-10.24,6.63-11.89,26.36-3.31,37.35l3.31,4.22-1.8,116.12c-.91,64-1.66,125-1.66,135.85v19.58l-15.36.3c-14.16.3-15.52.6-19.13,4.22L471,493.41l-1.05,60.7c-.6,33.28-1.51,73.95-2,90.37-.75,23.49-.6,32.68,1.21,42.92a262.48,262.48,0,0,1,3.31,27.86c1.21,18.23,2.11,19,17.92,17.92,6.18-.3,12.8-.3,14.91.31l3.62.9.9,30.42c.6,16.87,2.41,52.87,4.07,80.28,1.65,27.26,3,58.13,3,68.53a284.84,284.84,0,0,0,2.26,33.88c9,59.34,12.2,118.38,9.94,189.77-1.66,52.87.3,181.19,3.61,249,1.21,25.15,2.26,59.19,2.26,75.76v30l-7.83-.9c-6.93-.76-8.43-.46-11,2.4-2.86,3.17-2.86,5.43-2.71,53.17.3,46.54,2.71,91,6.47,117.78.76,5.72,1.36,14.76,1.51,19.73,0,7.08.75,10.24,3.16,13.25,3,3.77,3.47,3.92,13.26,3l10.24-1.05,1.8,24.7c3.32,45.18,11.75,93.83,20,117,4.51,12.5,4.66,14,4.36,33.44l-.45,20.33-5.12,4.67c-4.07,3.77-5.12,5.87-5.12,10.24,0,8.59,3.46,13.71,12.35,18.07,13.86,6.78,20.33,7.23,83.29,6.63,32.38-.15,83.89-.45,114.46-.45,52,0,57.23.3,77.41,3.61l21.69,3.62-.9,33.89c-.91,37.05-.15,42.17,7.23,53.31,4.52,6.93,19,14.31,38.25,19.58,10.39,2.86,12.35,2.86,24.85,1.21,7.53-1.06,24.25-2.11,37-2.26,31.18-.45,42.63-4.67,50.76-18.53,3.92-6.62,4.07-7.83,3.76-24.7-.45-22.59-3.91-47.59-7.83-56.48-1.65-3.76-2.71-7.23-2.41-7.53.45-.45,8.44-1.65,17.78-2.71,38.1-4.52,71.84-8.28,82.53-9,6.17-.61,21.84-2.26,34.64-3.77s34.49-3.92,48.2-5.27,33-3.47,42.92-4.82c20.18-2.86,66-3.46,97.59-1.36l19.43,1.21-.9,4.06c-.45,2.11-1.36,13.11-1.81,24.25-.9,16.87-.6,21.24,1.36,24.85,6,11.6,17.47,17.32,34.79,17.32a81.8,81.8,0,0,1,16,1.51c2.86.9,10.85,2,17.62,2.41,11.6,1.05,12.35.9,16-2.71,4.67-4.67,9.34-24.1,8-32.53-.6-3-1.35-10.09-1.81-15.82-.75-7.68-1.65-10.54-3.61-11.59-3-1.66-3.46-.91-5.12,9.33a69.72,69.72,0,0,1-4.22,12.81,58.55,58.55,0,0,0-4.06,15.51l-.91,8.28-8.13-.3c-9.49-.45-36.9-5.87-42.32-8.58-3.62-1.66-3.77-2.41-3.77-13.71,0-6.63.45-17,.76-23.19l.75-11.15,24.7,1.06c13.55.45,39.61.9,57.83.9h33.14l-1.06,23.8c-1.65,38.1,1.51,55.87,11.3,61.9,1.81,1,9.19,4.06,16.26,6.62,15.52,5.58,26.51,6,64.92,2.71,18.67-1.65,29.82-1.8,45.18-.75,12,.91,23,.91,26.81.15,12.5-2.56,19.88-14.46,19.88-32.08a137.71,137.71,0,0,1,2.41-20c3-15.66,2.11-24.1-3.92-35.54l-4.36-8.29h4.06c9.49,0,34-4.67,51.51-9.94l18.83-5.42,30.57.15c17.77,0,31.63.75,33.29,1.66,5.42,2.86,10.39,1.81,12.8-2.71,3.16-6.18,3.76-12.8,6.17-70.79,1.66-38.4,1.81-57.38.76-67.92-1.66-15.37,1.2-72.45,4.66-93.53,1.66-10.55,2.56-131.34,1.51-202.57-.75-49.71,1.81-132.24,5.12-164.17,1.21-12.5,3-45.33,3.92-73s2.11-58,2.71-67A395.71,395.71,0,0,0,1854,1120c-.6-12.8-1.81-35.54-2.71-50.45s-2.11-54.22-3-87.36c-.75-33.13-2.1-72.74-2.86-88.1a442.2,442.2,0,0,1,0-48.95c.76-11.6,2.11-68.23,2.86-125.76.91-57.53,1.81-108.44,2.26-113,3.17-36,4.07-61.6,4.52-127.26.15-41.42,1.21-92.33,2.41-113,1.06-20.79,2-65.52,2.11-99.41s1.05-73.64,1.81-88.1c1.35-24.4,1.2-27-1.51-34.19-3.16-8.59-1.81-8-16.11-5.72-4.07.6-4.52.3-4.52-3.17,0-2.56-2-6-5.57-9.64C1825.72,118.09,1813.07,116,1786.56,117.94ZM1837,163.58c2.11,2.41,2,3.61-2.11,13.85-5.87,14.61-13.25,49.7-15.36,72.6-1.51,17.47-4.52,173.65-5.12,276.52-.15,27-.91,92.32-1.51,145.34-1.2,94.73,0,149.25,3.77,180.73,1.35,10.84,1,13.7-2.11,26.66-5.73,22-8.29,42.77-9.34,73.49-.9,23.5-.45,31.63,2.26,52.72,1.66,13.7,3.76,37.8,4.52,53.61s1.8,29.68,2.26,30.88c2.11,6.18,5.57,59.79,6.17,95.49.6,40.51.6,40.66-4.52,70.78-2.86,16.57-5.87,38-6.77,47.45-5.43,55.72-5.73,63.25-4.82,167.93.6,95.33.45,105.72-2.11,126.51-3.32,27.41-3.92,73.5-.91,78.77,1.51,2.56,2,16.26,1.81,59.49,0,37.95.6,62,2.11,74.85,1.36,11.9,1.66,21.84.9,27.11a165.31,165.31,0,0,0-1.35,21.39l-.15,13.25h-16.87c-16.42,0-27,.76-67.62,5-12.2,1.36-23.2,1.51-30.88.76-59.49-6-62-6-185.85-7.23-68.38-.61-141.12-1.66-161.91-2.26-56.33-1.66-92.62.9-174,12.8-17,2.41-39.31,5.12-49.7,6s-26.66,2.56-36.15,3.77c-48,5.87-143.53,6.78-182.24,1.66-10.39-1.36-28.62-4.52-40.66-6.93-38-7.68-89-9.64-136.46-5.42-13.1,1.2-30.72,2.56-39,3.16a195.48,195.48,0,0,0-21.83,2.41c-3.77.9-14.61,2.11-24.1,2.86s-22.89,1.81-29.67,2.41l-12.35,1-1.06-4.06a7.52,7.52,0,0,1,.91-6.18c2.56-3.16,2.11-57.38-.76-82.08-3.91-34.64-6.62-65.37-8.28-94.13-3-54.67-6.17-101.21-9.79-148.2-2.41-29.82-3.76-60-3.91-81.33,0-18.68-.91-59.79-1.81-91.27-1.21-36-1.36-75.61-.75-106.93,2.4-104.08,2.1-193.54-.76-224.41-1.5-15.82-3-29.67-3.31-30.88s-1.36-11.75-2.26-23.34-2.71-28.17-4.07-36.9c-1.2-8.74-2.86-28-3.46-42.93s-2.26-38.25-3.62-52c-5-52.41-5.42-61.3-6.92-121.24-1.51-62.35-3.62-108.74-5.88-137.81-.75-8.73-1.8-58.58-2.41-110.7-2.11-212-3.91-267-9.18-300.16-.76-4.82-.46-6,1.8-6.93,4.82-1.81,49.1-3.61,57.84-2.26,4.52.6,18.52,3.31,30.87,6l22.59,5h61.75c67-.15,81.79-1.21,118.84-8.14,35.84-6.77,86.75-10.84,135.7-10.69,22.44,0,66.11-.9,97.14-2.11s82.53-2.86,114.46-3.76c82.09-2.26,130.73-4.22,133.89-5.28,2.72-.75,37.66-1.95,165.83-5.27,52.56-1.35,71.24-2.11,132.53-6,58.44-3.62,93.83-4.67,116.43-3.16,31.47,2.1,107.08-1.51,110.84-5.13.46-.45,2,1.66,3.47,4.67A42.94,42.94,0,0,0,1837,163.58Zm-185,1759.88c-3.31,6.32-3.62,11-2.41,39.46.45,8,0,12.95-1.21,14.16-4.51,4.51-55.57,9.94-88.55,9.33-19.43-.45-34-4.36-35.55-9.64-1.35-5-1.5-24.55-.3-44l.9-16.12,65.22.45,65.06.3ZM940.89,1943c3.31.3,20.93,0,39.16-.76s33.28-1,33.58-.75-.9,4.52-2.56,9.49c-2.56,7.23-3.31,14.31-3.91,36-.61,22.29-1.21,27.11-3.17,28.61-1.35.91-6.92,2.11-12.35,2.71s-15.81,1.81-22.89,3c-30.27,5-40.51,5.27-54.67,1.05-5.87-1.81-13.56-3.92-17-4.82-8.89-2.11-9.79-5.27-11.3-36.9-.6-14.91-1.65-29.37-2.1-32.08s-.46-5.57,0-6.33C884.56,1940.93,925.22,1941.38,940.89,1943Z" transform="translate(-389.34 -103.42)"/><path d="M1786.56,169.9c-6.47,4.52-11,13.26-11.74,23.2-1.21,14.45,6.77,20.18,19.88,14.45,11.59-5.12,21.53-22.89,17.32-30.72-2.26-4.22-4.52-5.87-6.93-5.12-.9.45-2.86-.6-4.37-2.26C1797.26,165.69,1792.59,165.84,1786.56,169.9Zm11.6,15.52c.3.15-2.41,2.86-5.72,6.17l-6.33,5.87,1.06-4.51a31.93,31.93,0,0,1,3.31-8c2-3,2.71-3.16,4.82-1.5A19.44,19.44,0,0,0,1798.16,185.42Z" transform="translate(-389.34 -103.42)"/><path d="M562.56,203.49c-7.54,5.27-12.66,20.18-9.64,28.16,5.12,13.56,34.79,4.22,34.79-10.84,0-5.12-4.67-10.54-9-10.54-3.61,0-3.76,1.2-.9,4.36,1.8,2.11,1.8,3.17.15,7.23-4.37,10.24-17.32,12.8-17.32,3.32,0-7.68,3.91-13.41,9.18-13.41,5,0,7.23-3.46,4.82-7.38C572.5,201.08,566.62,200.63,562.56,203.49Z" transform="translate(-389.34 -103.42)"/><path d="M924,275.53c-5.89,9.13-14.87,39.63-14.56,49.79.93,28,7.12,114.16,9.91,135.51,1.55,12.52,4.34,34.47,6.19,48.61s5.58,36.68,8.37,50.09c4.95,24.45,5.88,88.38,2.47,206.22a535.47,535.47,0,0,0,3.72,78.8c3.71,28.14,5.26,70.12,5.88,176.76.93,150.25.93,151.13,10.53,205.49,3.41,19.88,7.75,55.68,9.29,79.54s5.27,62.6,7.75,86.17c2.78,23.42,6.19,61.28,7.74,84,1.86,22.69,4.34,51.12,6.19,63.34,1.55,12.08,3.72,65.55,4.65,118.58,1.55,65.4,3.4,103.26,6.5,117.69,2.17,11.64,5,21.51,5.89,22s3.09.15,4.64-.59c8.36-4,9.6-20.47,9.6-114,0-96.33-2.79-157.61-11.46-275.45-2.48-34.47-5.88-81.16-7.43-103.85-2.79-40.36-5-55.82-13.94-100-7.74-37.57-11.15-102.23-10.53-207.11C976,916,975,889.63,971,863s-5-57-5.27-154.67c0-69.67-1.24-129.62-3.09-140.67-1.86-10.6-4.65-30.79-6.2-44.93s-4.33-35.35-6.19-47.13c-7.43-49.64-9.6-65.55-12.39-92.8-1.55-15.76-4.33-36.83-6.19-46.7-1.86-11-2.17-23.57-.62-32.4,2.79-15.91,1.55-29.91-2.79-29.91A7.14,7.14,0,0,0,924,275.53Z" transform="translate(-389.34 -103.42)"/><path d="M1331.12,414.19c-.45,2.11-4.82,11.15-9.79,20-4.82,9-9.64,19.13-10.69,22.29-.91,3.32-4.52,12.65-8,20.79-5.72,13.7-6.92,15.36-15.36,22-5,3.91-11.9,8.88-15.51,11.14s-11.15,8.59-17,13.86c-11.3,10.39-20.18,14.31-32.23,14.31h-6.18l2-16.27c1.06-8.89,2.26-26.66,2.86-39.46.76-20.78.61-23.95-2-28.46-1.51-2.87-3.92-5.88-5.43-6.78-4.06-2.56-10.24,1.8-14.61,10.39-3.76,7.53-3.76,7.83-3.46,44.73l.3,37.35h-6.32c-11.9,0-31.93-3.16-38.41-6-11-5-21.08-13.11-45.94-37.65-18.67-18.23-25.75-26.21-32.23-36.9-11.44-18.38-24.24-35.1-27.71-36.15-4.52-1.51-8.43.45-10.39,5.42-1.81,4.07-1.36,5.72,5,19.13,3.76,8,8.58,19,10.84,24.4,6.48,15.51,18.53,38.25,24.4,46.23,15.36,20.19,41,44.89,55.88,53.62,11.14,6.48,19.58,8.29,59.64,13.11,40.36,4.81,46.69,4.66,62-1.21,13.71-5.12,23.5-13.1,49.85-40.81L1328.56,516l3.91-12.35c4.22-14,6-26.35,8.44-59.49,1.66-21.53,1.5-23.19-1.21-27.86C1336.09,410.13,1332.47,409.22,1331.12,414.19Z" transform="translate(-389.34 -103.42)"/><path d="M1222.53,661.34c-73,9-113.11,16.87-131,25.91-9.49,4.82-27.86,23.34-37.8,38.25-4.22,6.33-10.85,16-14.61,21.24-6.93,9.79-11.6,22.59-11.6,32.08a129.56,129.56,0,0,1-2.41,16.87c-1.66,7.83-2.11,14.76-1.51,19.28,2.56,16.86,23.95,48.64,47.45,70.48,10.24,9.34,24.85,17.17,41.56,21.84,5.88,1.66,19.73,5.72,30.88,9.19,26.66,8.13,40.06,9.49,76.06,7.68,69-3.62,100.45-6.93,110.24-11.45a16.27,16.27,0,0,0,6.63-6.93c2.71-6.62.3-11.89-6.93-15.51-5.42-2.71-8.13-3-28.61-2.26-30.28,1.06-66,.6-102.42-1.2-33.28-1.66-35.09-2-67.77-15.52-25.46-10.54-27.26-11.59-36.15-20.93-31-32.53-34.49-38-32.38-49.7.6-3.77,1.66-12,2.26-18.38.9-9.94,1.66-12.5,5.57-17.32,2.56-3.16,7.68-10.54,11.45-16.26,13.1-20,28.16-33.59,44-39.16,12-4.37,83.73-17.17,117.47-21.09,27.11-3,39.31-2.86,53.47.76,23.19,5.87,49,3.16,58.89-6.18,5-4.52,4.52-8-1.36-12.5-7.38-5.72-11.9-6.93-37.95-10.84C1285,655,1272.38,655.32,1222.53,661.34Z" transform="translate(-389.34 -103.42)"/><path d="M1171.62,1006.24c-16.87,2.71-63.4,18.38-77,25.91-18.83,10.39-36.3,29.52-40.81,44.58-2.87,9.33-7.08,46.38-6,51.2.45,1.81,1.06,16.87,1.36,33.44.45,28.16.75,31.33,5.27,48.19,6.78,25.46,18.67,49.1,31.78,62.51,9,9.34,11.9,11.14,39.46,24.55,16.26,8,33.28,15.51,37.65,16.87s21.08,3.61,37.2,5.27c25.9,2.41,31,2.41,46.54.6,14.76-1.66,19.13-2.86,29.52-7.83,6.78-3.32,15.21-8.59,18.82-11.75,11.15-9.64,24.86-26.81,31.93-39.91a237.93,237.93,0,0,1,15.37-24.55c11.14-15.36,21.53-35.85,24.39-48,1.21-5.12,2.72-18.52,3.17-29.67,1.35-26.35-.3-32.68-16.42-64.46-14.31-28.31-27.56-47.14-38.25-53.92-3.92-2.56-12-7.83-18.08-11.74-11.9-7.68-19.58-10.7-44.73-17.32-14.31-3.77-20.33-4.52-42.32-5.27C1192.11,1004.28,1181.11,1004.73,1171.62,1006.24Zm56.93,42.77c32.38,8.14,53,18.38,65.07,32.54,2.86,3.31,10.54,16.71,17.17,29.67l11.89,23.64v22.44c0,26.36-2.25,36.3-11.89,51.06-3.32,5.12-10.4,17.92-15.82,28.47-10.69,21.23-20.33,34.33-29.52,41.11-3.31,2.41-11.59,5.88-18.37,7.68-11.15,3-14.61,3.32-32.83,2.41-36.9-1.8-46.39-4.21-79.53-20.93-19.12-9.64-26.65-15.67-28-22.74-.6-2.72-3.77-9.34-7.23-14.61-9.19-14.31-12.8-23.2-16.27-39.76-5.27-24.86-3.76-51.66,3.17-61,5.87-7.83,9.79-16,13.55-29.22,3.17-10.84,4.22-12.65,14.31-22.74,14.31-14.46,21.84-19.43,40.21-26.51l15.37-6,23.34.75C1209.58,1045.7,1220.12,1046.91,1228.55,1049Z" transform="translate(-389.34 -103.42)"/><path d="M1209.73,1098.87c-12.8,1.65-30.73,3.61-39.61,4.36-21.24,1.81-28.32,5.12-35.4,16.72-7.23,12.2-8.58,18.23-8.58,39.16,0,18.83,0,18.83,5.72,30.42,9.79,19.58,19,25.46,47.14,29.82,16.42,2.41,24,2.72,54.67,2,19.58-.45,36.45-1.5,37.51-2.41a7.43,7.43,0,0,0,1.8-4.82c0-5.27-2.71-6.32-18.82-7.23-28.32-1.35-57.23-4.21-66.72-6.62-17.32-4.22-30-13.71-34.94-25.76-2.11-5.42-1.21-24.7,1.65-35.39,2.71-10.24,5.27-11.6,22.89-11.6,45.34-.15,82.09-5.27,94.29-13.25,6.77-4.37,9.18-8.89,6-11C1267,1096.61,1241.36,1095,1209.73,1098.87Z" transform="translate(-389.34 -103.42)"/><path d="M1218.76,1357.92c-29.67,2.1-67,6.17-71.69,7.68-6.77,2.11-9.94,6.17-9.33,12.2.3,4.21,1.5,5.57,7.22,8.43,6.63,3.46,7.54,3.46,28.62,2.41,12.05-.75,36.15-1.36,53.47-1.36,21.08-.15,33.88-.75,38.25-2.1,6.48-1.81,16.72-10.09,16.72-13.41s-7.68-10.39-13.1-11.9C1260.78,1357.46,1237.29,1356.56,1218.76,1357.92Z" transform="translate(-389.34 -103.42)"/><path d="M1763.67,1806.73c-4.22,4.07-5.72,8.74-5.72,17.32,0,19.13,12.8,29.07,23,17.78,1.36-1.66,3.77-8.14,5.12-14.46l2.41-11.3-4.82-6.17c-4.52-5.73-5.42-6.18-11.29-5.88C1768.94,1804.32,1765,1805.53,1763.67,1806.73Zm7.08,13.56c1.36,2.26-.9,15.21-2.41,14.16-1.81-1.06-1.81-15.67,0-15.67A3.25,3.25,0,0,1,1770.75,1820.29Z" transform="translate(-389.34 -103.42)"/><path d="M613.46,1843c-6.93,7.38-5.27,25,2.86,33.29,7.83,7.83,16.57,4.37,19.73-7.83,2.71-10.1.91-16.87-6.17-23.2C623,1839.12,617.83,1838.36,613.46,1843Zm12.5,11.45c-1.5,11.29-3.46,13-3.61,3.31,0-4.67.45-8.88,1-9.34C626,1845.74,627,1848,626,1854.48Z" transform="translate(-389.34 -103.42)"/><path d="M814.62,266.32c-5.89,9.28-14.87,40.27-14.56,50.6.93,28.45,7.13,116,9.91,137.75,1.55,12.73,4.34,35,6.2,49.41s5.57,37.28,8.36,50.91c5,24.85,5.88,89.83,2.48,209.61a553.43,553.43,0,0,0,3.71,80.11c3.72,28.59,5.27,71.26,5.89,179.67.92,152.71.92,153.61,10.52,208.86,3.41,20.22,7.75,56.6,9.3,80.85s5.26,63.64,7.74,87.59c2.79,23.81,6.19,62.29,7.74,85.35,1.86,23,4.34,52,6.19,64.38,1.55,12.28,3.72,66.62,4.65,120.53,1.55,66.47,3.41,105,6.5,119.63,2.17,11.83,5,21.86,5.89,22.3s3.09.15,4.64-.59c8.36-4,9.6-20.82,9.6-115.89,0-97.92-2.79-160.21-11.46-280-2.47-35-5.88-82.5-7.43-105.55-2.79-41-5-56.75-13.93-101.67C868.81,1172,865.41,1106.27,866,999.67c.62-82.35-.31-109.15-4.34-136.25s-5-57.94-5.27-157.21c0-70.82-1.23-131.76-3.09-143-1.86-10.78-4.65-31.29-6.2-45.67s-4.33-35.93-6.19-47.91c-7.43-50.45-9.6-66.62-12.39-94.32-1.54-16-4.33-37.44-6.19-47.47-1.86-11.23-2.17-24-.62-32.94,2.79-16.17,1.55-30.39-2.79-30.39A7.07,7.07,0,0,0,814.62,266.32Z" transform="translate(-389.34 -103.42)"/><path d="M593.93,277.14c-5.88,9.15-14.86,39.71-14.55,49.9.93,28,7.12,114.41,9.91,135.81,1.55,12.55,4.34,34.55,6.19,48.72s5.58,36.76,8.37,50.2c4.95,24.5,5.88,88.57,2.47,206.68a538,538,0,0,0,3.72,79c3.71,28.2,5.26,70.27,5.88,177.15.93,150.59.93,151.47,10.53,206,3.41,19.93,7.74,55.8,9.29,79.72s5.27,62.74,7.75,86.36c2.78,23.47,6.19,61.41,7.74,84.15,1.86,22.73,4.33,51.22,6.19,63.48,1.55,12.1,3.72,65.69,4.65,118.84,1.54,65.55,3.4,103.49,6.5,118,2.17,11.66,4.95,21.55,5.88,22s3.1.15,4.65-.59c8.36-4,9.6-20.52,9.6-114.26,0-96.55-2.79-158-11.46-276.07-2.48-34.54-5.88-81.34-7.43-104.08-2.79-40.45-5-56-13.94-100.24-7.74-37.64-11.15-102.45-10.53-207.56C646,919,645,892.6,641,865.88s-5-57.13-5.27-155c0-69.83-1.24-129.91-3.1-141-1.85-10.63-4.64-30.86-6.19-45s-4.33-35.43-6.19-47.24c-7.43-49.75-9.6-65.7-12.39-93-1.55-15.8-4.34-36.91-6.19-46.8-1.86-11.07-2.17-23.62-.62-32.48,2.79-15.94,1.55-30-2.79-30A7.18,7.18,0,0,0,593.93,277.14Z" transform="translate(-389.34 -103.42)"/><path d="M1570,283.91c-6.49,8.92-17.5,39.38-17.87,49.75-1,28.56-.56,116.73.78,138.66.71,12.85,2,35.39,2.92,49.91s3.09,37.72,5,51.55c3.3,25.23-.07,90.4-11.39,210.18a557.68,557.68,0,0,0-1.58,80.5c1.82,28.9.54,71.75-6,180.4-9.16,153.07-9.22,154-3.29,210,2.06,20.47,4,57.21,3.92,81.61s1,64.11,1.94,88.27c1.21,24,2.06,62.81,2.08,86,.33,23.23.9,52.34,1.93,64.92.73,12.4-.7,67-3.33,121.06-2.85,66.71-3.54,105.38-1.42,120.29,1.38,12,3.5,22.22,4.4,22.73s3.08.36,4.67-.29c8.61-3.5,11-20.22,17.24-115.47,6.47-98.11,7.81-160.7,7.07-281.28-.15-35.26-.42-83-.44-106.24-.07-41.29-1.19-57.18-7.18-102.78-5.21-38.76-4.26-104.84,3.4-211.6,6.06-82.47,6.91-109.38,4.68-136.8s-1.11-58.38,5.14-157.85c4.68-71,7.47-132.09,6.36-143.47-1.14-10.92-2.57-31.65-3.16-46.16s-2-36.28-3-48.41c-4.08-51-5.17-67.38-6.12-95.32-.49-16.15-1.86-37.79-3-48-1.11-11.37-.58-24.14,1.56-33,3.85-16,3.56-30.35-.77-30.64A7.1,7.1,0,0,0,1570,283.91Z" transform="translate(-389.34 -103.42)"/><path d="M1663.69,264.57c-6.48,8.92-17.45,39.38-17.82,49.74-.92,28.55-.42,116.67,1,138.59.72,12.85,2,35.37,3,49.88s3.14,37.7,5,51.53c3.33,25.21,0,90.34-11.15,210.08a559.46,559.46,0,0,0-1.49,80.46c1.85,28.88.63,71.71-5.8,180.31-9,153-9.05,153.9-3.05,209.85,2.08,20.47,4.05,57.18,4,81.58s1.12,64.06,2,88.21c1.24,24,2.14,62.78,2.19,86,.35,23.21,1,52.31,2,64.88.75,12.39-.62,67-3.19,121-2.78,66.68-3.42,105.33-1.28,120.23,1.39,12,3.52,22.21,4.42,22.72s3.08.35,4.67-.3c8.61-3.51,10.93-20.22,17.11-115.43,6.36-98.07,7.62-160.62,6.75-281.14-.2-35.25-.51-83-.56-106.19-.12-41.26-1.26-57.15-7.31-102.71-5.24-38.74-4.37-104.79,3.17-211.51,6-82.42,6.78-109.32,4.52-136.72s-1.18-58.35,5-157.78c4.6-70.93,7.32-132,6.19-143.4-1.15-10.92-2.6-31.64-3.21-46.13s-2-36.27-3.07-48.39c-4.14-51-5.25-67.34-6.24-95.26-.5-16.15-1.89-37.77-3.09-47.94-1.13-11.36-.61-24.13,1.52-33,3.83-16,3.52-30.34-.81-30.62A7,7,0,0,0,1663.69,264.57Z" transform="translate(-389.34 -103.42)"/><path d="M1730.23,255.43c-6.39,8.81-17.07,38.82-17.33,49-.64,28.06.71,114.64,2.3,136.18.84,12.61,2.4,34.73,3.46,49s3.51,37,5.54,50.59c3.57,24.75.92,88.78-9.09,206.52a537.21,537.21,0,0,0-.71,79.07c2.13,28.37,1.32,70.47-4,177.23-7.5,150.41-7.55,151.3-1,206.23,2.29,20.09,4.61,56.16,4.81,80.12s1.75,63,2.9,86.67c1.47,23.6,2.75,61.68,3,84.46.59,22.81,1.47,51.4,2.64,63.74.87,12.17,0,65.81-2,118.93-2.13,65.54-2.39,103.53-.11,118.15,1.51,11.76,3.74,21.8,4.64,22.29s3.09.32,4.67-.33c8.58-3.51,10.74-20,16-113.56,5.4-96.41,6.06-157.89,4-276.31-.54-34.63-1.33-81.55-1.6-104.34-.52-40.55-1.82-56.15-8.31-100.88-5.62-38-5.4-102.93,1.1-207.85,5.17-81,5.72-107.48,3.19-134.39s-1.75-57.33,3.42-155.08c3.91-69.73,6-129.79,4.79-141-1.26-10.72-2.91-31.07-3.66-45.31s-2.35-35.62-3.54-47.52c-4.64-50.1-5.91-66.14-7.17-93.57-.66-15.86-2.26-37.09-3.56-47.07-1.24-11.16-.84-23.71,1.2-32.47,3.67-15.76,3.22-29.84-1.11-30.08A7.12,7.12,0,0,0,1730.23,255.43Z" transform="translate(-389.34 -103.42)"/><path d="M703.26,325c-5.88,9-14.86,38.87-14.55,48.84.93,27.46,7.12,112,9.91,132.94,1.55,12.29,4.33,33.82,6.19,47.69s5.58,36,8.36,49.13c5,24,5.89,86.7,2.48,202.3a515.48,515.48,0,0,0,3.72,77.31c3.71,27.6,5.26,68.78,5.88,173.4.93,147.4.93,148.26,10.53,201.58,3.41,19.51,7.74,54.63,9.29,78s5.27,61.41,7.74,84.53c2.79,23,6.2,60.11,7.75,82.36,1.86,22.26,4.33,50.15,6.19,62.14,1.55,11.85,3.72,64.3,4.64,116.32,1.55,64.16,3.41,101.3,6.51,115.46,2.17,11.42,5,21.1,5.88,21.53s3.1.15,4.65-.58c8.36-3.9,9.6-20.08,9.6-111.84,0-94.51-2.79-154.62-11.46-270.22-2.48-33.81-5.89-79.62-7.43-101.87-2.79-39.6-5-54.77-13.94-98.12-7.74-36.85-11.15-100.28-10.53-203.17.62-79.47-.31-105.34-4.34-131.49s-5-55.93-5.26-151.73c0-68.35-1.24-127.16-3.1-138-1.86-10.4-4.64-30.2-6.19-44.07s-4.34-34.68-6.19-46.24c-7.44-48.7-9.6-64.31-12.39-91-1.55-15.46-4.34-36.13-6.19-45.81-1.86-10.83-2.17-23.12-.62-31.79,2.78-15.6,1.55-29.33-2.79-29.33A7.26,7.26,0,0,0,703.26,325Z" transform="translate(-389.34 -103.42)"/><path d="M1466.55,272.87c-6.41,9-17.14,39.63-17.41,50-.69,28.63.51,117,2,139,.83,12.87,2.34,35.45,3.38,50s3.44,37.78,5.45,51.63c3.53,25.25.77,90.6-9.45,210.76a561.85,561.85,0,0,0-.85,80.7c2.09,28.95,1.21,71.91-4.34,180.87-7.76,153.51-7.81,154.41-1.37,210.46,2.25,20.51,4.51,57.31,4.68,81.77s1.64,64.24,2.75,88.45c1.43,24.08,2.64,62.94,2.87,86.19.54,23.27,1.37,52.45,2.52,65,.85,12.43-.08,67.16-2.22,121.37-2.23,66.89-2.57,105.66-.31,120.58,1.49,12,3.71,22.24,4.61,22.75s3.08.32,4.67-.34c8.58-3.59,10.77-20.37,16.18-115.9,5.57-98.4,6.33-161.14,4.48-282-.48-35.35-1.18-83.23-1.41-106.49-.45-41.38-1.72-57.3-8.13-102.94-5.56-38.8-5.22-105,1.46-212.12,5.3-82.71,5.9-109.69,3.42-137.15s-1.65-58.51,3.69-158.27c4-71.16,6.25-132.46,5-143.85-1.24-10.94-2.86-31.7-3.59-46.23s-2.28-36.36-3.46-48.5c-4.55-51.12-5.79-67.49-7-95.48-.63-16.18-2.2-37.85-3.48-48-1.22-11.39-.8-24.19,1.25-33.13,3.71-16.09,3.28-30.46-1-30.7A7,7,0,0,0,1466.55,272.87Z" transform="translate(-389.34 -103.42)"/></g><g id="icon1-2" data-name="icon1"><path d="M1846.26,125.5c0-.09,0-.17,0-.26l-1.86,6.84a8.46,8.46,0,0,1-3,.32c-2.23,4.15-1.55-2.28-1,1.35.33,2.11,2.88,5.14,3.8,7.16a107.26,107.26,0,0,1,6.38,19.51c2.86,12.17,3.78,24.61,3.92,37.08.27,27.79-2.83,55.66-4.9,83.34q-6.71,89.91-13.16,179.83c-8.51,119.78-16.36,239.6-22.52,359.52-6.14,119.51-10.58,239.12-12.12,358.8s-.15,239.21,5.35,358.67q4.13,89.58,11.49,179c3.85,46.27,10.74,96.39-6.36,140.91a103.18,103.18,0,0,1-16.47,28.36c-4.69,5.69-5.47,13.59,0,19.17,4.74,4.85,14.53,5.64,19.17,0,32.79-39.85,37.05-91.54,34.41-141.24-3.19-60.23-9.5-120.29-12.81-180.54-7-126.43-9.12-253.1-7.93-379.7,1.21-127.3,5.79-254.55,12.31-381.66s14.91-253.85,24-380.67q6.83-95.22,14-190.4c2.11-28.13,4.37-56.27.26-84.33-3-20.55-12.24-63.24-40.36-60.66-13,1.19-22.82,14.11-18.86,26.84,5.18,16.58,31.36,9.49,26.13-7.23Z" transform="translate(-389.34 -103.42)"/><path d="M533,198.63c4.46-14.29,21.1-19.61,34.58-20.07,21.19-.72,42.56,4.49,63.6,6.43,42.08,3.87,84.43,3.45,126.58.86,86.05-5.27,171.68-17.59,257.43-26.19,171.73-17.22,344-28.21,516.63-26.71,97.64.86,195.2,4.78,292.75,8.71l-13.07-17.16q-2.58,9.84-5.17,19.66c-4.44,16.88,21.71,24.1,26.15,7.21q2.58-9.83,5.17-19.65c2.3-8.78-4.25-16.81-13.08-17.16-177.36-7.14-354.52-12.68-531.92-3.63-88.17,4.51-176.2,11.63-264,20.29-87.33,8.6-174.44,21-262,26.95-49,3.32-98.3,4-147.15-1.5-23.42-2.62-47.65-8.78-71-2.65-19.14,5-35.59,18.23-41.57,37.4-5.21,16.7,21,23.84,26.15,7.21Z" transform="translate(-389.34 -103.42)"/><path d="M533.26,164.67c-2.69-1.82-5.35-3.66-8-5.48-6.51-4.44-14.45-.68-18.54,4.86-13.89,18.79-6.6,42.63-1.9,63.22a251,251,0,0,1,5.48,73.45c-3.34,47.89-21.14,94.33-18.64,142.73A148.63,148.63,0,0,0,499,483.71c3.83,11.2,10.89,23.46,6.34,35.32l26.63,3.6c-3.6-57.25-8.28-114.57-9.86-171.92-.76-27.76-.5-55.56,1.91-83.25,1.22-14,3-27.93,5.63-41.76,1.09-5.81,1.87-12.23,3.95-17.8.52-1.42,1.89-3.06,2.14-4.52.58-3.56,3,.53-1.16-.71,16.79,4.88,24-21.28,7.21-26.15-23.86-6.92-33.86,19.57-37.44,37.73a517,517,0,0,0-8.89,74.65c-2.44,49,.88,98,3.95,146.86q2.73,43.44,5.45,86.87c1,15.71,21.16,17.83,26.63,3.6,8.78-22.9-7-45.77-11.09-67.93s-1.34-45.66,2.44-67.77c4-23.36,9.33-46.48,12.47-70a280.65,280.65,0,0,0,.21-74.66c-1.77-13.27-4.83-26.12-7.74-39.16-2.23-10-4.09-20.27,2.35-29q-9.26,2.45-18.54,4.86l8,5.49c14.43,9.88,28-13.6,13.68-23.41Z" transform="translate(-389.34 -103.42)"/><path d="M484,720.09q4.84,165.74,10.84,331.42c3.93,108.57,6.16,217.54,14.64,325.89,4.76,60.85,12.32,121.59,25.53,181.2,3.25,14.71,27.79,11.76,26.63-3.6q-19.08-252.64-29.48-505.81-3-71.88-5.19-143.82c-.55-17.41-27.66-17.48-27.11,0q8,253.23,24.53,506.08,4.73,71.8,10.14,143.56,13.3-1.8,26.62-3.6c-23.05-104.1-28-210.86-32.24-317.07q-6.57-164.11-12-328.26-3.06-93-5.79-186c-.52-17.42-27.63-17.5-27.11,0Z" transform="translate(-389.34 -103.42)"/><path d="M505,473.48q-34.68,4.71-69.35,9.39c-5.74.78-10,7.71-10,13.07.8,78.29,4.11,156.47,7.23,234.68.44,11.14,11,15.72,20.39,11.7,13.3-5.68,26.93-5.48,41-3.78,13.24,1.61,26.66.86,36.57-9.17L511.7,710.2c-4.89,5.39-12.29,5.34-19,3.72-11.31-2.74-21.66-8.36-33-11,3.31,4.35,6.62,8.72,9.95,13.07,7.44-68.32,3.05-137-1.5-205.39q-13.31,1.81-26.63,3.6a126.41,126.41,0,0,0,6.61,22.28c2.71,6.79,9,11.57,16.67,9.47,6.46-1.78,12.2-9.83,9.48-16.67A126.44,126.44,0,0,1,467.63,507c-3-14.86-27.63-11.67-26.62,3.6C445.56,579,450,647.68,442.51,716c-.61,5.62,4.63,11.84,10,13.07,14.59,3.36,27.7,11,42.76,12.56,13,1.31,26.7-2.42,35.65-12.27,11.68-12.85-6.83-31.66-19.18-19.17-5.8,5.87-21.67.34-29,0-15-.69-29.32,2.85-43,8.69L460,730.6c-3.11-78.21-6.41-156.4-7.23-234.68q-5,6.54-9.95,13.08l69.36-9.39c7.25-1,11.22-10.3,9.47-16.67-2.14-7.83-9.38-10.45-16.66-9.46Z" transform="translate(-389.34 -103.42)"/><path d="M559,1490.33c-23.08-4.36-47.18-3-69.14,5.72-5.27,2.11-12.41,4.28-16.49,8.34-4.84,4.84-4.55,13.33-5.39,19.69q-2.61,19.51-4.21,39.13a761.79,761.79,0,0,0-2.35,77.19q.39,18.94,1.72,37.86c.78,11.19-.45,27.32,8.22,35.81,9.42,9.22,26.68,5.19,38.37,4.13,14.86-1.34,29.67-3.36,44.36-5.92,7.14-1.25,11.38-10.18,9.48-16.67-4.63-15.77-19.87-23.51-35.58-23.38-16.76.14-30.31,12.49-46.69,12.69l13.08,17.15c8.64-25.11,2.81-51.27-1.55-76.58-2-11.83-3.87-24.15-2.4-36.15,1.64-13.38,8.66-24.67,15.64-35.88l-25.26-6.83a792.59,792.59,0,0,0,10.69,129.78l22.65-13.2a35.06,35.06,0,0,0-20.68-11.31q4.05,10,8.11,19.91a106.37,106.37,0,0,0,12.81-74.41c-2.41-12.41-8.1-24.19-9.73-36.75-.91-7.1-.61-17.83,5.83-22.55L494,1536c7.05,7,4.73,17.8,2.49,26.4-3.21,12.24-6.62,24-7.82,36.7-2.35,24.88,3,49.73,13.72,72.15,4.73,9.86,18.15,7.68,23.41,0a59.3,59.3,0,0,0,9.18-21c1.51-7.25,3.3-18.27-.66-25-10.72-18.34-36.85,1.86-25.29,18.41,4.19,6,11.87,8.76,18.54,4.86,5.94-3.46,9.08-12.51,4.87-18.54-.27-.39-.55-.76-.8-1.16.62,2.28,1.23,4.57,1.85,6.84-.3,1-.62,2-.92,3l-8.1,6.24.87-.36-10.45-1.37.87.64-6.71-11.7a37,37,0,0,1-6.67,25.53h23.4a108.59,108.59,0,0,1-8.06-70.17c5.47-24,15.91-50.3-4.58-70.56-3.91-3.87-11.62-5.62-16.43-2.12-23.16,16.89-21.66,44.86-14.12,69.68,3.82,12.61,7.22,24.52,6.59,37.84a78,78,0,0,1-11.11,35.92c-4,6.76-.76,18.63,8.1,19.91,3.9.56,6.07,1.4,8.72,4.34,4,4.41,11.43,5,16.43,2.12,5.54-3.24,7.22-9.31,6.24-15.3a748.75,748.75,0,0,1-9.72-122.57c0-13.7-18.25-18.1-25.25-6.84-7.78,12.5-15.43,25.56-18.06,40.26-2.46,13.71-1.69,27.14.22,40.86,3.41,24.34,11.75,49.78,3.41,74-2.88,8.34,4.7,17.26,13.07,17.15,14.46-.18,25.87-7.18,39.28-11.34a23.92,23.92,0,0,1,11.08-1.14,11.22,11.22,0,0,1,4.81,1.71c.69.54.65.47,1,1.55q4.74-8.33,9.48-16.67c-10,1.73-20,3.19-30.11,4.26q-7.05.75-14.13,1.27c-3.45.25-11.22-.77-14.16.86q-4.51-.57.65,2.32,3.93,5,2.4-.62c.46-2.08-.46-5.17-.64-7.26q-.64-8-1.14-16-.93-15.27-1.24-30.58A746.48,746.48,0,0,1,496,1517.57l-6.24,8.11a96.72,96.72,0,0,1,62-9.22c7.18,1.35,14.62-2,16.67-9.48,1.83-6.59-2.23-15.3-9.46-16.65Z" transform="translate(-389.34 -103.42)"/><path d="M533.06,1702c5.23,22.68,11.94,44.76,9.73,68.24-2.35,24.84-2,48.45,2.29,73.11,3.91,22.56,9,46.49,17,68,4.06,10.89,12.18,19.07,24.23,19.93,9.25.66,17.85-4.53,27-3.4,15.12,1.88,18.46-23.53,3.6-26.63q-31.7-6.6-63.57-12.17l9.47,9.47A764.05,764.05,0,0,1,561,1699.09H533.93c6.15,61.49,12.34,123.35,9,185.22-.62,11.51-1.66,23.84,5.17,33.87,8.91,13.09,24.3,12.58,38.4,11.82,14.49-.76,28.93-2.19,43.32-4.11,7.9-1.05,15.8-2.24,23.66-3.63a92.12,92.12,0,0,1,9.17-1.62c5.86-.41,1.22,1.17,1.3-2.67-.35,17.46,26.76,17.46,27.11,0,.3-15.65-13.88-25.08-28.41-24.44-13.78.6-27.74,4.71-41.46,6.35a455.5,455.5,0,0,1-45.65,3.45c-3.68.08-5.38.89-5.76-2.51-.6-5.5,0-11,.24-16.54,3.33-61.87-2.84-123.73-9-185.22-1.76-17.55-25-17.28-27.11,0a788.19,788.19,0,0,0,2.72,206.65c.61,4.19,5.37,8.75,9.48,9.47q31.88,5.58,63.57,12.17,1.81-13.3,3.6-26.62c-4.74-.59-9.46.15-14.11,1.14-3.12.66-6.72,2.47-9.93,2.32-1.52-.08-1.22,0-.52.51-1-.75-1.27-2.77-1.63-3.82-1.73-5.23-3-10.65-4.47-16-5.59-20.38-11-41.08-13.38-62.12a209.27,209.27,0,0,1-1.23-31.16c.43-11,2.44-21.9,2.59-32.89.3-21.52-6.64-43.19-11.43-64-3.89-17-30-9.79-26.12,7.23Z" transform="translate(-389.34 -103.42)"/><path d="M539.33,1896.85c-4.34,17.64,1.85,36.42,16.64,47.25,15.72,11.52,39,11.12,57.64,11.91,41.73,1.78,83.37-3,124.6-9,41.07-6,81.91-13.66,123.23-17.89a596.48,596.48,0,0,1,62.39-3.28c21.06.06,42.16,1,63.17-.74s40.83-7,60.79-13.86c19.51-6.7,38.61-12.71,59.37-13.82,21.73-1.16,43.63-.29,65.38-.11q32.32.26,64.64.56,131.55,1.22,263.07,3.16,147.81,2.18,295.62,5l-13.56-13.55c0-.65.8-2.17,1.63-2.1-.92-.09-1.16.77-2.19,1.12-3.26,1.1-6.41,1-10.16.92-9.29-.32-18.75-3-28.29-4a169.39,169.39,0,0,0-72.74,9.1c-16.33,5.78-9.29,32,7.21,26.14,27-9.56,53.27-10.19,81.29-5.55,20.68,3.41,48.69.54,50.38-25.7.48-7.41-6.6-13.43-13.56-13.55-169.69-3-339.37-6-509.08-7.7q-64.63-.66-129.28-1.16c-20.62-.15-41.46-1.1-62,1.16-20,2.2-38.58,8.28-57.53,14.76s-37.91,11.34-58.09,12.49c-20.59,1.17-41.19.12-61.8.24-40.09.25-79.94,5.54-119.5,11.61-44.65,6.85-89.17,15-134.3,17.88a452.37,452.37,0,0,1-67.58-.35c-8.12-.69-19.37-.68-25.89-6.39a17.58,17.58,0,0,1-5.35-17.39c4.16-16.91-22-24.14-26.14-7.19Z" transform="translate(-389.34 -103.42)"/><path d="M1684.5,1892.83c-14.85,10.64-15.15,27.05-15.64,43.8q-.88,29.5-1.75,59,3.36-5.85,6.72-11.7A322.81,322.81,0,0,1,1525,2014.68l13.07,10a512.44,512.44,0,0,1-12.11-118.87c.2-13.86-18.25-17.91-25.26-6.84a49.26,49.26,0,0,0-7.66,30c.53,7.31,5.84,13.56,13.55,13.56,6.93,0,14.09-6.22,13.56-13.56a24.79,24.79,0,0,1,4-16.34l-25.26-6.83a544.53,544.53,0,0,0,13.09,126.09c1.31,5.92,7.32,9.77,13.07,10a352.24,352.24,0,0,0,162.56-34.43c4.29-2,6.58-7.21,6.71-11.7q.7-23.61,1.4-47.22c.23-7.54.29-15.13.7-22.68.1-2,0-8.16,1.88-9.52,6-4.26,8.8-11.8,4.86-18.54-3.44-5.89-12.57-9.15-18.57-4.88Z" transform="translate(-389.34 -103.42)"/><path d="M1440.86,1908q-4.33,37.89-8.66,75.79l13.56-13.56L1413,1973c-9.82.85-20.8,3.23-30.6,2.2l6.83,1.85a.6.6,0,0,1-.06.11l3.48,6c-1-2.62,1.1-10.42,1.49-14.57a157.39,157.39,0,0,0,.58-21,181.78,181.78,0,0,0-6.41-41c-4.68-17.09-29.12-9.71-26.14,7.22l2.85,16.13c1.28,7.21,10.09,11.28,16.67,9.47,7.6-2.09,10.74-9.44,9.47-16.67l-2.85-16.13-26.14,7.21a149.09,149.09,0,0,1,5.56,40.82,155.18,155.18,0,0,1-1.22,18.79c-.77,5.91-2,11.16,0,17,5.2,15.21,22.1,11.85,34.58,10.78l44.67-3.82c8-.68,12.65-5.71,13.56-13.56q4.34-37.89,8.66-75.79c.83-7.28-6.83-13.55-13.56-13.55-8,0-12.72,6.24-13.57,13.54Z" transform="translate(-389.34 -103.42)"/><path d="M1008.46,1924.55c-3.06,8.74-2.8,17.77-2.39,26.89.42,9.47.46,19,0,28.43a272.23,272.23,0,0,1-8.76,55.3l16.67-9.47c-18.32-4.73-35.86,1.24-54.1,3.15a201.73,201.73,0,0,1-56.8-1.79c-3.93-.71-7.86-1.51-11.73-2.49,1.69.42,1.09,4,1.24-.15.06-1.9-.65-4-.89-5.87-1.25-9.36-1.95-18.81-2.28-28.24a295.47,295.47,0,0,1,3.66-57.91c-6.64,2.69-13.27,5.41-19.91,8.1,9.64,7.19,5.53,27.74,4.64,37.59a215.72,215.72,0,0,0,3.47,62.61c.94,4.69,5.16,8.09,9.47,9.48a243.81,243.81,0,0,0,87.41,11.28c8.05-.44,12.56-5.92,13.56-13.56.74-5.71-.82-11-3.74-15.93l-18.54,18.54q18.17,8.94,36.42,0c4.1-2,6.85-7.24,6.72-11.7q-1-30.75-1.93-61.48-.48-15-.93-30c-.15-4.83-.38-9.68-.46-14.53,0-1.48-.66-5.23.55-6.52,11.82-12.8-7.29-32-19.18-19.17-7,7.57-8.63,16.68-8.46,26.71.21,11.5.72,23,1.08,34.49q1.11,35.25,2.2,70.49,3.38-5.85,6.72-11.7a10.08,10.08,0,0,1-9,0c-11.66-5.72-25.88,6.24-18.54,18.54,1-.48,1,.27,0,2.25l13.55-13.56A221.17,221.17,0,0,1,897.93,2024l9.47,9.47c-4.49-22.22-2.94-43.48-1.67-65.88,1.11-19.65-2.37-38.21-18.89-50.53-6.61-4.92-18.57,0-19.91,8.1a312.35,312.35,0,0,0-1.25,101.61c1.46,10,5.26,18.61,15.17,22.66,9.61,3.93,20.95,4.9,31.18,6.12a217.47,217.47,0,0,0,32.38,1.43,241,241,0,0,0,33-3.47c9.7-1.65,19.53-4.21,29.31-1.7,7,1.81,14.79-2.27,16.67-9.47a310.62,310.62,0,0,0,9.38-56.84q1-13.49.62-27c-.22-8.94-1.85-18.16,1.16-26.77,5.77-16.48-20.41-23.57-26.13-7.19Z" transform="translate(-389.34 -103.42)"/><path d="M520.32,510A361.23,361.23,0,0,0,521,389.26c-1.17-7.23-10.17-11.25-16.67-9.47-7.8,2.14-10.5,9.4-9.47,16.67,5.66,40.15,10.82,82.05-4.09,120.88q12.39-1.62,24.78-3.24c-8.38-18-31.83-23.93-48.51-14.35q9.26,2.44,18.54,4.86l-7.14-16.49c-6.13-14.16-29.22-4.05-24.78,10.45a39.31,39.31,0,0,0,16.71,22.1c14.61,9.62,28.21-13.84,13.67-23.41a9.59,9.59,0,0,1-4.25-5.88q-12.37,5.21-24.77,10.45l7.14,16.49c2.92,6.76,12.8,8.16,18.54,4.86,4.76-2.72,9.28,0,11.43,4.63,5.44,11.67,21,6.47,24.77-3.24,16.68-43.41,10.4-90.5,4.09-135.29l-26.15,7.21a321.06,321.06,0,0,1-.72,106.33c-1.27,7.2,1.93,14.61,9.47,16.67,6.55,1.78,15.41-2.22,16.69-9.48Z" transform="translate(-389.34 -103.42)"/><path d="M509.08,509.06l11.43-221.32q1.43-27.67,2.87-55.34.69-13.47,1.38-26.91c.39-7.44.27-15.18,2.06-22.47,3-12.35,13-16.44,24.73-18.23,15.73-2.39,32.25-1.7,48.11-2.24,148-5.11,296-11.18,444.09-12.47,83.11-.73,166.24.18,249.29,3.85,17.44.77,17.41-26.34,0-27.11-153.13-6.76-306.46-4-459.6.7-75.94,2.36-151.88,5.09-227.82,7.71-17.12.58-34.52.36-51.57,2.14-14.57,1.52-29.3,5-40.34,15.28-12,11.21-14.63,27.43-15.55,43-1.11,18.7-1.94,37.44-2.9,56.16L482,509c-.9,17.47,26.21,17.41,27.11,0Z" transform="translate(-389.34 -103.42)"/><path d="M703.14,188.08l93-19.13c6.52-1.34,10.65-8.65,9.71-14.87-1.06-7.12-6.41-11-13.31-11.74-27.65-3.08-54.78,1.82-80.24,12.75l19.91,8.11c-.08-.49-.15-.95-.24-1.42V169a13,13,0,0,1-5.73,4.87L719.36,172c-.15-.2-.3-.4-.43-.59,12.59,12.08,31.79-7.06,19.17-19.17-14.28-13.68-35.08,0-32.08,18.16,1.6,9.58,12.77,11.16,19.91,8.1,21-9,44-11.55,66.56-9q-1.82-13.31-3.6-26.63l-93,19.13c-17.06,3.49-9.84,29.64,7.21,26.12Z" transform="translate(-389.34 -103.42)"/><path d="M1833.28,105.45a352.77,352.77,0,0,0-77.55.23c-12.64,1.46-25.23,3.45-37.65,6.16-12.19,2.65-24.19,6-36.75,6-12.74.07-25.46-1.63-38.18-2.13q-18.6-.72-37.22.18a459,459,0,0,0-77.31,10.49c-17,3.78-9.82,29.92,7.22,26.14a418.13,418.13,0,0,1,73-9.65q18.6-.79,37.22.06c12.74.57,25.53,2.41,38.3,1.94,25.08-.9,49.34-9.79,74.28-12.45a352.51,352.51,0,0,1,74.69.09c7.29.76,13.55-6.78,13.55-13.56,0-7.95-6.25-12.77-13.55-13.54Z" transform="translate(-389.34 -103.42)"/><path d="M516.24,488.8,518,253.19q.23-29.83.46-59.65c.09-10.93-1.47-27.44,6.79-36.1,4.09-4.31,10.39-4,15.87-3.58,9.72.69,19.42,2.59,29.07,3.79q28.57,3.57,57.34,5.36a942,942,0,0,0,132.81-1.18c7.3-.58,13.55-5.82,13.55-13.56,0-6.88-6.22-14.13-13.55-13.55a944.38,944.38,0,0,1-124,1.7q-31-1.63-61.79-5.33c-18.47-2.22-39.61-8.74-57.38-.58-14.63,6.72-22,21.71-24.27,37-2.77,18.37-1.67,37.35-1.8,55.86q-.48,62.63-1,125.26-.54,70.08-1.08,140.17c-.14,17.48,27,17.49,27.11,0Z" transform="translate(-389.34 -103.42)"/><path d="M1822.93,1785.09a224.58,224.58,0,0,1,9.78,47.91c.66,7.81.93,15.67.81,23.52-.09,5.59,1.1,17.37-2.16,21.66l4.87-4.87c-2.11,1.53-6.51,1.66-9.5,2.13l-16,2.48-30.46,4.75c-17.56,2.74-36.5,3.7-50.06,16.59-8.18,7.76-2.24,24,9.58,23.14,26.69-1.81,54.2-1.87,80.65-5.8,11.34-1.69,22.22-7.85,25-19.74,2.74-11.59-3.15-23.7-14.94-26.87-16.87-4.57-24,21.58-7.21,26.14-3.66-1-4.31-7.69-3.23-7.27-.57-.23-3.72,1.14-4.69,1.28-8.18,1.17-16.71,1.17-25,1.73l-50.68,3.43,9.58,23.14c5.09-4.84,12.92-5.65,19.58-6.73,10-1.63,20.08-3.14,30.12-4.7l30.46-4.75c9.24-1.44,19.35-2,25.18-10.41,5.06-7.33,5-17,5.51-25.64a238.93,238.93,0,0,0-.16-29.07,256.94,256.94,0,0,0-11.06-59.27c-5.15-16.58-31.33-9.5-26.1,7.22Z" transform="translate(-389.34 -103.42)"/><path d="M1826.35,485.58c-11.81,177.82-27,355.83-24.14,534.2,2.84,177,18.75,353.63,21.29,530.69,1.43,99.52-1.53,199.22-13.28,298.13-.86,7.27,6.85,13.55,13.55,13.55,8,0,12.69-6.25,13.56-13.55,20.89-175.72,13.67-353,4.55-529.23-4.61-88.95-9.7-177.92-11.89-267-2.18-88.62-.49-177.12,4.16-265.63,5.29-100.46,12.65-200.81,19.32-301.19,1.15-17.41-26-17.35-27.12,0Z" transform="translate(-389.34 -103.42)"/><path d="M1809.26,147.5c19.14,11.36,23,38.2,28.16,57.87,4.38,16.86,30.53,9.71,26.15-7.22-7.16-27.57-14.28-58.42-40.62-74.05-15-8.93-28.7,14.49-13.69,23.4Z" transform="translate(-389.34 -103.42)"/><path d="M1556.25,2006.51a26.48,26.48,0,0,0-36.84-.07c-4.88,4.7-5.09,12.59-1.06,17.8a13.62,13.62,0,0,0,17.49,3.49c1-.54,2-1,2.93-1.55-1,.58-1.5.49-.12.09.61-.16,4.16-.92.59-.33l1,0a4,4,0,0,1-3.41-1.18,8.15,8.15,0,0,1-4.08-4.82c-.12-.76-.26-1.52-.38-2.29.43-2.36.5-3,.23-1.94-.44,1.55,1.55-3,.42-1.13,3.54-5.77,11-6,16.54-1.66-3-2.3-5.65-4-9.58-4a13.75,13.75,0,0,0-9.58,4c-4.46,4.85-6,14.54,0,19.18,3.63,2.81,7,4.71,11.66,4.79a16.78,16.78,0,0,0,11.47-4.93,20.41,20.41,0,0,0,5.41-18.9c-2-8.37-9.38-13.33-17.7-14.1-6.79-.63-13.29,2.1-19.12,5.33l16.43,21.3q1.62-1.52-.57.36c1.31-.69,1.07-.63-.71.2a11.4,11.4,0,0,1,1.81-.45c-1.9.22-2.32.31-1.27.3s.63-.06-1.26-.27a12.18,12.18,0,0,1,1.8.46q-2.66-1.21-.72-.18c-1.46-1.23-1.66-1.35-.59-.34,5.06,5,14.19,5.42,19.18,0s5.4-13.87,0-19.18Z" transform="translate(-389.34 -103.42)"/><path d="M992,1950.25c4.91,31.34,10.53,66.51-2.62,96.66L1008,2042c-10.42-5.83-21.3-6.43-32.89-4.46-10.53,1.8-20.61,6.23-31.27,7.08-12.47,1-25.32-.84-37.74-1.7l-37.6-2.63L882,2053.88a509.05,509.05,0,0,0,.68-70.08c-.71-11.69-2-23.28-3.38-34.89a61,61,0,0,1-.68-10.71c.07-1.09.82-3.08.58-3.9s0-1,.33-.86c-.66,1.87-2.61,2.24-5.83,1.13l-8.1-6.24c.21.32.4.65.61,1-.61-2.28-1.23-4.57-1.85-6.84,0,.39,0,.78,0,1.17.61-2.27,1.23-4.56,1.85-6.83l-.53.94,8.11-6.23-1,.3c-16.65,5.06-9.55,31.24,7.21,26.15,9-2.72,13.71-11.87,10.27-20.71-3.33-8.57-13-11.36-21.08-8.57-15,5.1-18.69,22.48-17.46,36.42,1.54,17.32,3.84,34.44,4.44,51.85a508.13,508.13,0,0,1-1.29,57c-.6,7.66,6.72,13.07,13.55,13.55,23,1.61,46.42,4.58,69.53,4.52,11.08,0,21.56-2.55,32.18-5.39,7.64-2,16.67-5.26,24.1-1.1,5.83,3.25,15.57,2,18.54-4.87,16.51-37.88,11.55-77.92,5.35-117.56-1.13-7.25-10.2-11.25-16.68-9.48-7.72,2.11-10.6,9.42-9.47,16.68Z" transform="translate(-389.34 -103.42)"/><path d="M495.27,467.08l-46.81,9.82c-13.37,2.8-30.59,3.66-42.23,11.4-12.21,8.12-14.13,22-15.51,35.46a301.86,301.86,0,0,0-1,44.7c2.69,59,17.91,117.23,12.46,176.54-1,10.56,12.14,16.46,20.39,11.71,2.95-1.71,7.68.33,10.8,1a166.35,166.35,0,0,0,19.85,3.3c13.16,1.38,26.18.48,39.22-1.64,8.18-1.34,12.91-13.27,8.1-19.91-7.6-10.52-19-13.88-31.53-11.32-7.11,1.47-14.54,6.48-20.91,1.15-5.75-4.82-8.69-13.07-10.71-20.05-3.28-11.35-5.09-23.34-6.64-35C424,623.58,427.35,572,433.9,521.47H406.79c-4.94,49.35-9.26,100.91,8.9,148.24,2.62,6.84,9.13,11.54,16.67,9.48,6.54-1.8,12.11-9.81,9.48-16.68-17.34-45.18-12.64-94-7.93-141,.73-7.29-6.74-13.56-13.55-13.56-8.1,0-12.61,6.27-13.56,13.56-6.88,53-9.61,106.51-2.24,159.61,3,21.78,6.25,45.62,20.57,63.25,6.55,8,15.65,13.53,26.07,14.51,6,.56,11.78-.73,17.49-2.41,2.38-.69,5.06-2.06,7.53-2.1,2.92-.06,3.28,2.1.93-1.15q4.05-10,8.11-19.91a112.19,112.19,0,0,1-39.28-.48c-12.77-2.5-24.87-6.52-37.07.51L429.3,745c5-54.59-7.45-108.36-11.59-162.55a376.34,376.34,0,0,1-1.13-39.16c.19-7,.6-14,1.41-20.93.44-3.8.33-9.57,3.83-11.81,4.19-2.7,11.58-2.85,16.31-3.83l20.48-4.29,43.89-9.2c17-3.59,9.82-29.73-7.23-26.15Z" transform="translate(-389.34 -103.42)"/><path d="M419.12,769.19a606.79,606.79,0,0,1,77.45-2.2l-13.08-17.15c-.18.49-.37,1-.55,1.49l3.48-6c2.09-.32,4.17-.65,6.26-1-17-4-24.22,22.17-7.21,26.14,11.14,2.61,20.24-3,24.15-13.48,3.23-8.61-5-16.87-13.07-17.15a606.64,606.64,0,0,0-77.44,2.2c-7.29.67-13.56,5.75-13.56,13.55,0,6.79,6.24,14.22,13.57,13.54Z" transform="translate(-389.34 -103.42)"/><path d="M528.32,1481c-22.52,3.48-47.18,8.24-67.84,18.18-11.36,5.47-13.66,15.93-13.67,27.53,0,12.46.06,24.91.15,37.37q.54,75.48,3,150.92c.25,7.68,6,13.08,13.55,13.56q37.32,2.42,74.63,5.31c7.3.58,13.56-6.64,13.56-13.55,0-7.8-6.23-13-13.56-13.56q-37.31-2.91-74.63-5.31L477.08,1715q-2.22-68-2.88-136-.15-16.45-.22-32.88l-.05-16.45c0-.43.39-7.92,0-8s-1.39,1.25-1.22,1.6c0-.09,27.17-8.68,29.63-9.31a331.08,331.08,0,0,1,33.17-6.81c7.25-1.11,11.26-10.2,9.48-16.67-2.14-7.73-9.43-10.59-16.7-9.46Z" transform="translate(-389.34 -103.42)"/></g></svg>